<?xml version="1.0" encoding="utf-8"?>
<!-- Generator: Adobe Illustrator 19.2.1, SVG Export Plug-In . SVG Version: 6.00 Build 0)  -->
<svg version="1.1" id="Слой_1" xmlns="http://www.w3.org/2000/svg" xmlns:xlink="http://www.w3.org/1999/xlink" x="0px" y="0px"
	 viewBox="0 0 1095.2 149.3" style="enable-background:new 0 0 1095.2 149.3;" xml:space="preserve">
<style type="text/css">
	.st0{fill:#FFFFFF;}
</style>
<g>
	<g>
		<g>
			<path class="st0" d="M69.1,103.2c1.8,0.6,3.3,1.3,4.5,2c1.2,0.7,2.2,1.4,2.9,2.1c0.8,0.7,1.3,1.3,1.8,2c0.4,0.7,0.7,1.3,1,1.8
				l6.8,1c0.8,0.1,1.6,0.1,2.2,0.2c0.6,0.1,1.2,0.2,1.6,0.3l1.1,2.8c-0.6-0.2-1.4-0.5-2.3-0.8c-0.9-0.3-1.9-0.6-2.9-0.8
				c-1-0.3-2.1-0.5-3.1-0.8c-1-0.2-2-0.4-2.8-0.6c0.2,1.9,0,3.9-0.6,6c-0.6,2-1.6,3.9-2.8,5.7c-1.3,1.7-2.8,3.2-4.7,4.5
				c-1.8,1.3-3.9,2.1-6.1,2.4c-4,0.6-7.3,0.3-9.9-0.9c-2.5-1.2-4-3.2-4.5-5.9c-0.6-3.5,0.5-6.3,3.2-8.2c2.7-2.1,6-3.4,9.7-4
				c1.6-0.3,3.3-0.5,5.1-0.8c1.8-0.3,3.2-0.4,4.3-0.4l-7-7.2c2-1.3,3.8-2.7,5.5-4.2c1.7-1.5,3.1-3.1,4.3-4.8c1.2-1.7,2-3.4,2.6-5.2
				c0.6-1.8,0.7-3.7,0.4-5.6c-0.5-3-1.8-5.1-4-6.4c-2.2-1.3-4.8-1.8-7.8-1.3c-4.5,0.7-9,3.2-13.6,7.4c-5.1,4.7-7.4,9.1-6.7,13.2
				l0.1,0.4c0.1,0.1,0.1,0.3,0.1,0.4l-0.2,0.3l-0.4-0.1c-0.6-1.2-1-2.1-1.1-2.6c-0.8-4.9,1.3-9.4,6.3-13.5c4.1-3.4,8.9-5.5,14.3-6.4
				c4.3-0.7,8-0.4,11.1,0.9c3.8,1.5,6,4.3,6.6,8.2c1,6-1.8,11-8.4,14.9c-0.6,0.2-1.5,0.7-2.8,1.5C71.7,101.7,70.4,102.5,69.1,103.2z
				 M74.2,112.3l-3.1,0.2l-3.3,0.4c-4.1,0.6-7.6,2.2-10.4,4.7c-2.8,2.4-3.9,4.9-3.5,7.6c0.3,1.8,1.4,3.3,3.2,4.4
				c1.9,0.9,4.1,1.2,6.6,0.8c1.9-0.3,3.6-0.9,5.2-1.8c1.6-0.9,3-2,4.1-3.3c1.1-1.3,1.9-2.7,2.4-4.2c0.5-1.5,0.7-3,0.4-4.5
				C75.6,115.2,75.1,113.8,74.2,112.3z"/>
			<path class="st0" d="M61.7,132.3c-2.5,0-4.7-0.4-6.5-1.3c-2.8-1.4-4.5-3.6-5-6.7c-0.6-3.9,0.6-7,3.6-9.2
				c2.9-2.1,6.3-3.5,10.1-4.2c1.6-0.3,3.3-0.5,5.1-0.8c0.8-0.1,1.5-0.2,2.2-0.3l-6.3-6.5l1-0.7c1.9-1.2,3.7-2.6,5.3-4.1
				c1.6-1.5,3-3,4.1-4.6c1.1-1.6,1.9-3.2,2.5-5c0.5-1.7,0.6-3.4,0.3-5.2c-0.4-2.7-1.6-4.5-3.6-5.7c-2-1.2-4.4-1.6-7.2-1.2
				c-4.3,0.7-8.7,3.1-13.1,7.1c-4.8,4.4-7,8.6-6.4,12.3l0,0.3c0.1,0.2,0.1,0.4,0.2,0.5l0.1,0.3l-0.7,1.3l-1.6-0.4l-0.2-0.4
				c-0.7-1.3-1.1-2.3-1.2-2.9c-0.8-5.3,1.4-10.1,6.7-14.4c4.2-3.5,9.2-5.7,14.8-6.6c4.4-0.7,8.3-0.4,11.6,1c4.1,1.6,6.6,4.7,7.2,9
				c1,6.5-2,11.8-8.9,15.9l-0.2,0.1c-0.3,0.1-1.1,0.4-2.5,1.4c-0.7,0.4-1.4,0.9-2,1.3c1,0.4,1.9,0.9,2.7,1.3
				c1.2,0.7,2.3,1.5,3.1,2.2c0.8,0.7,1.5,1.5,1.9,2.2c0.3,0.5,0.6,1,0.8,1.4l6.2,0.9c0.8,0.1,1.5,0.1,2.2,0.2
				c0.7,0.1,1.3,0.2,1.8,0.3l0.5,0.1l2.1,5.4l-2.1-0.8c-0.6-0.2-1.3-0.5-2.2-0.8c-0.9-0.3-1.9-0.6-2.9-0.8c-1-0.3-2-0.5-3.1-0.8
				c-0.5-0.1-1-0.2-1.5-0.3c0,1.6-0.2,3.3-0.7,5c-0.6,2.1-1.6,4.1-3,6c-1.3,1.8-3,3.4-4.9,4.7c-2,1.4-4.2,2.2-6.5,2.6
				C64.3,132.2,63,132.3,61.7,132.3z M73.6,113.4l-2.5,0.2l-3.2,0.4c-3.9,0.6-7.2,2.1-9.9,4.4c-2.5,2.1-3.5,4.3-3.2,6.7
				c0.2,1.5,1.1,2.7,2.7,3.7c1.6,0.8,3.6,1,5.9,0.6c1.7-0.3,3.4-0.8,4.9-1.7c1.5-0.8,2.8-1.9,3.8-3c1-1.2,1.8-2.5,2.2-3.9
				c0.5-1.4,0.6-2.7,0.4-4.1C74.7,115.6,74.3,114.5,73.6,113.4z M62.4,113.3c-2.7,0.7-5.2,1.8-7.3,3.4c-2.4,1.8-3.4,4.1-2.9,7.3
				c0.2,1,0.5,1.9,1,2.7c-0.2-0.4-0.3-0.9-0.4-1.4c-0.5-3.1,0.8-5.9,3.8-8.5C58.4,115.3,60.3,114.2,62.4,113.3z M75.1,111.9
				c0.9,1.5,1.5,3.1,1.8,4.5c0.3,1.7,0.1,3.3-0.5,5c-0.3,0.9-0.7,1.8-1.2,2.6c0.2-0.2,0.3-0.4,0.5-0.6c1.2-1.6,2.1-3.4,2.7-5.4
				c0.6-1.9,0.8-3.8,0.6-5.6l0-0.4l-0.2,0l-0.2-0.5c-0.2-0.5-0.5-1-0.9-1.6c-0.4-0.6-0.9-1.2-1.6-1.8c-0.7-0.6-1.6-1.3-2.8-1.9
				c-1.1-0.7-2.6-1.3-4.3-1.9l-0.5-0.2l7.7,7.9L75.1,111.9z M87.3,113.2c0.5,0.2,1.1,0.3,1.6,0.5c0.1,0,0.2,0.1,0.3,0.1l-0.1-0.3
				c-0.3-0.1-0.7-0.1-1-0.2C87.8,113.2,87.6,113.2,87.3,113.2z M76.3,76.9c2.1,1.5,3.5,3.8,3.9,6.8c0.3,2.1,0.2,4.1-0.4,6.1
				c-0.6,1.9-1.5,3.8-2.7,5.5c-1,1.4-2.1,2.7-3.4,4c0.6-0.4,1.1-0.6,1.5-0.7c6.1-3.7,8.7-8.2,7.8-13.8c-0.6-3.6-2.5-6.1-6-7.5
				C76.8,77.1,76.6,77,76.3,76.9z M57.4,79.3c-1.7,0.9-3.3,2-4.8,3.2c-3.6,2.9-5.5,5.9-6,9.2c1-2.9,3.2-5.9,6.5-8.9
				C54.6,81.5,56,80.3,57.4,79.3z"/>
		</g>
		<g>
			<path class="st0" d="M98.1,94.6c-3.3,14.1-4.8,22.2-4.4,24.5c0.3,2.1,1.4,3,3.3,2.7s4.5-2,7.9-5.1l4-21.5
				c0.3-0.2,1.9-1.4,4.6-3.6c0.1,0,0.2,0,0.2,0.2c0.1,0.5-0.9,5.5-2.8,15c-1.9,9.2-3.2,14.8-3.7,16.7c2.3-1,5.1-2.6,8.2-4.5
				c3.5-2.2,6-4.1,7.4-5.6l0.1,1c-4.5,3.4-9.8,6.7-15.8,10.1c-2.5,7.2-5.4,11-8.6,11.5c-0.7,0.1-1.3-0.1-1.9-0.5
				c-0.3-0.5-0.4-0.8-0.4-0.9c-0.5-2.9,1.8-5.8,6.9-8.6l1.5-7.6c-2.7,2.5-5.3,4-7.7,4.4c-3.7,0.6-5.9-1-6.5-4.9
				c-0.3-2.2,0-5.5,0.9-10.1c0.4-1.6,1.1-5.1,2.3-10.4l4.5-3.1C98,94.4,98.1,94.5,98.1,94.6z M97.2,134.7l0.4,0.5
				c0.4,0.1,0.7,0.2,0.9,0.1c1.4-0.2,2.4-1.4,3-3.5c0.5-1.4,0.9-3,1.2-4.9c-2.3,2-3.6,3-3.7,3.2c-1.5,1.5-2.1,2.9-1.9,4.1l0,0.3
				C97.2,134.5,97.2,134.6,97.2,134.7z"/>
			<path class="st0" d="M98.1,137c-0.7,0-1.4-0.2-2.1-0.7l-0.2-0.1l-0.1-0.2c-0.4-0.7-0.5-1-0.5-1.3c-0.5-3.3,1.8-6.4,7-9.4l0.8-4.4
				c-2.1,1.6-4.1,2.5-6.1,2.8c-2.1,0.3-3.9,0-5.2-1c-1.3-1-2.1-2.6-2.5-4.7c-0.4-2.3-0.1-5.7,0.9-10.4c0.4-1.7,1.1-5.1,2.3-10.4
				l0.1-0.4l5.4-3.7l0.6,0.4c0.3,0.2,0.5,0.6,0.6,1l0,0.2l0,0.2c-4.1,17.3-4.6,22.7-4.4,24.2c0.3,1.8,1.1,2.1,2.2,1.9
				c1.1-0.2,3.3-1.1,7.1-4.7l4-21.6l0.3-0.2c0.4-0.3,2.7-2.1,4.6-3.6l0.2-0.2l0.3,0c0.3-0.1,0.7,0,0.9,0.2c0.3,0.2,0.4,0.5,0.5,0.8
				c0.1,0.4,0.2,1-2.8,15.4c-1.4,6.9-2.5,11.9-3.2,14.7c1.8-0.9,3.9-2.1,6.2-3.6c3.4-2.2,5.9-4,7.2-5.5l1.5-1.7l0.3,3.8l-0.4,0.3
				c-4.4,3.3-9.7,6.6-15.6,9.9c-2.6,7.4-5.6,11.2-9.3,11.8C98.5,136.9,98.3,137,98.1,137z M98.2,134.4c0.1,0,0.1,0,0.1,0
				c0.9-0.1,1.7-1.1,2.2-2.8c0.2-0.6,0.4-1.3,0.6-2c-1.1,0.9-1.4,1.2-1.4,1.2c-0.9,0.9-1.8,2.2-1.7,3.3l0,0.1c0,0,0,0.1,0.1,0.1
				L98.2,134.4z M103.8,126.6l-0.1,0.5c-0.3,1.7-0.7,3.2-1.1,4.5c1.1-1.6,2.1-3.7,3.1-6.3l0,0l0.6-2.1c0.5-1.9,1.8-7.5,3.7-16.7
				c1.5-7.3,2.2-11,2.6-12.9c-1.4,1.1-2.2,1.8-2.7,2.1l-4,21.5l-0.1,0.1L103.8,126.6L103.8,126.6z M94.3,98c-1.1,5.1-1.8,8.4-2.2,10
				c-0.9,4.4-1.2,7.7-0.9,9.7c0.3,1.6,0.8,2.8,1.7,3.5c0.2,0.1,0.4,0.2,0.6,0.3c-0.4-0.6-0.6-1.3-0.8-2.1c-0.4-2.3,0.9-9.9,4-23
				L94.3,98z"/>
		</g>
		<g>
			<path class="st0" d="M130.5,117.7c-5.5,0.9-8.6-0.9-9.3-5.4c-0.7-4.3,0.5-9.1,3.5-14.5c3.1-5.6,6.8-8.8,11-9.4
				c1.1-0.2,2.1,0.1,3,0.8c0.9,0.7,1.4,1.6,1.6,2.7c0.3,2-0.2,4.4-1.7,7.3c-1.5,3.1-3.2,4.8-5,5.1l-0.2,0l-0.5-0.1l-0.5-0.5
				l-0.1-0.5c0.1-1.6,1.5-3.6,4-6c2.3-2.2,3.4-4.3,3.1-6.2c-0.1-0.7-0.5-1.2-1.3-1.6s-1.5-0.5-2.2-0.3c-3.5,0.5-6.2,3.7-8.2,9.4
				c-1.7,5-2.3,9.4-1.7,13.3c0.6,3.7,2.7,5.3,6.3,4.8c2.3-0.4,4.9-1.4,7.7-3.1c2.5-1.5,4.8-3.2,6.7-5.1l0.2,1.1
				c-3.2,2.2-5.8,3.9-7.7,5C136.2,116.2,133.3,117.3,130.5,117.7z"/>
			<path class="st0" d="M128,118.9c-5.6,0-7.3-3.4-7.8-6.4c-0.7-4.5,0.5-9.6,3.6-15.1c3.3-5.9,7.2-9.2,11.7-9.9
				c1.4-0.2,2.7,0.1,3.8,1c1.1,0.8,1.7,2,2,3.3c0.3,2.2-0.2,4.8-1.7,7.9c-1.6,3.5-3.5,5.3-5.8,5.7l-0.4,0.1l-1-0.3l-0.9-0.9
				l-0.3-0.9l0-0.2c0.2-1.9,1.6-4.1,4.3-6.7c2.1-1.9,3-3.7,2.8-5.3c0-0.3-0.2-0.6-0.7-0.8c-0.5-0.3-1.1-0.3-1.6-0.3
				c-3.1,0.5-5.5,3.4-7.4,8.8c-1.7,4.8-2.2,9.1-1.6,12.8c0.3,1.6,0.8,2.7,1.6,3.4c0.8,0.6,2,0.8,3.5,0.6c2.2-0.3,4.6-1.3,7.4-3
				c2.5-1.5,4.7-3.1,6.5-4.9l1.4-1.4l0.6,3.7l-0.5,0.4c-3.2,2.2-5.8,3.9-7.8,5c-3,1.7-6,2.8-8.9,3.3h0
				C129.7,118.8,128.9,118.9,128,118.9z M128.5,94.1c-1,1.2-2,2.6-2.9,4.3c-2.9,5.1-4,9.7-3.4,13.8c0.3,2.1,1.3,4.6,5.5,4.7
				c-0.1-0.1-0.2-0.2-0.3-0.2c-1.3-1-2.1-2.5-2.4-4.6c-0.6-4-0.1-8.7,1.7-13.8C127.2,96.7,127.8,95.3,128.5,94.1z M133.3,103.3
				L133.3,103.3L133.3,103.3c1.6-0.2,3-1.8,4.4-4.5c0.6-1.1,1-2.2,1.2-3.2c-0.5,0.8-1.2,1.6-2.1,2.3c-2.8,2.6-3.5,4.3-3.7,5.2l0,0
				L133.3,103.3z"/>
		</g>
		<g>
			<path class="st0" d="M193.1,103.5c-3.2,3.1-6.3,5-9.3,5.4c-2.1,0.3-3.9,0-5.4-0.9c-1.5-0.9-2.4-2.5-2.7-4.6c-0.3-1.8,0-4.5,0.8-8
				c0.3-1.4,1-4.1,2-8.1c0.5-2,0.7-3.5,0.5-4.5c0,0-0.1-0.1-0.2-0.2l-0.3,0c-0.2,0.1-0.6,0.4-1.2,0.8c-1.8,1.2-4.2,4.9-7,11.1
				c-2.5,5.3-4.2,9.6-5.2,12.8c-1,3.2-1.8,4.9-2.5,5c-0.8,0.1-1.4-0.3-2.1-1.2c-0.5-0.8-0.8-1.6-1-2.4c-0.3-2.1,0.1-5.9,1.2-11.3
				l2.4-11.8l0.1,0l0-0.1l-0.1-0.1l-0.2-0.1l-0.1,0c-2.1,0.3-4.7,4-8,11.1c-2.4,5.1-4.2,9.9-5.5,14.3c-0.9,2.8-1.7,4.3-2.6,4.4
				c-1,0.2-1.8-1.4-2.4-4.7c-0.5-2.7-0.4-6.1,0.4-10.1c0.2-1.3,1-4.6,2.3-9.9c0.1-0.6,0.2-1,0.3-1.1c0-0.1,0.3-0.3,0.9-0.7
				c1.4-1.1,2.6-1.9,3.6-2.6c0.2,0,0.3,0.1,0.3,0.4c0,0.2,0,0.7-0.2,1.5l-5.5,26.2c0.1,0.1,0.2,0.1,0.4,0.1c0.7-0.9,2-4.5,4-10.7
				c1.2-3.6,2.8-7.3,4.9-11.1c2.8-5.1,5.4-7.8,7.7-8.1c0.8-0.1,1.5,0.2,2.1,1c0.6,0.8,1,1.6,1.1,2.4c0.4,2.3,0,5.4-1,9.3
				c-0.5,1.6-1.3,4.7-2.6,9.3c-0.7,2.7-1,4.5-0.9,5.3c0,0.1,0.1,0.1,0.2,0.1l0.5-0.1c0-0.1,0.6-2.1,2-5.8
				c5.6-15.5,10.3-23.6,14.2-24.2c0.9-0.1,1.6,0.2,2.3,0.9c0.6,0.7,1,1.5,1.1,2.5c0.3,2.2-0.1,5.8-1.4,10.7c-1.3,5-1.8,8.5-1.4,10.6
				c0.3,1.6,1.6,2.3,4,1.9c2.4-0.4,5.5-2.2,9.2-5.6L193.1,103.5L193.1,103.5z"/>
			<path class="st0" d="M146.7,116c-2,0-2.8-3-3.2-5.6c-0.5-2.8-0.4-6.3,0.4-10.4c0.2-1.3,1-4.7,2.3-9.9c0.2-1.1,0.3-1.2,0.4-1.4
				c0.1-0.1,0.1-0.2,1.1-0.9c1.4-1.1,2.6-2,3.7-2.6l0.3-0.2l0.3,0c0.7,0.1,1.1,0.5,1.2,1.2c0,0.3,0,0.7-0.2,1.8l-3.5,16.4
				c0.1-0.4,0.3-0.9,0.5-1.4c1.2-3.7,2.8-7.5,5-11.3c3-5.4,5.8-8.2,8.4-8.6c0.8-0.1,2,0,3.1,1.4c0.7,0.9,1.2,1.9,1.3,2.9
				c0.4,2.5,0.1,5.7-1,9.7c-0.2,0.8-0.6,2-1,3.5c6.6-17.1,10.7-19.7,13.2-20.1c1.2-0.2,2.3,0.2,3.2,1.2c0.7,0.9,1.2,1.9,1.4,3
				c0.4,2.4-0.1,6-1.4,11.1c-1.2,4.8-1.7,8.2-1.4,10.2c0.1,0.5,0.2,1.5,2.8,1.1c2.2-0.4,5.2-2.1,8.7-5.3l1.4-1.2l0.4,2.8l-0.7,0.1
				c0,0,0,0,0,0l0.6,0.5l-1.5,2l-0.1-0.5c-2.8,2.5-5.7,3.9-8.4,4.4c-2.4,0.4-4.4,0-6.1-1.1c-1.7-1.1-2.8-2.9-3.1-5.3
				c-0.3-2,0-4.7,0.8-8.4c0.3-1.4,1-4.1,2-8.1c0.3-1.2,0.5-2.2,0.5-2.9c0,0,0,0-0.1,0.1c-1.2,0.8-3.3,3.2-6.7,10.7
				c-2.4,5.3-4.2,9.5-5.1,12.7c-1.3,4.5-2.3,5.5-3.3,5.7c-0.8,0.1-2-0.1-3-1.6c-0.6-0.9-1-1.9-1.1-2.9c-0.4-2.2,0-6.1,1.2-11.7
				l2.1-10.4c-1.2,1-3.2,3.5-6.2,9.9c-2.3,5.1-4.2,9.8-5.5,14.2c-1,3.3-2.1,4.9-3.4,5.1C146.9,116,146.8,116,146.7,116z M148.2,89.8
				c0,0.2-0.1,0.4-0.2,0.7c-1.3,5.3-2,8.6-2.3,9.8c-0.7,3.9-0.8,7.1-0.4,9.7c0.1,0.8,0.3,1.5,0.4,2l5.1-24.3c-0.7,0.5-1.4,1-2.1,1.6
				C148.5,89.6,148.3,89.7,148.2,89.8z M164.1,86.4l-2.3,11.2c-1.1,5.3-1.5,9-1.2,11c0.1,0.6,0.3,1.2,0.6,1.7
				c0.1-0.9,0.3-2.2,0.9-4.3c1.3-4.7,2.1-7.8,2.6-9.4c1-3.7,1.3-6.7,1-8.9c-0.1-0.7-0.4-1.3-0.9-2c-0.2-0.2-0.4-0.4-0.5-0.5l0.2,1.1
				L164.1,86.4z M180.1,82.6C180.1,82.6,180.1,82.6,180.1,82.6c0.2,1.2,0,2.8-0.5,5c-1,4-1.6,6.7-2,8.1c-0.8,3.4-1.1,5.9-0.8,7.6
				c0.3,1.8,1,3.1,2.2,3.8c-0.1-0.2-0.1-0.5-0.2-0.7c-0.4-2.3,0.1-5.9,1.4-11c1.2-4.8,1.7-8.3,1.4-10.3c-0.1-0.8-0.4-1.4-0.9-2
				C180.5,82.8,180.3,82.7,180.1,82.6z M148.2,89.7L148.2,89.7L148.2,89.7z"/>
		</g>
		<g>
			<path class="st0" d="M200.8,80.8c-5.4,4.2-8.5,9.2-9.1,15c-0.1,0.7-0.2,1-0.4,1.1c-0.1,0-0.2,0-0.2-0.2c-0.1-0.6,0-1.8,0.3-3.7
				c0.9-5.3,4.1-9.8,9.7-13.3l0.7-2.9c1.2-0.6,2.6-1.3,4.2-1.9c0.1,0,0.1,0.2,0.1,0.4c0.1,0.4,0,1.1-0.3,2.1c1-0.3,1.6-0.4,1.7-0.4
				c6.6-1,10.3,1.1,11.2,6.5c0.9,5.5-1.9,11.6-8.3,18.2c2.6,1.2,4.9,1.7,7,1.3c2-0.3,3.7-0.9,5.2-1.8c1-0.6,2.4-1.7,4.3-3.3l0.1,0.9
				c-3.5,2.9-6.6,4.6-9.4,5.1c-2.2,0.3-5.3,0.1-9.3-0.6c-2.8,1.8-5.6,2.9-8.4,3.3c-0.6,3.3-1.2,7.2-1.7,11.8l-3.8,3.1
				c-0.3-1.7,0.2-6.6,1.5-14.6c-2.7-0.5-4.2-1.7-4.5-3.6c-0.4-2.4,1-3.8,4.2-4.3c0.1,0,0.7-0.1,1.7-0.1L200.8,80.8z M197.3,99.4
				c-2.7,0.8-3.9,2.2-3.6,4.1c0.2,1.3,1,2.2,2.4,2.8L197.3,99.4z M206.9,102.8c-1.2-0.9-3.1-1.8-5.6-2.8l-1.2,6.1
				C202.2,105.4,204.4,104.3,206.9,102.8z M208.7,100.9c4.4-5.5,6.2-10.9,5.4-16.2c-0.4-2.2-1.2-4-2.7-5.1c-1.4-1.2-3.3-1.6-5.5-1.2
				l-0.5,0.1c-1,4.3-2.3,11.1-4,20.5C203.9,99.6,206.3,100.2,208.7,100.9z"/>
			<path class="st0" d="M193.8,123.2l-0.3-1.7c-0.3-1.7,0.2-6.3,1.4-14c-3.2-0.8-4.1-2.7-4.4-4.2c-0.2-1.5,0.1-2.8,1-3.7
				c0.9-0.9,2.2-1.5,4-1.8c0.1,0,0.1,0,1-0.1l2.7-14.3c-3.9,3.6-6.1,7.8-6.6,12.6c-0.1,0.5-0.2,1.8-1.2,2c-0.7,0.1-1.3-0.3-1.4-1
				c-0.1-0.5-0.1-1.3,0.4-4.1c0.9-5.5,4.2-10.1,9.8-13.8l0.7-3l0.4-0.2c1.2-0.6,2.7-1.3,4.3-1.9l0.5-0.2l0.4,0.3
				c0.4,0.3,0.5,0.7,0.5,1.1c0,0.2,0,0.5,0,0.9c0.2,0,0.3-0.1,0.3-0.1c3.5-0.6,6.4-0.2,8.4,1c2.1,1.2,3.4,3.4,3.9,6.4
				c0.9,5.5-1.7,11.6-7.6,18c1.9,0.7,3.6,1,5.1,0.7c1.8-0.3,3.5-0.9,4.8-1.7c1-0.6,2.4-1.7,4.2-3.2l1.4-1.2l0.5,3.3l-0.4,0.4
				c-3.6,3.1-6.9,4.8-9.9,5.3c-2.2,0.3-5.3,0.2-9.3-0.6c-2.6,1.6-5.2,2.6-7.7,3.1c-0.6,3.1-1.1,6.8-1.5,11l0,0.4L193.8,123.2z
				 M197,106.7l0,0.2c-1.1,6.7-1.5,10.4-1.5,12.5l1.9-1.5c0.5-4.4,1-8.2,1.6-11.5l0.1-0.7l0.1,0l1.3-6.9c1.7-9.4,3-16.3,4-20.5
				l0.1-0.7l0.1,0l0.1-0.4c0.1-0.3,0.1-0.6,0.2-0.8c-0.9,0.4-1.7,0.7-2.4,1.1l-0.7,2.9l-0.1,0.1L198.6,98l0,0L197,106.7z M196,101
				c-1.5,0.9-1.4,1.9-1.3,2.3c0.1,0.5,0.3,1,0.7,1.3L196,101z M202.1,101.4l-0.6,3.1c1.1-0.5,2.3-1,3.5-1.7
				C204.2,102.3,203.2,101.9,202.1,101.4z M193.5,100.6c-0.2,0.1-0.4,0.3-0.5,0.4c-0.3,0.3-0.7,0.9-0.5,2c0,0.2,0.1,0.5,0.3,0.9
				c0-0.1,0-0.1,0-0.2C192.6,102.7,192.7,101.6,193.5,100.6z M208.2,102.2l0.4,0.1c0.4,0.1,0.8,0.1,1.2,0.2l-0.8-0.4l-0.5-0.2
				c-0.7-0.2-1.3-0.4-2-0.6c0.4,0.2,0.7,0.5,1.1,0.7l0.5,0.3L208.2,102.2z M210.2,77.7c0.7,0.3,1.3,0.6,1.9,1.1
				c1.6,1.3,2.6,3.3,3,5.7c0.7,5.1-0.8,10.3-4.5,15.5c5.6-6,8-11.5,7.2-16.4c-0.4-2.4-1.3-4-2.9-5C213.7,78,212.1,77.7,210.2,77.7z
				 M202.7,98.2c1.9,0.5,3.7,1,5.6,1.6c3.9-5.1,5.5-10.1,4.8-14.9c-0.3-2-1.1-3.5-2.3-4.5c-1.2-1-2.6-1.3-4.5-1
				C205.5,83.5,204.2,89.8,202.7,98.2z M190.6,96.3L190.6,96.3L190.6,96.3z"/>
		</g>
		<g>
			<path class="st0" d="M234.8,72.8c0.1-0.1,0.3-0.1,0.6-0.2c0.2,0,0.3,0.1,0.3,0.4c0.3,2.1-0.4,6.3-2.3,12.5
				c-1.9,6.2-2.6,10.4-2.3,12.7c0.3,1.8,1.5,2.6,3.7,2.2c2.3-0.4,5.5-2.5,9.6-6.4l0.1,0.9c-3.3,3.7-6.6,5.9-9.8,6.4
				c-1.8,0.3-3.4,0-4.7-0.7c-1.4-0.7-2.2-2-2.5-3.7c-0.3-2.2-0.1-5.6,0.8-10.1c0.3-1.7,1.1-5.2,2.1-10.4
				C232.5,75.1,233.9,74,234.8,72.8L234.8,72.8z M237,63.5c0.1,0.8,0,1.4-0.5,2.1c-0.4,0.6-1,1-1.8,1.1c-1.9,0.3-3-0.5-3.2-2.3
				c-0.3-1.8,0.5-2.9,2.4-3.2c0.7-0.1,1.4,0.1,2,0.5C236.5,62.1,236.9,62.7,237,63.5z"/>
			<path class="st0" d="M233.4,102.4c-1.4,0-2.7-0.3-3.8-0.9c-1.6-0.9-2.6-2.4-3-4.4c-0.4-2.3-0.1-5.8,0.8-10.5l2.2-10.9l0.4-0.2
				c0.6-0.4,1.2-0.8,1.7-1.1l-0.9,0.1l3.4-2.4c0.2-0.2,0.5-0.3,1-0.3c0.1,0,0.3,0,0.4,0l1.6-0.2l-0.8,0.9c0.1,0.2,0.1,0.3,0.2,0.5
				c0.4,2.3-0.4,6.5-2.3,12.9c-1.8,6-2.6,10.1-2.2,12.2c0.1,0.9,0.5,1.2,0.7,1.2c0.4,0.2,1,0.3,1.9,0.2c2.1-0.3,5.2-2.4,9-6.1
				l1.4-1.3l0.5,3.3l-0.3,0.4c-3.5,3.9-7,6.2-10.4,6.7C234.5,102.4,234,102.4,233.4,102.4z M231.5,76.9l-2,10
				c-0.8,4.4-1.1,7.7-0.8,9.8c0.2,1.4,0.9,2.4,1.9,3c0,0,0.1,0.1,0.1,0.1c-0.2-0.4-0.4-0.9-0.5-1.5c-0.4-2.4,0.4-6.7,2.3-13.1
				c1.8-5.9,2.3-9.1,2.3-10.9C234,75.2,232.8,76.1,231.5,76.9z M234,67.7c-0.8,0-1.5-0.2-2.1-0.6c-0.8-0.5-1.2-1.4-1.4-2.6
				c-0.2-1.2,0-2.2,0.6-2.9c0.6-0.7,1.4-1.2,2.6-1.4c1-0.2,2,0.1,2.8,0.7c0.8,0.6,1.3,1.4,1.5,2.5v0c0.2,1-0.1,1.9-0.6,2.8
				c-0.6,0.8-1.4,1.4-2.4,1.5C234.6,67.7,234.3,67.7,234,67.7z M234.3,62.1c-0.1,0-0.2,0-0.3,0c-0.7,0.1-1.1,0.3-1.4,0.6
				c-0.2,0.3-0.3,0.8-0.2,1.4c0.1,0.6,0.3,1.1,0.6,1.3c0.3,0.2,0.8,0.3,1.5,0.2c0.5-0.1,0.8-0.3,1.1-0.7c0.3-0.4,0.4-0.8,0.3-1.3
				l0,0c-0.1-0.5-0.3-0.9-0.7-1.2C235,62.2,234.7,62.1,234.3,62.1z"/>
		</g>
		<g>
			<path class="st0" d="M267.5,67.7c0.1-0.1,0.3-0.1,0.6-0.2c0.2,0,0.3,0.1,0.3,0.4c0.3,2.1-0.4,6.3-2.3,12.5
				c-1.9,6.2-2.6,10.4-2.3,12.7c0.3,1.8,1.5,2.6,3.7,2.2c2.3-0.4,5.5-2.5,9.6-6.4l0.1,0.9c-3.3,3.7-6.6,5.9-9.8,6.4
				c-1.8,0.3-3.4,0-4.7-0.7c-1.4-0.7-2.2-2-2.5-3.7c-0.3-2.2-0.1-5.6,0.8-10.1l0.1-0.4c-0.8,0-1.7,0.1-2.8,0.3
				c-1.1,0.2-1.8,0.3-2.2,0.4c-0.6,0.1-1.2,0.2-1.6,0.4c-0.5,0.2-0.9,0.5-1.3,1.1c-0.4,0.6-0.8,1.4-1.1,2.6
				c-0.4,1.1-0.7,2.7-1.1,4.7c-0.2,1.2-0.5,2.4-0.6,3.5s-0.4,2-0.7,2.8c-0.3,0.8-0.7,1.4-1.2,1.9c-0.5,0.5-1.1,0.7-2,0.7
				c-0.9-0.3-1.5-0.9-2-1.8c-0.5-0.8-0.8-1.8-0.9-2.8c-0.2-1.1-0.2-2.6,0-4.3c0.2-1.7,0.5-3.8,1-6.1c0.3-0.9,0.6-2.2,1-3.9
				c0.4-1.8,0.9-4,1.5-6.7c1-0.6,2-1.3,2.8-1.8c0.8-0.6,1.5-1.2,2.1-1.8l-0.1,0c0-0.1,0.3-0.1,0.7-0.2c0.2,0,0.3,0.1,0.3,0.4
				c0.3,2.2-0.6,6.4-2.7,12.7c-2.2,6.4-3.1,10.7-2.7,13l0.2,1.4l0.6-0.2l0.2-0.4c0.2-0.6,0.5-1.6,0.7-3c0.2-1.4,0.5-2.9,0.8-4.5
				c0.3-1.6,0.6-3.1,1-4.5c0.4-1.4,0.9-2.4,1.5-3c0.4-0.3,1.1-0.6,2.1-0.8c1-0.2,1.9-0.4,2.7-0.5c0.4-0.1,1-0.1,1.7-0.2
				c0.7-0.1,1.5-0.2,2.3-0.4l1.8-8.9C265.1,70,266.6,68.8,267.5,67.7L267.5,67.7z"/>
			<path class="st0" d="M246.4,100.6C246.4,100.6,246.4,100.6,246.4,100.6l-0.2,0l-0.2-0.1c-1.1-0.4-1.9-1.2-2.5-2.2
				c-0.5-0.9-0.9-2-1.1-3.1c-0.2-1.2-0.2-2.7,0-4.5c0.2-1.8,0.5-3.8,1-6.2c0.3-0.9,0.6-2.2,1-3.9c0.4-1.8,0.9-4,1.5-6.7l0.1-0.4
				l0.4-0.2c1-0.6,1.9-1.2,2.7-1.8c0.6-0.5,1.2-0.9,1.7-1.4l0.1-0.1c0.3-0.4,0.7-0.5,1.4-0.6c0.1,0,0.3,0,0.4,0l1.7-0.3l-0.8,0.9
				c0.1,0.2,0.1,0.3,0.2,0.5c0.3,2-0.3,5.6-1.9,10.8c0.6-0.5,1.4-0.8,2.6-1.1c1-0.2,2-0.4,2.8-0.5c0.4-0.1,1-0.1,1.8-0.2
				c0.5,0,1-0.1,1.5-0.2l1.7-8.7l0.4-0.2c0.6-0.4,1.2-0.8,1.7-1.1l-0.9,0.1l3.3-2.4c0.2-0.2,0.5-0.3,1-0.3c0.1,0,0.3,0,0.4,0
				l1.6-0.2l-0.8,0.9c0.1,0.2,0.1,0.3,0.2,0.5c0.4,2.3-0.4,6.5-2.3,12.9c-1.8,6-2.6,10.1-2.2,12.2c0.1,0.9,0.5,1.2,0.7,1.2
				c0.4,0.2,1,0.3,1.9,0.2c2.1-0.3,5.2-2.4,9-6.1l1.4-1.3l0.5,3.3l-0.3,0.4c-3.5,3.9-7,6.2-10.4,6.7c-2,0.3-3.8,0-5.4-0.8
				c-1.6-0.9-2.6-2.4-3-4.4c-0.3-2.2-0.1-5.4,0.6-9.6c-0.4,0.1-0.9,0.1-1.4,0.2c-1.1,0.2-1.8,0.3-2.2,0.4c-0.5,0.1-1,0.2-1.4,0.4
				c-0.3,0.1-0.6,0.4-0.9,0.8c-0.3,0.5-0.7,1.2-1,2.3c-0.3,1.1-0.7,2.6-1,4.6c-0.2,1.2-0.5,2.4-0.6,3.5c-0.2,1.1-0.5,2.2-0.8,3
				c-0.4,0.9-0.8,1.7-1.4,2.3C248.5,100.3,247.6,100.6,246.4,100.6z M247.9,74.7c-0.6,2.5-1.1,4.6-1.4,6.3c-0.4,1.8-0.7,3.1-1,4
				c-0.5,2.2-0.8,4.2-1,5.9c-0.2,1.6-0.2,3,0,4c0.1,0.9,0.4,1.7,0.8,2.5c0.3,0.6,0.8,1,1.3,1.3c0.1,0,0.1,0,0.2,0l-0.3-2.2
				c-0.4-2.4,0.5-6.8,2.8-13.4c2.1-6.2,2.7-9.5,2.7-11.3c-0.5,0.4-1,0.8-1.6,1.2C249.6,73.5,248.8,74.1,247.9,74.7z M262.2,80.8
				l-0.2,0.9c-0.8,4.4-1.1,7.7-0.8,9.8c0.2,1.4,0.9,2.4,1.9,3c0,0,0.1,0.1,0.1,0.1c-0.2-0.4-0.4-0.9-0.5-1.5
				c-0.4-2.4,0.4-6.7,2.3-13.1c1.8-5.9,2.3-9.1,2.3-10.9c-0.9,0.9-2,1.8-3.4,2.6L262.2,80.8z"/>
		</g>
		<g>
			<path class="st0" d="M278.5,87.6c0.6,3.9,2.7,5.6,6.3,5.1c2.2-0.3,4.5-1.2,6.8-2.7c2.2-1.4,4-3,5.3-4.9l0.2,1.1
				c-4,4.2-8.2,6.6-12.4,7.3c-3.1,0.5-5.4,0.4-7-0.4c-2-0.9-3.2-2.9-3.7-5.8c-1.2-7.2,0.7-13.4,5.8-18.8c1.9-2.1,3.5-3.2,4.6-3.4
				c1.1-0.2,2.1,0.1,2.9,0.9c0.8,0.8,1.3,1.7,1.5,2.9c0.7,4.5-2.7,10.4-10.4,17.5L278.5,87.6z M286.7,66.3c-0.3-0.2-0.6-0.3-1-0.3
				c-2.8,0.4-4.9,3.1-6.4,8.1c-1.1,3.8-1.6,7.5-1.3,11.1c2.3-2.1,4.3-4.9,6.3-8.3c2.2-4,3.1-7.2,2.7-9.7
				C287,67,286.9,66.7,286.7,66.3z"/>
			<path class="st0" d="M281.4,94.7c-1.7,0-3.1-0.3-4.2-0.8c-2.3-1.1-3.7-3.3-4.2-6.6c-1.2-7.4,0.8-14.1,6-19.7
				c2.1-2.3,3.8-3.5,5.2-3.7c1.4-0.2,2.7,0.2,3.7,1.1c1,0.9,1.5,2.1,1.8,3.5c0.8,4.9-2.6,10.8-10.3,18l0.1,0.9
				c0.5,3.4,2.1,4.7,5.1,4.2c2.1-0.3,4.2-1.1,6.4-2.6c2.1-1.3,3.8-2.9,5.1-4.7l1.4-2l0.6,4l-0.3,0.4c-4.2,4.3-8.5,6.9-13,7.6
				C283.6,94.6,282.4,94.7,281.4,94.7z M280.5,68.9C280.5,69,280.5,69,280.5,68.9c-4.9,5.2-6.7,11.1-5.5,18c0.4,2.6,1.4,4.3,3.1,5.1
				c0.5,0.2,1.1,0.4,1.9,0.5c-1.1-0.9-2-2.4-2.4-4.8l-0.1-0.5l-0.2,0.2l-0.2-2.1c-0.3-3.7,0.2-7.5,1.3-11.4
				C279,71.9,279.7,70.3,280.5,68.9z M285.8,67.1c-2.3,0.4-4.1,2.9-5.5,7.4c-0.8,2.9-1.3,5.7-1.3,8.4c1.6-1.8,3.1-3.9,4.5-6.4
				c2.1-3.8,3-6.8,2.6-9.1l0,0c0,0,0-0.1-0.1-0.3C285.9,67.1,285.8,67.1,285.8,67.1z"/>
		</g>
		<g>
			<path class="st0" d="M316.6,64.1c0.2-1.3,0.1-2-0.1-2.1c-0.3-0.1-0.7,0-1.5,0.3c-0.1,0.1-0.3,0.2-0.5,0.3
				c-0.2,0.1-0.5,0.3-0.7,0.5c-1.8,1.8-3.2,4-4.3,6.5c-1.1,2.5-2.1,5.2-3.1,8l-2.7,9.9c-0.3,1.2-1.1,2.1-2.2,2.7
				c-1.1,0.6-2.3,0.8-3.5,0.7c-1.2-0.1-2.2-0.5-3.1-1.3c-0.9-0.7-1.2-1.8-1.1-3.3c0.2-0.9,0.6-1.7,1.2-2.4c0.6-0.7,1.3-1,2-1
				c0.7,0,1.4,0.5,2,1.4c0.6,0.9,1,2.6,1.1,4.9c0.7,0.3,1.2,0.1,1.6-0.4s0.7-1.1,0.9-1.7l2.4-7.9c0.7-2.2,1.4-4.4,2.2-6.5
				c0.8-2.1,1.7-4.1,2.8-5.8c1.1-1.7,2.3-3.2,3.7-4.4c1.4-1.2,3-1.9,4.9-2.2c0.4-0.1,0.8,0,1.2,0.4c0.4,0.4,0.6,0.6,0.6,0.8
				c0.1,0.5,0.2,1.1,0.3,1.7c0,0.6,0,1.4-0.1,2.3c-0.1,1-0.3,2.1-0.6,3.5c-0.3,1.4-0.7,3.1-1.3,5.2c-2,7.4-2.9,11.5-2.7,12.3
				c0,0.2,0.1,0.3,0.3,0.2l0.3-0.2c0.6-1,1.1-2.1,1.5-3.6c0.1-0.3,0.2-0.8,0.4-1.5c0.2-0.6,0.4-1.4,0.7-2.3c0.5-1.5,1.2-3.2,2.1-5.2
				s2-4.1,3.3-6.5c3.1-5.7,5.6-8.7,7.4-9c0.7-0.1,1.4,0.2,2.2,0.8c0.8,0.7,1.2,1.4,1.3,2.2c0.3,2-0.2,5.5-1.5,10.5
				c-0.7,2.5-1.2,4.6-1.5,6.4c-0.3,1.8-0.4,3.2-0.3,4.2c0.2,1.5,1.4,2,3.6,1.7c1.7-0.3,3.4-1,4.9-2.1c0.3-0.2,0.9-0.7,1.5-1.2
				c0.7-0.6,1.5-1.4,2.4-2.3l0.2,0.9c-2.8,3.2-5.8,5.1-9.1,5.6c-1.8,0.3-3.4,0-4.8-0.9s-2.2-2.3-2.5-4.2c-0.3-1.7,0.3-5.2,1.7-10.5
				c1.4-5.3,2-8.6,1.8-10.1c0,0-0.1-0.1-0.2,0c-0.7,0.1-1.9,1.4-3.7,3.7c-3.6,4.9-6.6,11-8.9,18.4c-0.1,0.4-0.3,1-0.5,1.7
				c-0.2,0.7-0.4,1.6-0.8,2.8c-0.2,0.8-0.6,1.4-1.2,1.7c-1.3,0.2-2.1-1-2.5-3.6c-0.2-1.5-0.3-3.1-0.1-4.7c0.2-1.6,0.4-3.2,0.7-4.9
				c0.3-1.7,0.6-3.3,1-5.1S316.4,66,316.6,64.1z"/>
			<path class="st0" d="M298.6,91.8c-0.2,0-0.4,0-0.6,0c-1.4-0.1-2.6-0.6-3.6-1.5c-0.8-0.7-1.7-1.9-1.4-4.1l0-0.1
				c0.2-1.1,0.7-2,1.5-2.8c0.8-0.9,1.8-1.3,2.7-1.3c0,0,0,0,0,0c1.1,0,2,0.6,2.8,1.9c0.6,0.9,1,2.3,1.2,4.3c0.3-0.4,0.5-0.8,0.6-1.2
				l2.4-7.9c0.7-2.2,1.4-4.4,2.2-6.6c0.8-2.2,1.8-4.2,2.9-6c1.1-1.8,2.4-3.4,3.9-4.6c1.5-1.3,3.3-2.1,5.4-2.4
				c0.4-0.1,1.3-0.1,2.1,0.6c0.6,0.6,0.9,1,0.9,1.4c0.1,0.5,0.2,1.1,0.3,1.7c0,0.7,0,1.5-0.1,2.5c-0.1,1-0.3,2.2-0.7,3.6
				c-0.3,1.4-0.7,3.2-1.3,5.2c-0.2,0.7-0.4,1.4-0.5,2c0.4-0.9,0.8-1.8,1.2-2.8c0.9-2,2-4.2,3.3-6.6c4.4-8.1,6.8-9.3,8.2-9.5
				c1-0.2,2,0.2,3,1.1c0.9,0.8,1.5,1.8,1.6,2.8c0.3,2.2-0.2,5.8-1.5,10.9c-0.7,2.5-1.2,4.6-1.5,6.3c-0.3,1.6-0.4,2.9-0.3,3.8
				c0.1,0.5,0.3,0.7,0.5,0.8c0.3,0.1,0.9,0.3,2,0.1c1.6-0.2,3.1-0.9,4.4-1.9c0.3-0.2,0.8-0.6,1.5-1.2c0.7-0.6,1.5-1.3,2.4-2.3
				l1.3-1.3l0.7,3.2l-0.3,0.4c-2.9,3.4-6.2,5.4-9.7,6c-2.1,0.3-3.9,0-5.5-1c-1.6-1-2.6-2.7-2.9-4.9c-0.3-1.9,0.3-5.5,1.8-10.9
				c1.1-4.1,1.6-6.6,1.7-8c-0.5,0.5-1.1,1.3-2.1,2.5c-3.6,4.8-6.5,10.9-8.8,18.1c-0.1,0.4-0.3,0.9-0.4,1.6c-0.2,0.7-0.4,1.7-0.8,2.8
				c-0.3,1-0.9,1.8-1.7,2.3l-0.2,0.1l-0.2,0c-1,0.2-1.9-0.3-2.6-1.2c-0.5-0.7-0.9-1.8-1.1-3.3c-0.3-1.6-0.3-3.3-0.1-5
				c0.2-1.6,0.4-3.3,0.7-4.9c0.3-1.7,0.6-3.4,1-5.1c0.3-1.7,0.6-3.5,0.7-5.3l0-0.1c0.1-0.4,0.1-0.6,0.1-0.8c-0.1,0-0.1,0.1-0.2,0.1
				c-0.1,0.1-0.3,0.2-0.5,0.3c-0.2,0.1-0.4,0.2-0.5,0.4c-1.6,1.7-3,3.7-4,6.1c-1.1,2.5-2.1,5.1-3,7.9l-2.7,9.8
				c-0.4,1.5-1.3,2.6-2.7,3.3C300.9,91.5,299.8,91.8,298.6,91.8z M294.9,86.4c-0.1,1.4,0.4,2,0.7,2.3c0.7,0.6,1.6,1,2.5,1
				c0.4,0,0.8,0,1.1,0l0-0.5c-0.1-2.7-0.6-3.9-0.9-4.4c-0.3-0.4-0.7-1-1.2-1c-0.4,0-0.9,0.2-1.3,0.7
				C295.4,85.1,295.1,85.7,294.9,86.4z M317.6,64.2c-0.1,1.9-0.4,3.8-0.7,5.5c-0.3,1.7-0.7,3.4-1,5.1c-0.3,1.6-0.5,3.2-0.7,4.8
				c-0.1,1.5-0.1,3,0.1,4.4c0,0.1,0,0.1,0,0.2c0.3-1.7,1.1-4.8,2.5-10.3c0.5-2,1-3.8,1.3-5.1c0.3-1.3,0.5-2.5,0.6-3.4
				c0.1-0.9,0.1-1.6,0.1-2.1c0-0.5-0.1-1-0.2-1.5c0-0.1-0.1-0.2-0.4-0.4c-0.1,0-0.2-0.2-0.3-0.1l-0.1,0c-0.5,0.1-1,0.2-1.4,0.3
				C317.8,62.2,317.7,63.2,317.6,64.2z M333.2,59.7c0.1,1.2-0.1,3.6-1.9,10.2c-1.7,6.4-1.9,9-1.7,10.1c0.2,1.5,0.9,2.7,1.9,3.4
				c-0.1-0.2-0.1-0.4-0.1-0.5c-0.2-1.2-0.1-2.6,0.3-4.5c0.3-1.8,0.8-3.9,1.5-6.5c1.3-4.9,1.8-8.3,1.5-10.1c-0.1-0.6-0.4-1.1-1-1.6
				C333.5,59.9,333.3,59.8,333.2,59.7z M319.6,61.8L319.6,61.8L319.6,61.8z M319.6,61.7C319.6,61.7,319.6,61.7,319.6,61.7
				C319.6,61.8,319.6,61.7,319.6,61.7z"/>
		</g>
		<g>
			<path class="st0" d="M346.4,76.7c0.6,3.8,2.1,5.6,4.6,5.2c4.1-0.6,6.9-4.9,8.4-12.8c-3.2-3.3-5.1-6.9-5.7-10.6
				c-0.7-4.7,0.1-7.2,2.6-7.6c1.8-0.3,3.3,0.5,4.5,2.4c0.9,1.4,1.5,3.1,1.9,5.2c0.5,2.9,0.2,6.5-0.8,10.9c2,1.2,4.1,1.7,6.3,1.3
				c1.6-0.3,3.1-0.9,4.6-2l0.1,0.9c-1.3,1-2.9,1.7-4.8,2c-2.1,0.3-4.2,0-6.4-1c-3,7.7-6.7,11.9-11.1,12.6c-2.3,0.4-4.3,0-5.8-1.1
				c-1.5-1.1-2.5-2.8-2.8-5.2c-0.5-3.2-0.1-6.7,1.2-10.3c1.2-3.4,3-6.4,5.3-9c1.7-1.9,3-2.9,3.8-3.1c0.2,0,0.4,0,0.4,0.2
				c0,0.1-0.3,0.6-0.8,1.5C347.2,63,345.4,69.8,346.4,76.7L346.4,76.7z M356,52.4l-0.4,0c-1,0.5-1.3,2-0.9,4.8
				c0.6,3.6,2.2,7.1,4.9,10.3c0.1-2.6,0-5.3-0.5-8.1C358.5,55.5,357.5,53.2,356,52.4z"/>
			<path class="st0" d="M348.9,84.2c-1.8,0-3.4-0.5-4.7-1.4c-1.7-1.3-2.8-3.2-3.2-5.8c-0.5-3.4-0.1-7,1.2-10.8
				c1.2-3.5,3.1-6.6,5.5-9.3c1.9-2.2,3.3-3.2,4.4-3.4c0.2,0,0.4,0,0.6,0c0.1-0.3,0.1-0.5,0.2-0.8c0.6-1.6,1.7-2.6,3.3-2.9
				c1.5-0.2,3.7,0.1,5.5,2.8c1,1.5,1.6,3.4,2,5.5c0.5,2.9,0.3,6.4-0.7,10.5c1.6,0.8,3.2,1.1,5,0.8c1.4-0.2,2.8-0.8,4.1-1.8l1.5-1.1
				l0.3,3.3l-0.4,0.3c-1.5,1.1-3.2,1.9-5.3,2.2c-1.9,0.3-3.9,0.1-6-0.7c-3.1,7.4-7,11.5-11.5,12.2C350.1,84.2,349.5,84.2,348.9,84.2
				z M349.7,57.6c-0.2,0.2-0.4,0.4-0.6,0.6c-2.2,2.5-3.9,5.4-5.1,8.6c-1.2,3.4-1.6,6.7-1.1,9.8c0.3,2.1,1.1,3.6,2.4,4.5
				c0.8,0.5,1.6,0.9,2.6,1c-0.2-0.2-0.4-0.4-0.6-0.6c-0.9-1-1.5-2.6-1.9-4.7l-0.1-0.4l0.1-0.1C344.6,70.1,346,63.8,349.7,57.6z
				 M347.5,77c0.3,1.5,0.7,2.6,1.3,3.3c0.5,0.6,1.2,0.8,2.1,0.7c3.5-0.6,6-4.4,7.4-11.5c-3.1-3.4-5-7-5.6-10.7
				c-0.1-0.6-0.2-1.2-0.2-1.8c-4.4,6.4-6.1,13-5,19.6L347.5,77L347.5,77z M360.3,69.9c-0.2,1.1-0.5,2.1-0.7,3
				c0.4-0.9,0.8-1.8,1.2-2.7l0.1-0.3l-0.1-0.1l0.2-0.7c1-4.2,1.3-7.7,0.8-10.5c-0.3-1.9-0.9-3.5-1.8-4.8c-1.1-1.7-2.2-2-3-2
				c1.5,1.1,2.5,3.6,3.1,7.4c0.5,2.9,0.6,5.6,0.5,8.3l-0.1,2.6L360.3,69.9z M355.8,53.5c-0.3,0.4-0.4,1.5-0.1,3.5
				c0.4,2.5,1.4,5,2.9,7.4c-0.1-1.6-0.2-3.2-0.5-4.9C357.5,55.5,356.5,54,355.8,53.5z"/>
		</g>
		<g>
			<path class="st0" d="M408.7,71c3.3-1.4,6.7-3.1,10.4-5l0.2,1.1c-1,0.6-2.5,1.3-4.4,2.1c-1.9,0.8-3.8,1.7-5.7,2.7
				c0.9,2.7,1.2,5.3,0.9,7.7c-0.2,2.4-0.9,4.6-2,6.5c-1.1,2-2.6,3.7-4.6,5.1c-1.9,1.5-4.2,2.6-6.7,3.4c-1.7,0.4-3.3,0.5-4.9,0.4
				s-3.1-0.4-4.5-1c-1.4-0.6-2.5-1.4-3.5-2.5c-0.9-1.1-1.5-2.4-1.8-4.1c-0.3-2-0.1-3.8,0.7-5.4c0.8-1.6,2-3,3.5-4.1
				c1.5-1.2,3.3-2.1,5.2-2.8c2-0.7,4-1.2,6-1.6c0.5-0.1,1.4-0.3,2.6-0.6c1.3-0.3,2.5-0.5,3.8-0.7c-0.5-0.7-1.3-1.5-2.2-2.3
				c-0.9-0.8-1.9-1.7-3.1-2.8c2.1-2.1,3.8-4.3,5.1-6.7c1.3-2.3,1.8-4.8,1.4-7.3c-0.2-1.1-0.5-2-1-2.9c-0.5-0.9-1.1-1.6-1.8-2.2
				c-0.7-0.6-1.5-1-2.3-1.3c-0.9-0.2-1.7-0.3-2.6-0.2c-2.1,0.3-3.7,0.9-4.9,1.7c-1.2,0.8-2,1.7-2.5,2.7c-0.5,1-0.6,2-0.4,3.1
				c0.2,1.1,0.7,2,1.4,2.8c0.8,0.8,1.8,1.4,3.1,1.9c1.3,0.4,2.8,0.5,4.4,0.3c0.2,0,0.3,0,0.2,0c0,0-0.1,0-0.3,0.1
				c-0.1,0.1-0.2,0.2-0.3,0.3c-0.1,0.1,0,0.3,0.1,0.4c-1.4,0-2.7,0-3.8-0.2c-1.1-0.2-2-0.5-2.8-0.9c-0.8-0.5-1.4-1.1-1.9-1.9
				c-0.5-0.8-0.8-1.9-1.1-3.3c-0.3-2,0.3-3.8,1.8-5.4s4-2.7,7.3-3.2c2.5-0.4,4.5-0.2,6.2,0.6c1.6,0.8,2.9,1.9,3.9,3.2
				c0.9,1.3,1.5,2.8,1.7,4.2s0.1,2.7-0.3,3.6c-0.4,0.9-0.8,1.8-1.3,2.5c-0.4,0.8-0.9,1.5-1.6,2.3c-0.6,0.8-1.5,1.6-2.5,2.5
				c-1,0.9-2.3,2-3.8,3.2c1.3-0.1,2.4,0,3.3,0.2c0.9,0.2,1.7,0.5,2.3,0.9s1.1,0.8,1.5,1.3C408.1,70.1,408.4,70.6,408.7,71z
				 M386,88.1c0.2,1,0.6,2,1.2,2.8c0.6,0.8,1.4,1.5,2.3,2.1c0.9,0.6,2,1,3.1,1.2c1.1,0.2,2.3,0.3,3.5,0.1c1.8-0.3,3.4-0.9,4.9-1.9
				c1.5-1,2.7-2.2,3.7-3.6c1-1.4,1.7-3,2.1-4.7c0.4-1.7,0.5-3.4,0.2-5.2c-0.2-1-0.4-2-0.7-2.8s-0.6-1.7-1-2.5
				c-0.2-0.3-0.4-0.5-0.5-0.6c-3.3,0.7-6.2,1.6-8.7,2.7c-2.5,1.1-4.5,2.3-6.1,3.7c-1.6,1.3-2.8,2.8-3.5,4.3S385.8,86.6,386,88.1z"/>
			<path class="st0" d="M393.1,96.1c-0.4,0-0.8,0-1.1,0c-1.7-0.1-3.3-0.5-4.8-1.1c-1.5-0.6-2.8-1.6-3.8-2.7c-1.1-1.2-1.7-2.8-2-4.6
				c-0.3-2.2-0.1-4.2,0.8-6c0.9-1.7,2.1-3.2,3.8-4.5c1.6-1.2,3.4-2.2,5.5-2.9c2-0.7,4.1-1.3,6.2-1.6c0.5-0.1,1.4-0.3,2.6-0.5
				c0.7-0.2,1.4-0.3,2.2-0.5c-0.3-0.3-0.6-0.6-0.9-0.9c-0.8-0.7-1.6-1.5-2.6-2.3l-1.3,0.1l0.7-0.6l-0.7-0.6l0.8-0.8
				c2-2,3.7-4.2,5-6.5c1.2-2.2,1.6-4.3,1.3-6.7c-0.1-1-0.4-1.8-0.9-2.6c-0.4-0.8-1-1.4-1.6-1.9c-0.6-0.5-1.2-0.8-2-1.1
				c-0.7-0.2-1.4-0.3-2.2-0.1c-1.9,0.3-3.4,0.8-4.5,1.5c-1,0.7-1.8,1.5-2.1,2.3c-0.4,0.8-0.5,1.6-0.3,2.4c0.2,0.9,0.5,1.6,1.2,2.3
				c0.6,0.7,1.5,1.2,2.6,1.6c1.1,0.4,2.5,0.5,4,0.3l1.1-0.2l0.4,2l-0.2,0l0.9,0.9l-2.2,0.1c-1.5,0-2.8,0-4-0.2
				c-1.2-0.2-2.3-0.5-3.2-1.1c-0.9-0.5-1.7-1.3-2.2-2.2c-0.6-0.9-0.9-2.1-1.2-3.6c-0.4-2.3,0.3-4.4,2.1-6.2c1.7-1.8,4.3-3,7.9-3.6
				c2.7-0.4,5-0.2,6.8,0.7c1.8,0.9,3.2,2.1,4.2,3.6c1,1.5,1.6,3,1.9,4.7c0.2,1.7,0.1,3.1-0.4,4.2c-0.4,0.9-0.9,1.8-1.3,2.6
				c-0.4,0.8-1,1.7-1.7,2.5c-0.7,0.8-1.5,1.7-2.5,2.6c-0.5,0.5-1.1,1-1.7,1.5c0.3,0,0.5,0.1,0.8,0.1c1,0.2,1.9,0.5,2.6,1
				c0.7,0.4,1.3,1,1.8,1.5c0.2,0.3,0.4,0.5,0.6,0.8c3-1.3,6.3-2.9,9.6-4.7l1.2-0.6l0.7,3.1l-0.6,0.4c-1.1,0.6-2.6,1.3-4.5,2.2
				c-1.6,0.7-3.3,1.4-4.9,2.2c0.7,2.6,1,5,0.7,7.3c-0.3,2.5-1,4.9-2.2,6.9c-1.2,2.1-2.8,3.9-4.8,5.4c-2,1.5-4.4,2.7-7,3.5
				C395.8,95.9,394.4,96.1,393.1,96.1z M387,87.9c0.1,0.9,0.5,1.7,1,2.4c0.5,0.7,1.2,1.4,2,1.9c0.8,0.5,1.8,0.9,2.7,1.1
				c1,0.2,2.1,0.2,3.1,0.1c1.6-0.3,3.1-0.8,4.5-1.7c1.4-0.9,2.5-2,3.5-3.3c0.9-1.3,1.6-2.8,2-4.3c0.4-1.6,0.5-3.2,0.2-4.8
				c-0.2-1-0.4-1.9-0.6-2.7c-0.3-0.8-0.5-1.5-0.9-2.3c0,0,0-0.1-0.1-0.1c-2.9,0.6-5.6,1.5-7.8,2.5c-2.4,1.1-4.4,2.3-5.9,3.5
				c-1.5,1.2-2.6,2.6-3.2,3.9C387,85.4,386.8,86.6,387,87.9L387,87.9z M395.1,75.1c-1,0.3-2,0.6-3,0.9c-1.9,0.7-3.6,1.6-5,2.7
				c-1.4,1.1-2.5,2.3-3.2,3.8c-0.7,1.4-0.9,3-0.6,4.8c0.2,1.4,0.8,2.6,1.6,3.6c0.8,1,1.9,1.7,3.1,2.2c0,0,0,0,0,0
				c-0.6-0.5-1.1-1-1.5-1.6c-0.7-1-1.2-2.1-1.3-3.2l0,0c-0.3-1.6,0-3.3,0.8-5c0.8-1.7,2-3.2,3.7-4.6
				C391.1,77.3,392.9,76.2,395.1,75.1z M405.6,71.8l0.3,0.8c0,0,0,0.1,0.3,0.4l0.2,0.3c0.4,0.8,0.7,1.7,1,2.6c0.3,0.9,0.5,1.9,0.7,3
				c0.3,1.9,0.2,3.7-0.3,5.6c-0.1,0.2-0.1,0.5-0.2,0.7c0.8-1.7,1.4-3.5,1.6-5.6c0.2-2.3-0.1-4.7-0.9-7.3l-0.4-0.6
				c-0.3-0.4-0.6-0.9-1-1.3c-0.3-0.4-0.7-0.8-1.3-1.1c-0.5-0.3-1.2-0.6-2-0.7c-0.5-0.1-1.2-0.2-1.9-0.2c0.4,0.3,0.7,0.6,1,0.9
				c0.9,0.9,1.7,1.7,2.3,2.5l0.2,0.3L405.6,71.8z M400.5,45.8c0.1,0,0.1,0,0.2,0c1,0.3,1.9,0.8,2.7,1.5c0.8,0.7,1.5,1.5,2,2.4
				c0.6,1,0.9,2.1,1.1,3.2c0.4,2.7-0.1,5.4-1.5,8c-0.6,1-1.2,2-1.9,2.9c0.2-0.2,0.4-0.4,0.6-0.5c1-0.9,1.7-1.7,2.4-2.4
				c0.6-0.7,1.1-1.4,1.5-2.1c0.4-0.7,0.8-1.6,1.2-2.5c0.3-0.8,0.4-1.8,0.2-3.1c-0.2-1.3-0.7-2.6-1.5-3.8c-0.8-1.2-2-2.2-3.5-2.9
				C403,46.1,401.8,45.8,400.5,45.8z"/>
		</g>
		<g>
			<path class="st0" d="M440.8,43c-5.4,4.2-8.5,9.2-9.1,15c-0.1,0.7-0.2,1-0.4,1.1c-0.1,0-0.2,0-0.2-0.2c-0.1-0.6,0-1.8,0.3-3.7
				c0.9-5.3,4.1-9.8,9.7-13.3l0.7-2.9c1.2-0.6,2.6-1.3,4.2-1.9c0.1,0,0.1,0.2,0.1,0.4c0.1,0.4,0,1.1-0.3,2.1c1-0.3,1.6-0.4,1.7-0.4
				c6.6-1,10.3,1.1,11.2,6.5c0.9,5.5-1.9,11.6-8.3,18.2c2.6,1.2,4.9,1.7,7,1.3c2-0.3,3.7-0.9,5.2-1.8c1-0.6,2.4-1.7,4.3-3.3l0.1,0.9
				c-3.5,2.9-6.6,4.6-9.4,5.1c-2.2,0.3-5.3,0.1-9.3-0.6c-2.8,1.8-5.6,2.9-8.4,3.3c-0.6,3.3-1.2,7.2-1.7,11.8l-3.8,3.1
				c-0.3-1.7,0.2-6.6,1.5-14.6c-2.7-0.5-4.2-1.7-4.5-3.6c-0.4-2.4,1-3.8,4.2-4.3c0.1,0,0.7-0.1,1.7-0.1L440.8,43z M437.3,61.6
				c-2.7,0.8-3.9,2.2-3.6,4.1c0.2,1.3,1,2.2,2.4,2.8L437.3,61.6z M447,65c-1.2-0.9-3.1-1.8-5.6-2.8l-1.2,6.1
				C442.2,67.7,444.5,66.6,447,65z M448.7,63.1c4.4-5.5,6.2-10.9,5.4-16.2c-0.4-2.2-1.2-4-2.7-5.1c-1.4-1.2-3.3-1.6-5.5-1.2
				l-0.5,0.1c-1,4.3-2.3,11.1-4,20.5C443.9,61.8,446.3,62.4,448.7,63.1z"/>
			<path class="st0" d="M433.8,85.5l-0.3-1.7c-0.3-1.7,0.2-6.3,1.4-14c-3.2-0.9-4.1-2.7-4.4-4.2c-0.2-1.5,0.1-2.8,1-3.7
				c0.9-0.9,2.2-1.5,4-1.8c0.1,0,0.1,0,1-0.1l2.7-14.3c-3.9,3.6-6.1,7.8-6.6,12.6c-0.1,0.5-0.2,1.8-1.2,2c-0.7,0.1-1.3-0.3-1.4-1
				c-0.1-0.5-0.1-1.3,0.3-4.1c0.9-5.5,4.2-10.1,9.8-13.8l0.7-3l0.4-0.2c1.2-0.6,2.7-1.3,4.3-1.9l0.5-0.2l0.4,0.3
				c0.4,0.3,0.5,0.7,0.5,1.1c0,0.2,0,0.5,0,0.9c0.2,0,0.3-0.1,0.3-0.1c3.5-0.6,6.4-0.2,8.4,1c2.1,1.2,3.4,3.4,3.9,6.4
				c0.9,5.5-1.7,11.6-7.6,18c1.9,0.7,3.6,1,5.1,0.7c1.8-0.3,3.5-0.9,4.8-1.7c1-0.6,2.4-1.7,4.2-3.2l1.4-1.2l0.5,3.3l-0.4,0.4
				c-3.6,3.1-6.9,4.8-9.8,5.3c-2.2,0.3-5.3,0.2-9.3-0.6c-2.6,1.6-5.2,2.6-7.7,3.1c-0.6,3.1-1.1,6.8-1.5,11l0,0.4L433.8,85.5z
				 M437.1,68.9l0,0.2c-1.1,6.7-1.5,10.4-1.5,12.5l1.9-1.5c0.5-4.4,1-8.2,1.6-11.5l0.1-0.7l0.1,0l1.3-6.9c1.7-9.4,3-16.3,4-20.5
				l0.1-0.7l0.1,0l0.1-0.4c0.1-0.3,0.1-0.6,0.2-0.8c-0.9,0.4-1.7,0.7-2.4,1.1l-0.7,2.9l-0.1,0.1l-3.3,17.7l0,0L437.1,68.9z
				 M436,63.2c-1.5,0.9-1.4,1.9-1.3,2.3c0.1,0.5,0.3,1,0.7,1.3L436,63.2z M442.1,63.6l-0.6,3.1c1.1-0.5,2.3-1,3.5-1.7
				C444.2,64.6,443.3,64.1,442.1,63.6z M433.5,62.8c-0.2,0.1-0.4,0.3-0.5,0.4c-0.3,0.3-0.7,0.9-0.5,2c0,0.2,0.1,0.5,0.3,0.9
				c0-0.1,0-0.1,0-0.2C432.6,64.9,432.7,63.8,433.5,62.8z M448.3,64.4l0.4,0.1c0.4,0.1,0.8,0.1,1.2,0.2l-0.8-0.4l-0.5-0.2
				c-0.7-0.2-1.3-0.4-2-0.6c0.4,0.2,0.7,0.5,1.1,0.7l0.5,0.3L448.3,64.4z M450.2,39.9c0.7,0.3,1.3,0.6,1.9,1.1
				c1.6,1.3,2.6,3.3,3,5.7c0.7,5.1-0.8,10.3-4.5,15.5c5.5-6,8-11.5,7.2-16.4c-0.4-2.4-1.3-4-2.9-5C453.7,40.2,452.1,39.9,450.2,39.9
				z M442.7,60.4c1.9,0.5,3.7,1,5.6,1.6c3.9-5.1,5.5-10.1,4.8-14.9c-0.3-2-1.1-3.5-2.3-4.5c-1.2-1-2.6-1.3-4.5-1
				C445.5,45.7,444.3,52,442.7,60.4z M430.6,58.5L430.6,58.5L430.6,58.5z"/>
		</g>
		<g>
			<path class="st0" d="M493,32.3c0,0,0,0.1,0,0.2c-0.9,3.7-1.9,8.2-3,13.3c-1.5,7.2-2.2,11.3-2,12.3c0.2,1.5,1.4,2,3.6,1.7
				c3.3-0.5,6.9-2.5,11-6.1l0.1,0.8c-2.6,2-4.3,3.1-5,3.6c-2.1,1.3-4,2.1-5.6,2.4c-1.5,0.2-3,0.1-4.4-0.3c-1.7-0.5-2.7-1.4-3.2-2.7
				c-3.2,3.4-6.7,5.4-10.4,6c-4.2,0.7-6.6-1-7.3-5.1c-0.8-4.8,0.4-9.9,3.4-15.2c3.2-5.6,7.2-8.8,11.9-9.5c1.7-0.3,3.8,0.2,6.5,1.4
				c2.5-2,3.9-3,4.1-3C492.8,31.9,493,32,493,32.3z M487.5,36.2l-1.9-1.2c-1.9-0.5-3.3-0.7-4.3-0.5c-3,0.5-5.7,4-7.9,10.5
				c-2,6-2.7,10.7-2.2,14c0.4,2.7,2,3.8,4.7,3.4c2.4-0.4,5.2-2.4,8.3-6.1c-0.2-1.9,0.2-5.2,1.2-9.6c0.5-2.5,1.3-5.7,2.3-9.7
				L487.5,36.2z"/>
			<path class="st0" d="M472.4,64.6c-1.6,0-2.9-0.4-3.9-1.1c-1.4-1-2.4-2.7-2.7-5c-0.8-5,0.4-10.4,3.6-15.9c3.4-5.9,7.6-9.2,12.6-10
				c1.8-0.3,3.9,0.1,6.5,1.2c3.5-2.8,3.7-2.8,4.1-2.9c0.5-0.1,0.8,0.1,1,0.2c0.2,0.1,0.5,0.4,0.5,0.9c0,0.3,0,0.5-0.1,0.7
				c-0.9,3.6-1.9,8.1-2.9,13.2c-2,9.6-2.1,11.6-2,12c0.1,0.5,0.3,0.7,0.5,0.8c0.3,0.1,0.8,0.3,1.9,0.1c3.1-0.5,6.6-2.4,10.5-5.8
				l1.4-1.2l0.5,3.2l-0.5,0.4c-2.7,2-4.3,3.2-5,3.6c-2.2,1.4-4.2,2.3-6,2.5c-1.7,0.3-3.3,0.2-4.9-0.3c-1.4-0.4-2.4-1.1-3.2-2
				c-3.1,3-6.5,4.7-10.1,5.3C473.5,64.6,472.9,64.6,472.4,64.6z M475.3,38.1c-1.5,1.4-3,3.3-4.3,5.5c-2.9,5.1-4,10-3.3,14.6
				c0.3,1.8,0.9,3,1.9,3.7c0.7,0.5,1.5,0.7,2.5,0.7c0,0,0,0,0,0c-1-0.7-1.6-1.9-1.9-3.5c-0.6-3.6,0.2-8.3,2.2-14.5
				C473.3,42,474.3,39.8,475.3,38.1z M482.1,35.3c-0.2,0-0.5,0-0.7,0c-2.6,0.4-5,3.7-7.1,9.9c-1.9,5.8-2.6,10.4-2.1,13.6
				c0.2,1.1,0.5,1.8,1.1,2.2c0.6,0.4,1.4,0.5,2.5,0.3c2.1-0.3,4.6-2.2,7.5-5.5c-0.1-2.1,0.3-5.2,1.3-9.5c0.5-2.4,1.3-5.6,2.2-9.5
				l0-0.1l-1.5-1C483.9,35.5,482.9,35.3,482.1,35.3z M485.2,56.6l0.2,0.5c0.3,0.8,0.9,1.4,1.8,1.8c-0.1-0.2-0.2-0.5-0.2-0.7
				c-0.1-0.8,0-3,2-12.7c0.9-4.4,1.8-8.3,2.6-11.7c-0.6,0.4-1.4,1-2.5,1.9l-0.5,0.4l-0.1-0.1l0.3,0.7l-0.1,0.3c-1,4-1.8,7.2-2.3,9.7
				c-1,4.4-1.4,7.5-1.2,9.3l0,0.4L485.2,56.6z"/>
		</g>
		<g>
			<path class="st0" d="M526.8,26.4c0.1,0,0.2,0.1,0.3,0.2c-0.1,0.3-0.4,1.5-0.9,3.8c-0.3,1.2-1,4.7-2.1,10.6l-2.8,15.2
				c1.4-0.8,4.2-2.2,8.5-4.4c0.9-0.6,3.1-2,6.6-4.2l0.2,1c-1.8,1.2-4.4,2.8-7.6,4.6l-7.8,4.3c-0.8,2.7-2.1,5.4-3.9,8
				c-2.3,3.3-4.4,5.2-6.5,5.5c-1.9,0.3-3-0.3-3.2-1.8c-0.4-2.5,2.6-5.9,9-10.3l1.3-6.1c-3,3-6.1,4.8-9.3,5.3c-1.9,0.3-3.6,0-5.1-1
				s-2.3-2.4-2.6-4.3c-0.7-4.5,0.4-9.4,3.4-14.9c3.1-5.8,6.8-9,11.2-9.7c2.2-0.4,4.6,0,7,1.2c1-0.8,2.4-1.8,4.1-3L526.8,26.4z
				 M522.1,31.1c-1.6-1.9-3.7-2.6-6.3-2.2c-3.4,0.5-6.1,4-8.3,10.4c-1.9,5.6-2.5,10.4-1.9,14.2c0.4,2.8,2,4,4.7,3.6
				c2.7-0.4,5.3-2.4,7.8-5.8L522.1,31.1L522.1,31.1z M510.5,70.6c2.7-0.4,4.6-3.8,5.8-10.1c-5.7,3.6-8.3,6.5-8,8.5
				C508.4,70.3,509.2,70.8,510.5,70.6z"/>
			<path class="st0" d="M509.8,72.2c-2.6,0-3.2-1.8-3.3-2.7c-0.5-2.9,2.4-6.4,9.1-11l0.6-2.7c-2.4,1.9-4.9,3.1-7.5,3.5
				c-2.2,0.3-4.1-0.1-5.8-1.2c-1.7-1.1-2.7-2.8-3.1-5c-0.7-4.7,0.5-9.9,3.5-15.5c3.3-6,7.3-9.5,11.9-10.2c2.3-0.4,4.6,0,7,1
				c1-0.8,2.2-1.7,3.7-2.7l0.2-0.1l0.4-0.1c0.6-0.1,1.3,0.3,1.4,1.1l0,0.2l0,0.2c-0.1,0.3-0.4,1.5-0.9,3.8c-0.3,1.2-1,4.7-2.1,10.6
				l-2.4,13.2c1.6-0.8,3.8-2,6.6-3.5c0.8-0.5,3-1.9,6.5-4.2l1.2-0.8l0.7,3l-0.6,0.4c-1.8,1.3-4.4,2.8-7.7,4.6l-7.5,4.1
				c-0.9,2.7-2.2,5.3-3.9,7.9c-2.4,3.6-4.8,5.5-7.2,5.9C510.5,72.2,510.2,72.2,509.8,72.2z M514.8,62.7c-5.2,3.7-5.6,5.5-5.5,6.2
				c0.1,0.5,0.2,0.8,1.1,0.7C512.2,69.3,513.7,66.9,514.8,62.7z M517.6,59l-0.3,1.7c-0.4,1.9-0.8,3.6-1.3,5c0.1-0.2,0.3-0.4,0.4-0.6
				c1.6-2.4,2.8-4.8,3.6-7.2l3.1-16.9c1.1-6,1.8-9.5,2.1-10.7c0.2-0.7,0.3-1.3,0.4-1.9c-1,0.7-1.8,1.3-2.5,1.9l-0.3,0.2l1.1,1.3
				l-1.2,0.2l-3.6,18.1l0.3-0.3L517.6,59z M509.4,32.6c-1.5,1.5-2.9,3.4-4.2,5.8c-2.9,5.2-4,10-3.3,14.2c0.3,1.6,1,2.8,2.2,3.7
				c0.7,0.5,1.5,0.8,2.3,0.9c-0.9-0.8-1.6-2-1.8-3.6c-0.6-4,0-8.9,2-14.7C507.4,36.4,508.4,34.3,509.4,32.6z M517.2,29.8
				c-0.4,0-0.8,0-1.2,0.1c-3,0.5-5.5,3.7-7.5,9.7c-1.8,5.4-2.5,10.1-1.9,13.7c0.4,2.3,1.4,3.1,3.5,2.8c2.4-0.4,4.7-2.1,7-5.3
				l3.8-19.5C519.9,30.3,518.6,29.8,517.2,29.8z"/>
		</g>
		<g>
			<path class="st0" d="M542.8,24.4c0.1-0.1,0.3-0.1,0.6-0.2c0.2,0,0.3,0.1,0.3,0.4c0.3,2.1-0.4,6.3-2.3,12.5s-2.6,10.4-2.3,12.7
				c0.3,1.8,1.5,2.6,3.7,2.2c2.3-0.4,5.5-2.5,9.6-6.4l0.1,0.9c-3.3,3.7-6.6,5.9-9.8,6.4c-1.8,0.3-3.4,0-4.7-0.7s-2.2-2-2.5-3.7
				c-0.3-2.2-0.1-5.6,0.8-10.1c0.4-1.7,1.1-5.2,2.1-10.4C540.4,26.7,541.9,25.5,542.8,24.4L542.8,24.4z M544.9,15
				c0.1,0.8,0,1.4-0.5,2.1c-0.4,0.6-1,1-1.8,1.1c-1.9,0.3-3-0.5-3.2-2.3c-0.3-1.8,0.5-2.9,2.4-3.2c0.7-0.1,1.4,0.1,2,0.5
				C544.4,13.7,544.8,14.3,544.9,15z"/>
			<path class="st0" d="M541.4,53.9c-1.4,0-2.7-0.3-3.8-0.9c-1.6-0.9-2.6-2.4-3-4.4c-0.4-2.3-0.1-5.8,0.8-10.5l2.2-10.9L538,27
				c0.6-0.4,1.2-0.8,1.7-1.1l-0.9,0.1l3.4-2.4c0.2-0.2,0.5-0.3,1-0.3c0.2,0,0.3,0,0.4,0l1.6-0.2l-0.8,0.9c0.1,0.2,0.1,0.3,0.2,0.6
				c0.4,2.3-0.4,6.5-2.3,12.9c-1.8,6-2.6,10.1-2.2,12.2c0.1,0.9,0.5,1.2,0.7,1.2c0.4,0.2,1,0.3,1.9,0.2c2.1-0.3,5.2-2.4,9-6.1
				l1.4-1.3l0.5,3.3l-0.3,0.4c-3.5,3.9-7,6.2-10.4,6.7C542.4,53.9,541.9,53.9,541.4,53.9z M539.4,28.5l-2,10
				c-0.8,4.4-1.1,7.7-0.8,9.8c0.2,1.4,0.9,2.4,1.9,3c0,0,0.1,0.1,0.1,0.1c-0.2-0.4-0.4-0.9-0.5-1.5c-0.4-2.4,0.4-6.7,2.3-13.1
				c1.8-5.9,2.3-9.1,2.3-10.9C541.9,26.7,540.8,27.6,539.4,28.5z M541.9,19.2c-0.8,0-1.5-0.2-2.1-0.6c-0.8-0.5-1.2-1.4-1.4-2.6
				c-0.4-2.4,0.8-3.9,3.2-4.3c1-0.2,2,0.1,2.8,0.7c0.8,0.6,1.3,1.4,1.5,2.5v0c0.2,1-0.1,1.9-0.6,2.8c-0.6,0.8-1.4,1.4-2.4,1.5
				C542.5,19.2,542.2,19.2,541.9,19.2z M542.2,13.7c-0.1,0-0.2,0-0.3,0c-1.3,0.2-1.7,0.8-1.5,2c0.1,0.6,0.3,1.1,0.6,1.3
				c0.3,0.2,0.8,0.3,1.5,0.2c0.5-0.1,0.8-0.3,1.1-0.7c0.3-0.4,0.4-0.8,0.3-1.3l0,0c-0.1-0.5-0.3-0.9-0.7-1.2
				C542.9,13.8,542.6,13.7,542.2,13.7z"/>
		</g>
		<g>
			<path class="st0" d="M560.1,50.1c-5.5,0.9-8.6-0.9-9.3-5.4c-0.7-4.3,0.5-9.1,3.5-14.5c3.1-5.6,6.8-8.8,11-9.4
				c1.1-0.2,2.1,0.1,3,0.8c0.9,0.7,1.4,1.6,1.6,2.7c0.3,2-0.2,4.4-1.7,7.3c-1.5,3.1-3.2,4.8-5,5.1l-0.2,0l-0.5-0.1l-0.5-0.5
				l-0.1-0.5c0.1-1.6,1.5-3.6,4-6c2.3-2.2,3.4-4.3,3.1-6.2c-0.1-0.7-0.5-1.2-1.3-1.6c-0.7-0.3-1.5-0.5-2.2-0.3
				c-3.5,0.5-6.2,3.7-8.2,9.4c-1.7,5-2.3,9.4-1.7,13.3c0.6,3.7,2.7,5.3,6.3,4.8c2.3-0.4,4.9-1.4,7.7-3.1c2.5-1.5,4.8-3.2,6.7-5.1
				l0.2,1.1c-3.2,2.2-5.8,3.9-7.7,5C565.8,48.6,562.9,49.6,560.1,50.1z"/>
			<path class="st0" d="M557.6,51.3c-5.6,0-7.3-3.4-7.8-6.4c-0.7-4.5,0.5-9.6,3.6-15.1c3.3-5.9,7.2-9.2,11.7-9.9
				c1.4-0.2,2.7,0.1,3.8,1c1.1,0.8,1.7,2,2,3.3c0.3,2.2-0.2,4.8-1.7,7.9c-1.6,3.5-3.5,5.3-5.8,5.7l-0.4,0.1l-1-0.3l-0.9-0.9
				l-0.3-0.9l0-0.2c0.2-1.9,1.6-4.1,4.3-6.7c2.1-1.9,3-3.7,2.8-5.3c0-0.3-0.2-0.6-0.7-0.8c-0.5-0.3-1.1-0.3-1.6-0.3
				c-3.1,0.5-5.5,3.4-7.4,8.8c-1.7,4.8-2.2,9.1-1.6,12.8c0.3,1.6,0.8,2.7,1.6,3.4c0.8,0.6,2,0.8,3.5,0.6c2.2-0.3,4.6-1.3,7.4-3
				c2.5-1.5,4.7-3.1,6.5-4.9l1.4-1.4l0.6,3.7l-0.5,0.4c-3.2,2.2-5.9,3.9-7.8,5c-3,1.7-6,2.8-8.9,3.3h0
				C559.3,51.2,558.4,51.3,557.6,51.3z M558,26.5c-1,1.2-2,2.6-2.9,4.3c-2.9,5.1-4,9.7-3.4,13.8c0.3,2.1,1.3,4.6,5.5,4.7
				c-0.1-0.1-0.2-0.2-0.3-0.2c-1.3-1-2.1-2.5-2.4-4.6c-0.6-4-0.1-8.7,1.7-13.8C556.8,29.1,557.4,27.7,558,26.5z M562.9,35.7
				L562.9,35.7L562.9,35.7c1.6-0.2,3-1.8,4.4-4.5c0.6-1.1,1-2.2,1.2-3.2c-0.5,0.8-1.2,1.6-2.1,2.3c-2.8,2.6-3.5,4.3-3.7,5.2l0,0
				L562.9,35.7z"/>
		</g>
		<g>
			<path class="st0" d="M622.7,35.8c-3.2,3.1-6.3,5-9.3,5.4c-2.1,0.3-3.9,0-5.4-0.9c-1.5-0.9-2.4-2.5-2.7-4.6c-0.3-1.8,0-4.5,0.8-8
				c0.3-1.4,1-4.1,2-8.1c0.5-2,0.7-3.5,0.5-4.5c0,0-0.1-0.1-0.2-0.2l-0.3,0c-0.2,0.1-0.6,0.4-1.2,0.8c-1.8,1.2-4.2,4.9-7,11.1
				c-2.5,5.3-4.2,9.6-5.2,12.8c-1,3.2-1.8,4.9-2.5,5c-0.7,0.1-1.4-0.3-2.1-1.2c-0.5-0.8-0.8-1.6-1-2.4c-0.3-2.1,0.1-5.9,1.2-11.3
				l2.4-11.8l0.1,0l0-0.1l-0.1-0.1l-0.2-0.1l-0.1,0c-2.1,0.3-4.7,4-8,11.1c-2.4,5.1-4.2,9.9-5.5,14.3c-0.9,2.8-1.7,4.3-2.6,4.4
				c-1,0.2-1.8-1.4-2.4-4.7c-0.5-2.7-0.4-6.1,0.4-10.1c0.2-1.3,1-4.6,2.3-9.9c0.1-0.6,0.2-1,0.3-1.1c0-0.1,0.3-0.3,0.9-0.7
				c1.4-1.1,2.6-1.9,3.6-2.6c0.2,0,0.3,0.1,0.3,0.4c0,0.2,0,0.7-0.2,1.5L576,46.3c0.1,0.1,0.2,0.1,0.4,0.1c0.7-0.9,2-4.5,4-10.7
				c1.2-3.6,2.8-7.3,4.9-11.1c2.8-5.1,5.4-7.8,7.7-8.1c0.8-0.1,1.5,0.2,2.1,1c0.6,0.8,1,1.6,1.1,2.4c0.4,2.3,0,5.4-1,9.3
				c-0.5,1.6-1.3,4.7-2.6,9.3c-0.7,2.7-1,4.5-0.9,5.3c0,0.1,0.1,0.1,0.2,0.1l0.5-0.1c0-0.1,0.6-2.1,2-5.8
				c5.6-15.5,10.3-23.6,14.2-24.2c0.9-0.1,1.6,0.1,2.3,0.9c0.6,0.7,1,1.5,1.1,2.5c0.3,2.2-0.1,5.8-1.4,10.7c-1.3,5-1.8,8.5-1.4,10.6
				c0.3,1.6,1.6,2.3,4,1.9c2.4-0.4,5.5-2.2,9.2-5.6L622.7,35.8L622.7,35.8z"/>
			<path class="st0" d="M576.2,48.4c-2,0-2.8-3-3.2-5.6c-0.5-2.8-0.4-6.3,0.4-10.4c0.2-1.3,1-4.6,2.3-9.9c0.2-1,0.3-1.2,0.4-1.4
				c0.1-0.1,0.2-0.2,1.1-0.9c1.4-1.1,2.6-2,3.7-2.6l0.3-0.2l0.3,0c0.7,0.1,1.1,0.5,1.2,1.2c0,0.3,0,0.7-0.2,1.8l-3.5,16.4
				c0.1-0.4,0.3-0.9,0.5-1.4c1.2-3.7,2.8-7.5,5-11.3c3-5.4,5.7-8.2,8.4-8.6c0.8-0.1,2,0,3.1,1.4c0.7,0.9,1.2,1.9,1.3,2.9
				c0.4,2.5,0.1,5.7-1,9.7c-0.2,0.8-0.6,2-1,3.5c6.6-17.1,10.7-19.7,13.2-20.1c1.2-0.2,2.3,0.2,3.2,1.2c0.7,0.9,1.2,1.9,1.4,3
				c0.4,2.4-0.1,6-1.4,11.1c-1.2,4.8-1.7,8.2-1.4,10.2c0.1,0.6,0.4,0.8,0.6,1c0.3,0.2,1,0.3,2.2,0.1c2.2-0.4,5.2-2.1,8.7-5.3
				l1.4-1.2l0.4,2.8l-0.7,0.1c0,0,0,0,0,0l0.6,0.5l-1.5,2l-0.1-0.6c-2.8,2.5-5.7,3.9-8.4,4.4c-2.3,0.4-4.4,0-6.1-1.1
				c-1.7-1.1-2.8-2.9-3.1-5.3c-0.3-2,0-4.7,0.8-8.4c0.3-1.4,1-4.1,2-8.1c0.3-1.2,0.5-2.2,0.5-2.9l-0.1,0.1
				c-1.2,0.8-3.3,3.2-6.7,10.7c-2.4,5.3-4.2,9.5-5.1,12.7c-1.3,4.5-2.3,5.5-3.3,5.7c-0.8,0.1-2-0.1-3-1.6c-0.6-0.9-1-1.9-1.1-2.9
				c-0.4-2.2,0-6.1,1.2-11.7l2.1-10.4c-1.2,1-3.2,3.5-6.2,9.9c-2.3,5.1-4.2,9.8-5.5,14.2c-1,3.3-2.1,4.9-3.4,5.1
				C576.5,48.4,576.3,48.4,576.2,48.4z M577.8,22.2c0,0.2-0.1,0.4-0.2,0.7c-1.3,5.3-2,8.6-2.3,9.8c-0.7,3.9-0.8,7.1-0.4,9.7
				c0.1,0.8,0.3,1.5,0.4,2l5.1-24.3c-0.7,0.5-1.4,1-2.2,1.6C578.1,21.9,577.9,22.1,577.8,22.2z M593.7,18.8l-2.3,11.2
				c-1.1,5.3-1.5,9-1.2,11c0.1,0.6,0.3,1.2,0.6,1.7c0.1-0.9,0.3-2.2,0.9-4.3c1.2-4.5,2.1-7.7,2.6-9.4c1-3.7,1.3-6.7,1-8.9
				c-0.1-0.7-0.4-1.3-0.9-2c-0.2-0.2-0.4-0.4-0.5-0.5l0.2,1.1L593.7,18.8z M609.6,15C609.6,15,609.6,15,609.6,15
				c0.2,1.2,0,2.8-0.5,5c-1,4-1.7,6.7-2,8.1c-0.8,3.4-1.1,5.9-0.8,7.6c0.3,1.8,1,3,2.2,3.8c-0.1-0.2-0.1-0.4-0.2-0.7
				c-0.4-2.3,0.1-5.9,1.4-11c1.2-4.8,1.7-8.3,1.4-10.3c-0.1-0.8-0.4-1.4-0.9-2C610.1,15.2,609.9,15,609.6,15z"/>
		</g>
		<g>
			<path class="st0" d="M643.6,29.9c0.6,3.8,2.1,5.6,4.6,5.2c4.1-0.6,6.9-4.9,8.4-12.8c-3.2-3.3-5.1-6.9-5.7-10.6
				c-0.7-4.7,0.1-7.2,2.6-7.6c1.8-0.3,3.3,0.5,4.5,2.4c0.9,1.4,1.5,3.1,1.9,5.2c0.5,2.9,0.2,6.5-0.8,10.9c2,1.2,4.1,1.7,6.3,1.3
				c1.6-0.3,3.1-0.9,4.6-2l0.1,0.9c-1.3,1-2.9,1.7-4.8,2c-2.1,0.3-4.2,0-6.4-1c-3,7.7-6.7,11.9-11.1,12.6c-2.3,0.4-4.3,0-5.8-1.1
				c-1.5-1.1-2.5-2.8-2.8-5.2c-0.4-2.7-0.2-5.5,0.6-8.5c-0.8,0-1.7,0.1-2.8,0.3c-1,0.2-1.8,0.3-2.2,0.4c-0.6,0.1-1.2,0.2-1.6,0.4
				c-0.5,0.2-0.9,0.5-1.3,1.1c-0.4,0.6-0.8,1.4-1.1,2.6c-0.3,1.1-0.7,2.7-1.1,4.7c-0.2,1.2-0.4,2.4-0.6,3.5c-0.2,1.1-0.4,2-0.7,2.8
				c-0.3,0.8-0.7,1.4-1.2,1.9c-0.5,0.5-1.1,0.7-2,0.7c-0.9-0.3-1.5-0.9-2-1.8c-0.5-0.8-0.8-1.8-0.9-2.8c-0.2-1.1-0.2-2.6,0-4.3
				c0.2-1.7,0.5-3.8,1-6.1c0.3-0.9,0.6-2.2,1-3.9c0.4-1.8,0.9-4,1.5-6.7c1.1-0.6,2-1.3,2.8-1.8c0.8-0.6,1.5-1.2,2.1-1.8l-0.1,0
				c0-0.1,0.3-0.1,0.7-0.2c0.2,0,0.3,0.1,0.3,0.4c0.3,2.2-0.6,6.4-2.7,12.7c-2.2,6.4-3.1,10.7-2.7,13l0.2,1.4l0.6-0.2l0.2-0.4
				c0.2-0.6,0.5-1.6,0.7-3c0.2-1.4,0.5-2.9,0.8-4.5c0.3-1.6,0.6-3.1,1-4.5c0.4-1.4,0.9-2.4,1.5-3.1c0.4-0.3,1.1-0.6,2.1-0.8
				c1-0.2,1.9-0.4,2.7-0.5c0.4-0.1,1-0.1,1.7-0.2c0.7-0.1,1.5-0.2,2.3-0.4c0.1-0.2,0.1-0.4,0.3-0.7c1.2-3.4,3-6.4,5.3-9
				c1.7-1.9,3-2.9,3.8-3.1c0.2,0,0.4,0,0.4,0.2c0,0.1-0.3,0.6-0.8,1.5C644.4,16.2,642.6,23,643.6,29.9L643.6,29.9z M653.2,5.6
				l-0.4,0c-1,0.5-1.3,2-0.9,4.8c0.6,3.6,2.2,7.1,4.9,10.3c0.1-2.6,0-5.3-0.5-8.1C655.7,8.7,654.6,6.4,653.2,5.6z"/>
			<path class="st0" d="M625.1,41C625.1,41,625,41,625.1,41l-0.2,0l-0.2-0.1c-1.1-0.4-1.9-1.2-2.5-2.2c-0.5-0.9-0.9-2-1.1-3.1
				c-0.2-1.2-0.2-2.7,0-4.5c0.2-1.8,0.5-3.8,1-6.2c0.3-0.9,0.6-2.2,1-3.9c0.4-1.8,0.9-4,1.5-6.7l0.1-0.4l0.4-0.2
				c1-0.6,2-1.2,2.7-1.8c0.6-0.5,1.2-0.9,1.7-1.4l0.1-0.2c0.3-0.4,0.7-0.5,1.3-0.6c0.2,0,0.3,0,0.4,0l1.7-0.3l-0.8,0.9
				c0.1,0.2,0.1,0.3,0.2,0.5c0.3,2-0.3,5.6-2,10.8c0.6-0.5,1.4-0.8,2.6-1.1c1-0.2,2-0.4,2.8-0.5c0.4-0.1,1-0.1,1.8-0.2
				c0.5,0,1.1-0.1,1.6-0.3c0-0.1,0.1-0.1,0.1-0.2c1.2-3.5,3.1-6.6,5.5-9.3c1.9-2.2,3.3-3.2,4.4-3.4c0.2,0,0.4,0,0.6,0
				c0.1-0.3,0.1-0.5,0.2-0.8c0.6-1.6,1.7-2.6,3.3-2.9c1.5-0.2,3.7,0.1,5.5,2.8c1,1.5,1.6,3.4,2,5.5c0.5,2.9,0.3,6.4-0.7,10.5
				c1.6,0.8,3.2,1.1,5,0.8c1.4-0.2,2.8-0.8,4.1-1.8l1.5-1.1l0.3,3.3l-0.4,0.3c-1.5,1.1-3.2,1.9-5.3,2.2c-1.9,0.3-3.9,0.1-6-0.7
				c-3.1,7.4-7,11.5-11.5,12.2c-2.6,0.4-4.8,0-6.5-1.3c-1.7-1.3-2.8-3.2-3.2-5.8c-0.4-2.4-0.3-4.9,0.3-7.5c-0.4,0.1-0.8,0.1-1.3,0.2
				c-1,0.2-1.8,0.3-2.2,0.4c-0.5,0.1-1,0.2-1.4,0.4c-0.3,0.1-0.6,0.4-0.9,0.8c-0.3,0.5-0.7,1.2-1,2.3c-0.3,1.1-0.7,2.6-1,4.6
				c-0.2,1.2-0.5,2.4-0.6,3.5c-0.2,1.2-0.5,2.2-0.8,3c-0.4,0.9-0.8,1.7-1.4,2.3C627.1,40.7,626.2,41,625.1,41z M626.5,15
				c-0.6,2.5-1.1,4.6-1.4,6.3c-0.4,1.8-0.7,3.1-1,4c-0.5,2.2-0.8,4.2-1,5.9c-0.2,1.6-0.2,3,0,4c0.1,0.9,0.4,1.7,0.8,2.5
				c0.3,0.6,0.8,1,1.3,1.3c0.1,0,0.1,0,0.2,0l-0.3-2.2c-0.4-2.4,0.5-6.8,2.8-13.4c2.1-6.2,2.7-9.5,2.7-11.3c-0.5,0.4-1,0.8-1.5,1.2
				C628.3,13.9,627.4,14.5,626.5,15z M640.9,20.9l-0.2,0.9c-0.8,2.8-1,5.5-0.6,8c0.3,2.1,1.1,3.6,2.4,4.5c0.8,0.5,1.6,0.9,2.6,1
				c-0.2-0.2-0.4-0.4-0.6-0.6c-0.9-1-1.5-2.6-1.9-4.7l-0.1-0.4l0.1-0.1c-0.9-6.3,0.5-12.6,4.3-18.8c-0.2,0.2-0.4,0.4-0.6,0.6
				c-2.2,2.5-3.9,5.4-5.1,8.6c-0.1,0.3-0.2,0.5-0.2,0.7L640.9,20.9z M644.7,30.2c0.3,1.5,0.7,2.6,1.3,3.3c0.5,0.6,1.2,0.8,2.1,0.7
				c3.5-0.6,6-4.4,7.4-11.5c-3.1-3.4-5-7-5.6-10.7c-0.1-0.6-0.2-1.2-0.2-1.8c-4.4,6.4-6.1,13-5,19.6L644.7,30.2L644.7,30.2z
				 M657.5,23.1c-0.2,1.1-0.5,2.1-0.7,3c0.4-0.9,0.8-1.8,1.2-2.7l0.1-0.3l-0.1-0.1l0.2-0.7c1-4.2,1.3-7.7,0.8-10.5
				c-0.3-1.9-0.9-3.5-1.8-4.8c-1.1-1.7-2.2-2-3-2c1.5,1.1,2.5,3.6,3.1,7.4c0.5,2.9,0.6,5.6,0.5,8.3l-0.1,2.6L657.5,23.1z M653,6.7
				c-0.3,0.4-0.4,1.5-0.1,3.5c0.4,2.5,1.4,5,2.9,7.4c-0.1-1.6-0.2-3.2-0.5-4.8C654.7,8.8,653.7,7.3,653,6.7z M631.3,11.6
				C631.3,11.6,631.3,11.6,631.3,11.6C631.3,11.6,631.3,11.6,631.3,11.6z"/>
		</g>
		<g>
			<path class="st0" d="M673,30l0-0.1c0,0-0.1,0-0.1-0.1l0-0.2c0-0.1,0.1-0.1,0-0.2l0.2-0.3c2.7-1.8,4.4-2.7,5-2.8
				c0.5-0.1,1,0.1,1.4,0.6c0.4,0.5,0.7,1,0.8,1.6c0.3,1.8-0.5,4.2-2.3,7.3c-1.8,3.1-3.5,5.1-5.2,6c-0.3-0.1-0.4-0.2-0.4-0.4l0-0.2
				c2.8-3.8,4.1-6.7,3.7-8.8C676,30.8,674.9,29.9,673,30z"/>
			<path class="st0" d="M673.1,42.9l-0.4-0.1c-0.6-0.2-1.1-0.6-1.2-1.2l0-0.2l0.1-0.6l0.1-0.2c3.3-4.4,3.7-6.8,3.5-8
				c-0.1-0.9-0.5-1.6-2.2-1.6l-0.9,0l-0.1-0.7c-0.1-0.1-0.1-0.2-0.1-0.4l-0.1-0.6l0.1-0.1l0-0.1l0.6-0.8l0.2-0.1
				c3.8-2.5,4.9-2.9,5.4-3c0.6-0.1,1.5,0,2.3,0.9c0.6,0.6,0.9,1.3,1,2.1c0.3,2-0.5,4.7-2.4,8c-1.9,3.3-3.7,5.4-5.6,6.4L673.1,42.9z
				 M674.8,29.2c1.3,0.4,2.2,1.5,2.4,3c0.2,1.2,0,2.5-0.6,4.1c0.2-0.3,0.4-0.7,0.6-1c1.7-2.9,2.4-5.2,2.2-6.7
				c-0.1-0.4-0.2-0.7-0.5-1.1c-0.3-0.3-0.5-0.3-0.5-0.3C678.2,27.3,677.5,27.6,674.8,29.2z"/>
		</g>
	</g>
	<g>
		<g>
			<g>
				<path class="st0" d="M518.6,84.4c4-0.6,7.3,0.9,10.1,4.5c2.2,3,3.7,6.6,4.4,10.9c0.8,5,0.2,10.3-1.6,16.1
					c-1.8,5.6-4.4,10.3-7.8,14.3c-3.9,4.5-8.3,7.1-13.1,7.9c-4.8,0.8-8.7-0.6-11.9-4.1c-2.7-2.9-4.4-6.9-5.2-11.9
					c-1.2-7.7,1-15.5,6.6-23.3c4.3-5.9,6.9-8.9,8.1-9.1c0.1,0,0.1,0.1,0.1,0.3c-0.2,0.5-1.2,1.9-3,4.4c-2.7,3.7-4.7,8.8-6,15.1
					c-1.2,6-1.4,11.5-0.7,16.4c1.4,8.9,5.3,12.8,11.7,11.8c4.9-0.8,8.9-4.1,12.1-10c2.4-4.3,4.1-9.5,5.2-15.7
					c1.1-6.4,1.3-12.1,0.5-17.2c-1.1-7.2-4.5-10.4-10-9.5c-6.2,1-10.5,7.8-12.7,20.4c-0.1,0.2-0.1,0.3-0.2,0.3
					c-0.1,0-0.3-0.1-0.5-0.4c0.2-5.3,1.2-9.8,3.2-13.4C510.3,87.8,513.8,85.2,518.6,84.4L518.6,84.4z"/>
				<path class="st0" d="M508,139.3c-4,0-7.4-1.6-10.2-4.6c-2.8-3.1-4.6-7.3-5.4-12.4c-1.3-8,1-16,6.7-24c5.8-8.1,7.6-9.4,8.7-9.5
					l0.2,0l0.2,0.1c0.2,0.1,0.4,0.2,0.5,0.3c2.4-3.1,5.6-4.9,9.5-5.5l0.1,0c4.4-0.7,8.1,0.9,11,4.8c2.3,3.1,3.9,6.9,4.6,11.4
					c0.8,5.1,0.2,10.7-1.7,16.6c-1.8,5.7-4.5,10.6-8,14.6c-4,4.7-8.6,7.4-13.7,8.2C509.7,139.2,508.8,139.3,508,139.3z M505.3,95.8
					c-2.3,3.5-4.1,8.2-5.2,13.8c-1.2,5.9-1.4,11.3-0.7,16c1.3,8.3,4.8,11.9,10.6,10.9c4.5-0.7,8.4-3.9,11.4-9.5
					c2.3-4.1,4-9.3,5.1-15.3c1.1-6.3,1.3-11.9,0.5-16.8c-1.4-8.8-5.7-9.2-8.9-8.7c-5.7,0.9-9.7,7.5-11.9,19.6l0,0.1
					c-0.1,0.2-0.3,0.9-1,1c-0.4,0.1-0.9,0-1.5-0.8l-0.2-0.3l0-0.3C503.8,102,504.3,98.7,505.3,95.8z M501.8,97.9
					c-0.3,0.4-0.7,0.9-1,1.4c-5.4,7.5-7.6,15.1-6.4,22.5c0.8,4.8,2.4,8.6,4.9,11.4c0.3,0.3,0.5,0.6,0.8,0.8c-1.2-2-2.1-4.8-2.7-8.1
					c-0.8-5-0.6-10.6,0.7-16.7C499,104.9,500.2,101.1,501.8,97.9z M527,88.4c0.9,1.5,1.6,3.6,2,6.3c0.8,5.1,0.6,11-0.5,17.5
					c-1.1,6.3-2.9,11.6-5.3,16c-0.6,1.1-1.2,2.1-1.9,3c0.5-0.5,1-1,1.5-1.6c3.4-3.8,5.9-8.5,7.6-13.9c1.8-5.6,2.4-10.9,1.6-15.6
					c-0.6-4.1-2.1-7.6-4.2-10.5C527.6,89.1,527.3,88.8,527,88.4z"/>
			</g>
			<g>
				<path class="st0" d="M565,100.5c0.1,0,0.2,0.1,0.3,0.2c-0.1,0.3-0.4,1.5-0.9,3.8c-0.3,1.2-1,4.7-2.1,10.6l-2.8,15.2
					c1.4-0.8,4.2-2.2,8.5-4.4c0.9-0.6,3.1-2,6.6-4.2l0.2,1c-1.8,1.2-4.4,2.8-7.6,4.6l-7.8,4.3c-0.8,2.7-2.1,5.4-3.9,8
					c-2.3,3.3-4.4,5.2-6.5,5.5c-1.9,0.3-3-0.3-3.2-1.8c-0.4-2.5,2.6-5.9,9-10.3l1.3-6.1c-3,3-6.1,4.8-9.3,5.3c-1.9,0.3-3.6,0-5.1-1
					c-1.4-1-2.3-2.4-2.6-4.3c-0.7-4.5,0.4-9.4,3.4-14.9c3.1-5.8,6.8-9,11.2-9.7c2.2-0.4,4.6,0,7,1.2c1-0.8,2.4-1.8,4.1-3L565,100.5z
					 M560.2,105.2c-1.6-1.9-3.7-2.6-6.3-2.2c-3.4,0.5-6.1,4-8.3,10.4c-1.9,5.6-2.5,10.4-1.9,14.2c0.4,2.8,2,4,4.7,3.6
					c2.7-0.4,5.3-2.4,7.8-5.8L560.2,105.2L560.2,105.2z M548.7,144.7c2.7-0.4,4.6-3.8,5.8-10.1c-5.7,3.6-8.3,6.5-8,8.5
					C546.6,144.4,547.4,144.9,548.7,144.7z"/>
				<path class="st0" d="M548,146.3c-0.7,0-1.3-0.1-1.8-0.4c-0.6-0.3-1.3-1-1.5-2.3c-0.5-2.9,2.4-6.4,9.1-11l0.6-2.7
					c-2.4,1.9-4.9,3.1-7.5,3.5c-2.2,0.3-4.1,0-5.8-1.2c-1.7-1.1-2.7-2.8-3.1-5c-0.7-4.7,0.5-9.9,3.5-15.5c3.3-6,7.3-9.5,11.9-10.2
					c2.3-0.4,4.6,0,7,1c1-0.8,2.2-1.7,3.7-2.7l0.2-0.1l0.4-0.1c0.3,0,0.6,0,0.9,0.2c0.2,0.1,0.4,0.4,0.5,0.9l0,0.2l0,0.2
					c-0.1,0.3-0.4,1.5-0.9,3.8c-0.3,1.2-1,4.7-2.1,10.6l-2.4,13.2c1.6-0.8,3.8-2,6.6-3.5c0.8-0.5,3-1.9,6.5-4.2l1.2-0.8l0.7,3
					l-0.6,0.4c-1.8,1.3-4.4,2.8-7.7,4.6l-7.5,4.1c-0.9,2.7-2.2,5.3-3.9,7.9c-2.4,3.6-4.8,5.5-7.2,5.9
					C548.7,146.3,548.3,146.3,548,146.3z M552.9,136.8c-5.2,3.7-5.6,5.5-5.5,6.2c0,0.2,0.1,0.5,0.3,0.6c0.2,0.1,0.5,0.1,0.8,0.1v0
					C550.4,143.4,551.9,141,552.9,136.8z M555.7,133.1l-0.3,1.7c-0.4,1.9-0.8,3.6-1.3,5c0.1-0.2,0.3-0.4,0.4-0.6
					c1.6-2.4,2.8-4.8,3.6-7.2l3.1-16.9c1.1-5.9,1.8-9.5,2.1-10.7c0.2-0.7,0.3-1.3,0.4-1.9c-1,0.7-1.8,1.3-2.5,1.9l-0.3,0.2l1.1,1.3
					l-1.2,0.2l-3.6,18.1l0.3-0.3L555.7,133.1z M547.6,106.7c-1.5,1.5-2.9,3.4-4.2,5.8c-2.9,5.2-4,10-3.3,14.2c0.3,1.6,1,2.8,2.2,3.7
					c0.7,0.5,1.5,0.8,2.3,0.9c-0.9-0.8-1.6-2-1.8-3.6c-0.6-4,0-8.9,2-14.7C545.6,110.5,546.6,108.4,547.6,106.7z M555.3,103.9
					c-0.4,0-0.8,0-1.2,0.1c-3,0.5-5.5,3.7-7.5,9.7c-1.8,5.4-2.5,10.1-1.9,13.7c0.4,2.3,1.4,3.1,3.5,2.8c2.4-0.4,4.7-2.1,7-5.3
					l3.8-19.5C558.1,104.4,556.8,103.9,555.3,103.9z"/>
			</g>
			<g>
				<path class="st0" d="M592.4,96.1c0.4-0.2,0.8-0.2,1.3-0.1s0.8,0.3,1.2,0.6c0.4,0.2,0.7,0.5,1,0.9c0.3,0.3,0.4,0.6,0.4,0.8
					c0.1,0.5,0.1,1.1,0.1,1.7s-0.2,1.3-0.3,2.1c-0.2,0.8-0.4,1.7-0.7,2.8c-0.3,1.1-0.7,2.4-1.2,4c-1.8,6.2-2.6,10.5-2.3,12.7
					c0.3,1.8,1.5,2.6,3.7,2.2c2.3-0.4,5.5-2.5,9.6-6.4l0.1,0.9c-3.3,3.7-6.6,5.9-9.8,6.4c-1.8,0.3-3.4,0-4.7-0.7
					c-1.4-0.7-2.2-2-2.5-3.7c-0.2-1.3-0.2-3,0-5.2c-0.2,0.1-0.4,0.2-0.6,0.2c-0.2,0.1-0.4,0.2-0.6,0.2c-1.8,0.2-3.2,0.9-4.1,2.2
					c-0.9,1.3-1.7,2.7-2.2,4.5c-0.5,1.7-1,3.6-1.5,5.6c-0.5,2-1.1,3.7-2,5.3c-0.9,1.6-2.2,2.8-3.8,3.8c-1.6,0.9-3.8,1.2-6.7,0.9
					c-1.3-0.1-2.4-0.4-3.5-0.9c-1.1-0.5-2.2-1.6-3.3-3.3l0.6-0.6c0.7,1.1,1.5,1.9,2.4,2.4c0.9,0.5,1.8,0.8,2.6,0.9
					c0.8,0.1,1.6,0.1,2.3,0c0.7-0.1,1.2-0.3,1.5-0.5c0.4-0.2,0.8-0.6,1.3-1.1s0.9-1.1,1.3-1.7c0.4-0.6,0.8-1.3,1.1-1.9
					c0.4-0.7,0.7-1.3,0.9-1.8l2.8-5.7c0.3-0.6,0.6-1.3,1.1-2.1c0.4-0.8,0.9-1.6,1.5-2.3c0.6-0.7,1.3-1.4,2.1-2
					c0.8-0.6,1.7-1,2.7-1.3c-0.9,0.1-1.9,0.1-3-0.1c-1-0.2-2-0.5-2.9-1.1s-1.6-1.2-2.2-2.1c-0.6-0.9-1-1.9-1.1-3.1
					c-0.3-2.6,0.2-4.7,1.3-6.3c1.2-1.6,2.6-2.9,4.5-3.9c1.8-1,3.8-1.6,5.8-1.9c2.1-0.3,3.9-0.4,5.4-0.2L592.4,96.1z M579.5,108.1
					c0.1,2,0.5,3.4,1.2,4.4s1.4,1.7,2.3,2c0.9,0.4,1.8,0.5,2.8,0.4c1-0.1,1.8-0.3,2.6-0.6c0.1-0.7,0.2-1.4,0.3-2.1
					c0.1-0.7,0.2-1.4,0.4-2.2c0.1-0.4,0.2-0.9,0.4-1.4c0.2-0.5,0.3-1.1,0.5-1.7c0.2-0.7,0.4-1.5,0.6-2.4c0.2-0.9,0.5-2.1,0.7-3.4
					l0.6-3c-1.3-0.5-2.7-0.6-4.2-0.3s-2.9,0.8-4.2,1.7s-2.3,2.1-3.1,3.5C579.7,104.6,579.3,106.2,579.5,108.1z"/>
				<path class="st0" d="M568.9,138.8c-0.7,0-1.4,0-2.2-0.1c-1.4-0.1-2.6-0.5-3.8-1c-1.2-0.6-2.5-1.7-3.7-3.6l-0.5-0.7l2.1-2l0.7,1
					c0.6,1,1.3,1.7,2,2.1c0.8,0.4,1.6,0.7,2.3,0.8c0.7,0.1,1.4,0.1,1.9,0c0.8-0.1,1-0.3,1.1-0.3c0.3-0.1,0.6-0.4,1.1-0.9
					c0.4-0.5,0.8-1,1.2-1.6c0.4-0.6,0.8-1.2,1.1-1.8c0.3-0.6,0.6-1.2,0.9-1.8l2.9-5.8c0.3-0.6,0.6-1.3,1.1-2.2
					c0.4-0.9,1-1.7,1.6-2.5c0.6-0.7,1.2-1.4,2-1.9c-1-0.2-1.9-0.6-2.7-1.1c-1-0.6-1.8-1.4-2.5-2.3c-0.7-1-1.1-2.2-1.2-3.6
					c-0.3-2.8,0.2-5.1,1.5-6.9c1.2-1.8,2.9-3.2,4.8-4.2c1.9-1,4-1.7,6.1-2c1.8-0.3,3.3-0.3,4.7-0.2l0.2-0.8l0.5-0.2
					c0.6-0.2,1.3-0.3,1.9-0.1c0.5,0.1,1,0.4,1.5,0.7c0.5,0.3,0.9,0.7,1.2,1.1c0.4,0.5,0.6,0.9,0.7,1.2c0.1,0.6,0.1,1.2,0.1,1.9
					c-0.1,0.6-0.2,1.4-0.3,2.2c-0.2,0.8-0.4,1.8-0.7,2.9c-0.3,1.1-0.7,2.5-1.2,4c-2.2,7.6-2.4,10.8-2.2,12.2
					c0.1,0.9,0.5,1.2,0.7,1.2c0.4,0.2,1,0.3,1.9,0.2c1.4-0.2,4.2-1.5,9-6.1l1.4-1.3l0.5,3.3l-0.3,0.4c-3.5,3.9-7,6.2-10.4,6.7
					c-2,0.3-3.8,0-5.4-0.8c-1.6-0.9-2.6-2.4-3-4.4c-0.2-1.1-0.2-2.3-0.1-3.9l-0.1,0c-1.5,0.2-2.6,0.7-3.4,1.8
					c-0.9,1.2-1.6,2.6-2.1,4.2c-0.5,1.7-1,3.6-1.5,5.5c-0.5,2.1-1.2,3.9-2.1,5.6c-1,1.7-2.4,3.1-4.1,4.1
					C572.6,138.5,570.9,138.8,568.9,138.8z M581.1,118.8c-0.3,0.3-0.6,0.6-0.9,1c-0.6,0.7-1,1.4-1.4,2.2c-0.4,0.8-0.8,1.5-1,2.1
					l-2.9,5.7c-0.2,0.5-0.6,1.2-0.9,1.9c-0.4,0.7-0.8,1.3-1.2,2c-0.4,0.7-0.9,1.3-1.4,1.8c-0.5,0.6-1,1-1.6,1.3
					c-0.1,0-0.2,0.1-0.2,0.1c1.4-0.1,2.5-0.4,3.4-0.9c1.4-0.8,2.6-2,3.4-3.4c0.9-1.5,1.5-3.2,1.9-5.1c0.5-2,1-3.9,1.5-5.6
					C580.2,120.8,580.6,119.7,581.1,118.8z M589.5,113.5l-0.2,1.6c-0.2,2.1-0.2,3.7-0.1,4.9c0.2,1.4,0.9,2.4,1.9,3
					c0,0,0.1,0.1,0.1,0.1c-0.2-0.4-0.4-0.9-0.5-1.5c-0.4-2.4,0.4-6.7,2.3-13.1c0.5-1.6,0.9-2.9,1.2-4c0.3-1.1,0.5-2,0.7-2.8
					c0.2-0.7,0.3-1.4,0.3-2c0-0.5,0-1,0-1.4c0,0,0,0,0,0c0,0-0.1-0.1-0.2-0.3c-0.2-0.2-0.5-0.5-0.8-0.6c-0.3-0.2-0.7-0.4-1-0.5
					c0,0-0.1,0-0.1,0l-0.3,1.4l-0.6,3c-0.3,1.3-0.5,2.4-0.7,3.4c-0.2,1-0.4,1.8-0.6,2.5c-0.2,0.7-0.4,1.3-0.5,1.8
					c-0.1,0.4-0.3,0.8-0.3,1.2c-0.2,0.8-0.3,1.5-0.4,2.2C589.6,112.8,589.6,113.2,589.5,113.5L589.5,113.5z M581.5,100.1
					C581.4,100.1,581.4,100.1,581.5,100.1c-1.8,0.9-3.1,2.1-4.2,3.6c-1,1.4-1.4,3.3-1.2,5.6c0.1,1,0.4,1.9,0.9,2.6
					c0.5,0.7,1.2,1.3,1.9,1.8c0.7,0.4,1.5,0.7,2.3,0.9c-0.5-0.4-1-1-1.4-1.6c-0.8-1.2-1.2-2.8-1.3-4.9c-0.2-2,0.2-3.9,1.1-5.5
					C580.1,101.7,580.8,100.8,581.5,100.1z M589.3,98.7c-0.4,0-0.9,0-1.4,0.1c-1.3,0.2-2.6,0.8-3.8,1.6c-1.1,0.8-2.1,1.9-2.8,3.2
					c-0.7,1.3-1,2.7-0.9,4.4l0,0c0.1,1.8,0.4,3.1,1,3.9c0.5,0.8,1.2,1.4,1.9,1.7c0.8,0.3,1.5,0.4,2.3,0.3c0.6-0.1,1.3-0.2,1.8-0.3
					c0.1-0.5,0.1-1,0.2-1.4c0.1-0.7,0.2-1.5,0.4-2.3c0.1-0.5,0.2-1,0.4-1.5c0.2-0.5,0.3-1,0.5-1.7c0.2-0.7,0.4-1.5,0.6-2.4
					c0.2-0.9,0.5-2.1,0.7-3.3l0.4-2.1C590.3,98.8,589.8,98.7,589.3,98.7z"/>
			</g>
			<g>
				<path class="st0" d="M614.1,115.1c-0.1,3.8,1,5.5,3.3,5.2c2.9-0.5,6.4-2.8,10.3-7.1l0.1,1.2c-3.9,4.1-7.3,6.6-10.3,7.5
					c-2.4,0.5-4.6,0.1-6.6-1.2c-0.7-0.4-1.2-1-1.5-1.6c-0.3-0.7-0.5-1.4-0.5-2.2c0-0.8,0-1.7,0.2-2.6s0.5-1.8,0.8-2.6
					c2.7-4.6,4.5-8.2,5.5-10.7c1-2.6,1.5-4.4,1.4-5.6c0-1.2-0.4-1.8-1.1-1.9s-1.4,0-2,0.3c-5.7,4.5-9.1,10-10.2,16.4
					c-0.2,0.8-0.3,1.2-0.5,1.2c-0.1,0-0.2-0.1-0.3-0.2c0-0.6,0.2-1.9,0.7-4.1c1.4-5.8,4.9-10.6,10.6-14.4c1-0.4,1.9-0.6,2.7-0.6
					c0.8,0,1.5,0.3,2,0.7c0.6,0.4,1,0.9,1.4,1.6c0.4,0.7,0.6,1.4,0.8,2.1c0.1,1.4-0.1,2.7-0.4,3.9s-0.9,2.4-1.5,3.7
					c-0.6,1.3-1.3,2.6-2.1,4c-0.8,1.4-1.6,3.1-2.4,5.1L614.1,115.1z"/>
				<path class="st0" d="M615.6,123.1c-1.9,0-3.6-0.5-5.2-1.5c-0.9-0.5-1.5-1.2-1.9-2.1c-0.3-0.8-0.5-1.7-0.6-2.6
					c0-0.9,0.1-1.8,0.3-2.8c0.2-0.9,0.5-1.9,0.9-2.8l0.1-0.1c2.6-4.5,4.5-8.1,5.4-10.6c1.2-3,1.4-4.5,1.4-5.2c0-0.8-0.2-1-0.2-1
					c-0.5-0.1-0.9,0-1.4,0.2c-5.4,4.3-8.7,9.6-9.7,15.7c-0.1,0.7-0.4,1.9-1.4,2.1c-0.6,0.1-1.3-0.2-1.4-1.1c0-0.6,0-1.5,0.7-4.5
					c1.4-6.1,5.2-11.1,11-15l0.1-0.1c1.1-0.5,2.2-0.7,3.1-0.7c1,0.1,1.8,0.3,2.6,0.8c0.7,0.5,1.3,1.1,1.7,1.9
					c0.4,0.7,0.7,1.5,0.9,2.4l0,0.2c0.1,1.5-0.1,3-0.5,4.3c-0.4,1.2-0.9,2.5-1.5,3.8c-0.6,1.3-1.4,2.7-2.2,4.1
					c-0.8,1.4-1.5,3-2.3,4.9l-0.5,1.9c0,2.6,0.5,3.5,0.9,3.8c0.2,0.2,0.5,0.4,1.2,0.2c2.7-0.4,6-2.7,9.8-6.8l1.5-1.6l0.4,3.9
					l-0.3,0.3c-4,4.2-7.6,6.8-10.8,7.8l-0.1,0C617,123,616.3,123.1,615.6,123.1z M610.8,112.1c-0.3,0.8-0.6,1.6-0.7,2.4
					c-0.2,0.8-0.3,1.6-0.2,2.3c0,0.7,0.2,1.3,0.4,1.9c0.2,0.5,0.6,0.9,1.1,1.2c1.3,0.8,2.7,1.2,4.2,1.2c0,0,0,0,0,0
					c-0.4-0.1-0.7-0.4-0.9-0.6c-1.1-1-1.6-2.8-1.6-5.5l0-0.2l0.6-2.2c0.8-2,1.6-3.7,2.5-5.2c0.8-1.4,1.5-2.8,2.1-4
					c0.6-1.2,1.1-2.4,1.4-3.5c0.3-1,0.5-2.2,0.4-3.5c-0.1-0.6-0.4-1.2-0.7-1.8c-0.3-0.5-0.7-0.9-1.1-1.2c-0.3-0.2-0.8-0.4-1.2-0.4
					c0.4,0.4,0.8,1.1,0.8,2.3c0,1.3-0.4,3.3-1.5,6C615.4,103.8,613.5,107.5,610.8,112.1z"/>
			</g>
			<g>
				<path class="st0" d="M651.4,87.4c0.1-0.1,0.3-0.1,0.6-0.2c0.2,0,0.3,0.1,0.3,0.4c0.3,2.1-0.4,6.3-2.3,12.5
					c-1.9,6.2-2.6,10.4-2.3,12.7c0.3,1.8,1.5,2.6,3.7,2.2c2.3-0.4,5.5-2.5,9.6-6.4l0.1,0.9c-3.3,3.7-6.6,5.9-9.8,6.4
					c-1.8,0.3-3.4,0-4.7-0.7c-1.4-0.7-2.2-2-2.5-3.7c-0.3-2.2-0.1-5.6,0.8-10.1l0.1-0.4c-0.8,0-1.7,0.1-2.8,0.3s-1.8,0.3-2.2,0.4
					c-0.6,0.1-1.2,0.2-1.6,0.4c-0.5,0.2-0.9,0.5-1.3,1.1c-0.4,0.6-0.8,1.4-1.1,2.6c-0.4,1.1-0.7,2.7-1.1,4.7
					c-0.2,1.2-0.5,2.4-0.6,3.5c-0.2,1.1-0.4,2-0.7,2.8c-0.3,0.8-0.7,1.4-1.2,1.9s-1.1,0.7-2,0.7c-0.9-0.3-1.5-0.9-2-1.8
					c-0.5-0.8-0.8-1.8-0.9-2.8c-0.2-1.1-0.2-2.6,0-4.3c0.2-1.7,0.5-3.8,1-6.1c0.2-0.9,0.6-2.2,1-3.9c0.4-1.8,0.9-4,1.5-6.7
					c1.1-0.6,2-1.3,2.8-1.8c0.8-0.6,1.5-1.2,2.1-1.8l-0.1,0c0-0.1,0.3-0.1,0.7-0.2c0.2,0,0.3,0.1,0.3,0.4c0.3,2.2-0.6,6.4-2.7,12.7
					c-2.2,6.4-3.1,10.7-2.7,13l0.2,1.4l0.6-0.2l0.2-0.4c0.2-0.6,0.5-1.6,0.7-3c0.2-1.4,0.5-2.9,0.8-4.5c0.3-1.6,0.6-3.1,1-4.5
					c0.4-1.4,0.9-2.4,1.5-3.1c0.4-0.3,1.1-0.6,2.1-0.8c1-0.2,1.9-0.4,2.7-0.5c0.4-0.1,1-0.1,1.7-0.2c0.7-0.1,1.5-0.2,2.3-0.4
					l1.8-8.9C649.1,89.7,650.5,88.5,651.4,87.4L651.4,87.4z"/>
				<path class="st0" d="M630.4,120.3C630.4,120.3,630.4,120.3,630.4,120.3l-0.2,0l-0.2-0.1c-1.1-0.4-1.9-1.2-2.5-2.2
					c-0.5-0.9-0.9-2-1.1-3.1c-0.2-1.2-0.2-2.7,0-4.5c0.2-1.8,0.5-3.9,1-6.2c0.3-0.9,0.6-2.2,1-3.9c0.4-1.8,0.9-4,1.5-6.7l0.1-0.4
					l0.4-0.2c1-0.6,1.9-1.2,2.7-1.8c0.6-0.5,1.2-0.9,1.7-1.4l0.1-0.2c0.3-0.4,0.7-0.5,1.3-0.6c0.1,0,0.3,0,0.4,0l1.8-0.3l-0.9,1
					c0.1,0.2,0.1,0.3,0.2,0.5c0.3,2-0.3,5.6-1.9,10.8c0.6-0.5,1.4-0.8,2.6-1.1c1-0.2,2-0.4,2.8-0.5c0.4-0.1,1-0.1,1.8-0.2
					c0.5,0,1-0.1,1.5-0.2l1.7-8.7l0.4-0.2c0.6-0.4,1.2-0.7,1.7-1.1l-0.9,0.1l3.4-2.5c0.2-0.2,0.5-0.3,1-0.3c0.1,0,0.3,0,0.4,0
					l1.7-0.3l-0.8,0.9c0.1,0.2,0.1,0.3,0.2,0.6c0.4,2.3-0.4,6.5-2.3,12.9c-1.8,6-2.6,10.1-2.2,12.2c0.1,0.8,0.5,1.7,2.5,1.4
					c2.1-0.3,5.2-2.4,9-6.1l1.4-1.3l0.5,3.3l-0.3,0.4c-3.5,3.9-7,6.2-10.4,6.7c-2,0.3-3.8,0-5.4-0.8c-1.6-0.9-2.6-2.4-3-4.4
					c-0.3-2.2-0.1-5.4,0.6-9.6c-0.4,0.1-0.9,0.1-1.4,0.2c-1.1,0.2-1.8,0.3-2.2,0.4c-0.5,0.1-1,0.2-1.5,0.4c-0.3,0.1-0.6,0.4-0.9,0.8
					c-0.4,0.5-0.7,1.2-1,2.3c-0.3,1.1-0.7,2.6-1,4.6c-0.2,1.2-0.5,2.4-0.6,3.5c-0.2,1.1-0.5,2.2-0.8,3c-0.4,0.9-0.8,1.7-1.4,2.3
					C632.4,119.9,631.5,120.3,630.4,120.3z M631.8,94.3c-0.6,2.5-1.1,4.6-1.4,6.3c-0.4,1.8-0.7,3.1-1,4c-0.5,2.2-0.8,4.2-1,5.9
					c-0.2,1.6-0.2,3,0,4c0.1,0.9,0.4,1.7,0.8,2.5c0.3,0.6,0.8,1,1.3,1.3c0.1,0,0.1,0,0.2,0l-0.3-2.2c-0.4-2.4,0.5-6.8,2.8-13.4
					c2.1-6.2,2.7-9.5,2.7-11.3c-0.5,0.4-1,0.8-1.5,1.2C633.6,93.2,632.8,93.8,631.8,94.3z M646.2,100.5l-0.2,0.9
					c-0.8,4.4-1.1,7.7-0.8,9.8c0.2,1.4,0.9,2.4,1.9,3c0.1,0,0.1,0.1,0.2,0.1c-0.2-0.4-0.4-0.9-0.5-1.5c-0.4-2.4,0.4-6.7,2.3-13.1
					c1.8-5.9,2.3-9.1,2.3-10.9c-0.9,0.9-2,1.8-3.4,2.6L646.2,100.5z"/>
			</g>
			<g>
				<path class="st0" d="M662.5,107.2c0.6,3.9,2.7,5.6,6.3,5.1c2.2-0.3,4.5-1.2,6.8-2.7c2.2-1.4,4-3,5.3-4.9l0.2,1.1
					c-4,4.2-8.2,6.6-12.4,7.3c-3.1,0.5-5.4,0.4-7-0.4c-2-0.9-3.2-2.9-3.7-5.8c-1.2-7.2,0.7-13.4,5.8-18.8c1.9-2.1,3.5-3.2,4.6-3.4
					c1.1-0.2,2.1,0.1,2.9,0.9c0.8,0.8,1.3,1.7,1.5,2.9c0.7,4.5-2.7,10.4-10.4,17.5L662.5,107.2z M670.7,86c-0.3-0.2-0.6-0.3-1-0.3
					c-2.8,0.4-4.9,3.1-6.4,8.1c-1.1,3.8-1.6,7.5-1.3,11.1c2.3-2.1,4.3-4.9,6.3-8.3c2.2-4,3.1-7.2,2.7-9.7
					C671,86.7,670.9,86.4,670.7,86z"/>
				<path class="st0" d="M665.3,114.3c-1.7,0-3.1-0.3-4.2-0.8c-2.3-1.1-3.7-3.3-4.2-6.6c-1.2-7.4,0.8-14.1,6-19.7
					c2.1-2.3,3.8-3.5,5.2-3.7c1.4-0.2,2.7,0.2,3.7,1.1c0.9,0.9,1.5,2.1,1.8,3.5c0.8,4.9-2.6,10.8-10.3,18l0.1,0.9
					c0.5,3.4,2.1,4.7,5.1,4.2c2.1-0.3,4.2-1.1,6.4-2.6c2.1-1.3,3.8-2.9,5.1-4.7l1.4-1.9l0.6,4l-0.3,0.4c-4.2,4.3-8.5,6.9-13,7.6
					C667.5,114.2,666.4,114.3,665.3,114.3z M664.5,88.6C664.4,88.6,664.4,88.6,664.5,88.6c-4.9,5.2-6.7,11.1-5.5,18
					c0.4,2.6,1.4,4.3,3.1,5.1c0.5,0.2,1.1,0.4,1.9,0.5c-1.1-0.9-2-2.4-2.4-4.8l-0.1-0.5l-0.2,0.2l-0.2-2.1
					c-0.3-3.7,0.2-7.5,1.3-11.4C663,91.6,663.6,89.9,664.5,88.6z M669.8,86.7c-2.3,0.4-4.1,2.9-5.5,7.4c-0.8,2.9-1.3,5.7-1.3,8.4
					c1.6-1.8,3.1-3.9,4.5-6.4c2.1-3.8,3-6.8,2.6-9.1l0,0c0,0,0-0.1-0.1-0.3C669.9,86.7,669.8,86.7,669.8,86.7z"/>
			</g>
			<g>
				<path class="st0" d="M700.6,83.7c0.2-1.3,0.1-2-0.1-2.1c-0.3-0.1-0.7,0-1.5,0.3c-0.1,0.1-0.3,0.2-0.5,0.3
					c-0.2,0.1-0.5,0.3-0.7,0.5c-1.8,1.8-3.2,4-4.3,6.5c-1.1,2.5-2.1,5.2-3.1,8l-2.7,9.9c-0.3,1.2-1.1,2.1-2.2,2.7
					c-1.1,0.6-2.3,0.8-3.5,0.7c-1.2-0.1-2.2-0.5-3.1-1.3c-0.9-0.7-1.2-1.8-1.1-3.3c0.2-0.9,0.6-1.7,1.2-2.4c0.6-0.7,1.3-1,2-1
					c0.7,0,1.4,0.5,2,1.4c0.6,0.9,1,2.6,1.1,4.9c0.7,0.3,1.2,0.1,1.6-0.4s0.7-1.1,0.9-1.7l2.4-7.9c0.7-2.2,1.4-4.4,2.2-6.5
					s1.7-4.1,2.8-5.8s2.3-3.2,3.7-4.4s3-1.9,4.9-2.2c0.4-0.1,0.8,0,1.2,0.4s0.6,0.6,0.6,0.8c0.1,0.5,0.2,1.1,0.3,1.7
					c0,0.6,0,1.4-0.1,2.3c-0.1,1-0.3,2.1-0.6,3.5c-0.3,1.4-0.7,3.1-1.3,5.2c-2,7.4-2.9,11.5-2.7,12.3c0,0.2,0.1,0.3,0.3,0.2l0.3-0.2
					c0.6-1,1.1-2.1,1.5-3.6c0.1-0.3,0.2-0.8,0.4-1.5c0.2-0.6,0.4-1.4,0.7-2.3c0.5-1.5,1.2-3.2,2.1-5.2c0.9-1.9,2-4.1,3.3-6.5
					c3.1-5.7,5.6-8.7,7.4-9c0.7-0.1,1.4,0.2,2.2,0.8c0.8,0.7,1.2,1.4,1.3,2.2c0.3,2-0.2,5.5-1.5,10.5c-0.7,2.5-1.2,4.6-1.5,6.4
					c-0.3,1.8-0.4,3.2-0.3,4.2c0.2,1.5,1.4,2,3.6,1.7c1.7-0.3,3.4-1,4.9-2.1c0.3-0.2,0.9-0.7,1.5-1.3c0.7-0.6,1.5-1.4,2.4-2.3
					l0.2,0.9c-2.8,3.2-5.8,5.1-9.1,5.6c-1.8,0.3-3.4,0-4.8-0.9c-1.4-0.9-2.2-2.3-2.5-4.2c-0.3-1.7,0.3-5.2,1.7-10.5s2-8.6,1.8-10.1
					c0,0-0.1-0.1-0.2,0c-0.7,0.1-1.9,1.4-3.7,3.7c-3.6,4.9-6.6,11-8.9,18.4c-0.1,0.4-0.3,1-0.5,1.7s-0.4,1.6-0.8,2.8
					c-0.2,0.8-0.6,1.4-1.2,1.7c-1.3,0.2-2.1-1-2.5-3.6c-0.2-1.5-0.3-3.1-0.1-4.7c0.2-1.6,0.4-3.2,0.7-4.9c0.3-1.7,0.6-3.3,1-5.1
					C700.2,87.5,700.4,85.6,700.6,83.7z"/>
				<path class="st0" d="M682.6,111.4c-0.2,0-0.4,0-0.6,0c-1.4-0.1-2.6-0.6-3.6-1.5c-1.2-1-1.6-2.4-1.4-4.1l0-0.1
					c0.2-1.1,0.7-2,1.5-2.8c0.8-0.9,1.8-1.3,2.7-1.3c0,0,0,0,0,0c1.1,0,2,0.6,2.8,1.9c0.6,0.9,1,2.3,1.2,4.3
					c0.3-0.4,0.5-0.8,0.6-1.2l2.4-7.9c0.7-2.2,1.4-4.4,2.2-6.6c0.8-2.2,1.8-4.2,2.9-6c1.1-1.8,2.4-3.4,3.9-4.6
					c1.5-1.3,3.3-2.1,5.4-2.4c0.4-0.1,1.3-0.1,2.1,0.6c0.6,0.6,0.9,1,0.9,1.4c0.1,0.5,0.2,1.1,0.3,1.7c0,0.7,0,1.5-0.1,2.5
					c-0.1,1-0.3,2.2-0.7,3.6c-0.3,1.4-0.7,3.2-1.3,5.2c-0.2,0.7-0.4,1.4-0.5,2c0.4-0.9,0.8-1.8,1.2-2.8c0.9-1.9,2-4.2,3.3-6.6
					c4.4-8.1,6.8-9.3,8.2-9.5c1-0.2,2,0.2,3,1.1c0.9,0.8,1.5,1.8,1.6,2.8c0.3,2.2-0.2,5.8-1.5,10.9c-0.7,2.5-1.2,4.6-1.5,6.3
					c-0.3,1.6-0.4,2.9-0.3,3.8c0.1,0.5,0.3,0.7,0.5,0.8c0.3,0.1,0.9,0.3,2,0.1c1.6-0.2,3.1-0.9,4.4-1.9c0.2-0.2,0.7-0.5,1.5-1.2
					c0.7-0.6,1.5-1.3,2.4-2.3l1.3-1.3l0.8,3.2l-0.3,0.4c-2.9,3.4-6.2,5.4-9.7,6c-2.1,0.3-3.9,0-5.5-1c-1.6-1-2.6-2.7-2.9-4.9
					c-0.3-1.9,0.3-5.5,1.8-10.9c1.1-4.1,1.6-6.6,1.7-8c-0.5,0.5-1.1,1.3-2.1,2.5c-3.6,4.8-6.5,10.9-8.8,18.1
					c-0.1,0.4-0.3,0.9-0.4,1.6c-0.2,0.7-0.5,1.7-0.8,2.8c-0.3,1-0.8,1.8-1.7,2.3l-0.2,0.1l-0.2,0c-1,0.2-1.9-0.3-2.6-1.2
					c-0.5-0.7-0.9-1.8-1.1-3.3c-0.3-1.6-0.3-3.3-0.1-5c0.2-1.6,0.4-3.2,0.7-4.9c0.3-1.6,0.6-3.4,1-5.1c0.3-1.7,0.6-3.5,0.7-5.3
					l0-0.1c0.1-0.4,0.1-0.6,0.1-0.8c-0.1,0-0.1,0.1-0.2,0.1c-0.1,0.1-0.3,0.2-0.5,0.3c-0.2,0.1-0.4,0.2-0.5,0.4
					c-1.6,1.7-3,3.7-4,6.1c-1.1,2.5-2.1,5.1-3,7.9l-2.7,9.8c-0.4,1.5-1.3,2.6-2.7,3.3C684.9,111.2,683.8,111.4,682.6,111.4z
					 M678.9,106.1c-0.1,1.4,0.4,2,0.7,2.3c0.7,0.6,1.6,1,2.5,1c0.4,0,0.8,0,1.1,0l0-0.5c-0.1-2.7-0.6-3.9-0.9-4.4
					c-0.3-0.4-0.7-1-1.2-1c0,0,0,0,0,0c-0.4,0-0.9,0.2-1.3,0.7C679.4,104.8,679.1,105.4,678.9,106.1z M701.6,83.8
					c-0.1,1.9-0.4,3.8-0.7,5.5c-0.4,1.7-0.7,3.4-1,5.1c-0.3,1.6-0.5,3.3-0.7,4.8c-0.2,1.5-0.1,3,0.1,4.4c0,0.1,0,0.1,0,0.2
					c0.3-1.7,1.1-4.8,2.5-10.3c0.5-2,1-3.7,1.3-5.1c0.3-1.4,0.5-2.5,0.6-3.4c0.1-0.9,0.1-1.6,0.1-2.1c0-0.5-0.1-1-0.2-1.4
					c0-0.1-0.1-0.2-0.4-0.4c-0.1-0.1-0.2-0.2-0.3-0.2l-0.1,0c-0.5,0.1-1,0.2-1.4,0.3C701.8,81.9,701.7,82.9,701.6,83.8z M717.2,79.4
					c0.1,1.1-0.1,3.5-1.9,10.2c-1.7,6.4-1.9,9-1.7,10.1c0.2,1.5,0.9,2.7,1.9,3.4c-0.1-0.2-0.1-0.4-0.1-0.5c-0.2-1.2-0.1-2.6,0.3-4.5
					c0.3-1.8,0.9-3.9,1.5-6.5c1.3-4.9,1.8-8.3,1.5-10.1c-0.1-0.6-0.4-1.1-1-1.6C717.5,79.6,717.3,79.5,717.2,79.4z M703.6,81.4
					C703.6,81.4,703.6,81.4,703.6,81.4C703.6,81.4,703.6,81.4,703.6,81.4z"/>
			</g>
			<g>
				<path class="st0" d="M730.4,96.4c0.6,3.8,2.1,5.6,4.6,5.2c4.1-0.6,6.9-4.9,8.4-12.8c-3.2-3.3-5.1-6.9-5.7-10.6
					c-0.7-4.7,0.1-7.2,2.6-7.6c1.8-0.3,3.3,0.5,4.5,2.4c0.9,1.4,1.5,3.1,1.9,5.2c0.5,2.9,0.2,6.5-0.8,10.9c2,1.2,4.1,1.7,6.3,1.3
					c1.6-0.3,3.1-0.9,4.6-2l0.1,0.9c-1.3,1-2.9,1.7-4.8,2c-2.1,0.3-4.2,0-6.4-1c-3,7.7-6.7,11.9-11.1,12.6c-2.3,0.4-4.3,0-5.8-1.1
					c-1.5-1.1-2.5-2.8-2.8-5.2c-0.5-3.2-0.1-6.7,1.2-10.3c1.2-3.4,3-6.4,5.3-9c1.7-1.9,3-2.9,3.8-3.1c0.2,0,0.4,0,0.4,0.2
					c0,0.1-0.3,0.6-0.8,1.5C731.2,82.6,729.4,89.4,730.4,96.4L730.4,96.4z M740,72.1l-0.4,0c-1,0.5-1.3,2-0.9,4.8
					c0.6,3.6,2.2,7.1,4.9,10.3c0.1-2.6,0-5.3-0.5-8.1C742.5,75.2,741.5,72.8,740,72.1z"/>
				<path class="st0" d="M732.8,103.9c-1.8,0-3.4-0.5-4.7-1.4c-1.7-1.3-2.8-3.2-3.2-5.8c-0.5-3.4-0.1-7,1.2-10.8
					c1.2-3.5,3.1-6.6,5.5-9.3c1.9-2.2,3.3-3.2,4.4-3.4c0.2,0,0.4,0,0.6,0c0.1-0.3,0.1-0.5,0.2-0.8c0.6-1.6,1.7-2.6,3.3-2.9
					c1.5-0.2,3.7,0.1,5.5,2.8c1,1.5,1.6,3.4,2,5.5c0.5,2.9,0.3,6.4-0.7,10.5c1.6,0.8,3.2,1.1,5,0.8c1.4-0.2,2.8-0.8,4.1-1.8l1.5-1.1
					l0.3,3.3l-0.4,0.3c-1.5,1.1-3.2,1.9-5.3,2.2c-1.9,0.3-3.9,0.1-6-0.7c-3.1,7.4-7,11.5-11.5,12.2
					C734,103.8,733.4,103.9,732.8,103.9z M733.7,77.3c-0.2,0.2-0.4,0.4-0.6,0.6c-2.2,2.5-3.9,5.4-5.1,8.6c-1.2,3.4-1.6,6.7-1.1,9.8
					c0.3,2.1,1.1,3.6,2.4,4.5c0.7,0.5,1.6,0.9,2.6,1c-1.1-0.8-2-2.4-2.5-5.3l-0.1-0.4l0.1-0.1C728.5,89.7,730,83.4,733.7,77.3z
					 M731.5,96.7c0.8,4.3,2.7,4,3.4,3.9c3.5-0.6,6-4.4,7.4-11.5c-3.1-3.4-5-7-5.6-10.7c-0.1-0.6-0.2-1.2-0.2-1.8
					c-4.4,6.4-6.1,13-5,19.6L731.5,96.7L731.5,96.7z M744.3,89.5c-0.2,1.1-0.5,2.1-0.7,3c0.4-0.9,0.8-1.8,1.2-2.7l0.1-0.3l-0.1-0.1
					l0.2-0.7c1-4.2,1.3-7.7,0.8-10.5c-0.3-1.9-0.9-3.5-1.8-4.8c-1.1-1.6-2.1-2-2.9-2c0,0,0,0-0.1,0c1.5,1.1,2.5,3.6,3.1,7.4
					c0.5,2.9,0.6,5.6,0.5,8.3l-0.1,2.6L744.3,89.5z M739.8,73.2c-0.3,0.4-0.4,1.5-0.1,3.5c0.4,2.5,1.4,5,2.9,7.4
					c-0.1-1.6-0.2-3.2-0.5-4.9C741.5,75.2,740.5,73.7,739.8,73.2z"/>
			</g>
			<g>
				<path class="st0" d="M792.7,90.7c3.3-1.4,6.7-3.1,10.4-5l0.2,1.1c-1,0.6-2.5,1.3-4.4,2.1c-1.9,0.8-3.8,1.7-5.7,2.7
					c0.9,2.7,1.2,5.3,0.9,7.7s-0.9,4.6-2,6.5c-1.1,2-2.6,3.7-4.6,5.1s-4.2,2.6-6.7,3.4c-1.7,0.4-3.3,0.5-4.9,0.4
					c-1.6-0.1-3.1-0.4-4.5-1c-1.4-0.6-2.5-1.4-3.5-2.5c-0.9-1.1-1.5-2.4-1.8-4.1c-0.3-2-0.1-3.8,0.7-5.4c0.8-1.6,2-3,3.5-4.1
					c1.5-1.2,3.3-2.1,5.3-2.8c2-0.7,4-1.2,6-1.6c0.5-0.1,1.4-0.3,2.7-0.6c1.3-0.3,2.5-0.5,3.8-0.7c-0.5-0.7-1.3-1.5-2.2-2.3
					s-1.9-1.7-3.1-2.8c2.1-2.1,3.8-4.3,5.1-6.7c1.3-2.3,1.8-4.8,1.4-7.3c-0.2-1.1-0.5-2-1-2.9c-0.5-0.9-1.1-1.6-1.8-2.2
					c-0.7-0.6-1.5-1-2.3-1.3c-0.9-0.2-1.7-0.3-2.6-0.2c-2.1,0.3-3.7,0.9-4.9,1.7c-1.2,0.8-2,1.7-2.5,2.7c-0.5,1-0.6,2-0.4,3.1
					c0.2,1.1,0.7,2,1.4,2.8c0.8,0.8,1.8,1.4,3.1,1.9c1.3,0.4,2.8,0.5,4.4,0.3c0.2,0,0.3,0,0.2,0c0,0-0.1,0-0.3,0.1s-0.2,0.2-0.3,0.3
					c-0.1,0.1,0,0.3,0.1,0.4c-1.4,0-2.7,0-3.8-0.2s-2-0.5-2.8-0.9c-0.8-0.5-1.4-1.1-1.9-1.9c-0.5-0.8-0.8-1.9-1.1-3.3
					c-0.3-2,0.3-3.8,1.8-5.4c1.5-1.6,4-2.7,7.3-3.2c2.5-0.4,4.5-0.2,6.2,0.6s2.9,1.9,3.9,3.2c0.9,1.3,1.5,2.8,1.7,4.2
					c0.2,1.5,0.1,2.7-0.3,3.6s-0.8,1.8-1.3,2.5c-0.4,0.8-0.9,1.5-1.6,2.3c-0.6,0.8-1.5,1.6-2.4,2.5c-1,0.9-2.3,2-3.8,3.2
					c1.3-0.1,2.4,0,3.3,0.2c0.9,0.2,1.7,0.5,2.3,0.9c0.6,0.4,1.1,0.8,1.5,1.3C792,89.8,792.4,90.3,792.7,90.7z M770,107.7
					c0.2,1,0.6,2,1.2,2.8s1.4,1.5,2.3,2.1c0.9,0.6,2,1,3.1,1.2c1.1,0.2,2.3,0.3,3.5,0.1c1.8-0.3,3.4-0.9,4.9-1.9
					c1.5-1,2.7-2.2,3.7-3.6c1-1.4,1.7-3,2.1-4.7c0.4-1.7,0.5-3.4,0.2-5.2c-0.2-1-0.4-2-0.7-2.8c-0.3-0.9-0.6-1.7-1-2.5
					c-0.2-0.3-0.4-0.5-0.5-0.6c-3.3,0.7-6.2,1.6-8.7,2.7c-2.5,1.1-4.5,2.3-6.1,3.7c-1.6,1.3-2.8,2.8-3.5,4.3
					C770,104.8,769.8,106.3,770,107.7z"/>
				<path class="st0" d="M777.1,115.7c-0.4,0-0.8,0-1.1,0c-1.7-0.1-3.4-0.5-4.8-1.1c-1.5-0.6-2.8-1.6-3.8-2.7
					c-1.1-1.2-1.7-2.8-2-4.6c-0.3-2.2-0.1-4.2,0.8-6c0.9-1.7,2.1-3.2,3.8-4.5c1.6-1.2,3.4-2.2,5.5-2.9c2-0.7,4.1-1.3,6.2-1.6
					c0.5-0.1,1.4-0.3,2.6-0.5c0.7-0.2,1.4-0.3,2.2-0.5c-0.3-0.3-0.6-0.6-0.9-0.9c-0.8-0.7-1.6-1.5-2.6-2.3l-1.3,0.1l0.7-0.6
					l-0.7-0.6l0.8-0.8c2-2,3.7-4.2,5-6.5c1.2-2.1,1.6-4.4,1.3-6.7c-0.1-0.9-0.4-1.8-0.9-2.6c-0.4-0.8-1-1.4-1.6-1.9
					c-0.6-0.5-1.2-0.8-2-1.1c-0.7-0.2-1.4-0.3-2.2-0.1c-1.9,0.3-3.4,0.8-4.5,1.5c-1,0.7-1.8,1.5-2.2,2.3c-0.4,0.8-0.5,1.6-0.3,2.4
					c0.2,0.9,0.5,1.6,1.2,2.3c0.6,0.7,1.5,1.2,2.6,1.6c1.1,0.4,2.5,0.5,4,0.3l0.2,0c0,0,0,0,0,0l1-0.2l0.2,1c0,0.2,0,0.5-0.2,0.8
					l1.1,1.1l-2.2,0.1c-1.5,0-2.8,0-4-0.2c-1.2-0.2-2.3-0.5-3.2-1.1c-0.9-0.5-1.7-1.3-2.2-2.2c-0.6-0.9-0.9-2.1-1.2-3.6
					c-0.4-2.3,0.3-4.4,2.1-6.2c1.7-1.8,4.3-3,7.9-3.6c2.7-0.4,5-0.2,6.8,0.7c1.8,0.9,3.2,2.1,4.2,3.6c1,1.5,1.6,3,1.9,4.7
					c0.2,1.7,0.1,3.1-0.4,4.2c-0.4,1-0.9,1.8-1.3,2.6c-0.4,0.8-1,1.7-1.7,2.5c-0.7,0.8-1.5,1.7-2.5,2.6c-0.5,0.5-1.1,1-1.7,1.5
					c0.3,0,0.5,0.1,0.8,0.1c1,0.2,1.9,0.5,2.6,1c0.7,0.4,1.3,1,1.8,1.5c0.2,0.3,0.4,0.5,0.6,0.8c3-1.3,6.3-2.9,9.6-4.7l1.2-0.6
					l0.7,3.1l-0.6,0.4c-1,0.6-2.6,1.3-4.5,2.2c-1.6,0.7-3.3,1.4-4.9,2.2c0.7,2.6,1,5,0.7,7.3c-0.3,2.5-1,4.9-2.2,6.9
					c-1.2,2.1-2.8,3.9-4.8,5.4c-2,1.5-4.4,2.7-7,3.5C779.8,115.6,778.4,115.7,777.1,115.7z M771,107.6c0.1,0.9,0.5,1.7,1,2.4
					c0.5,0.7,1.2,1.4,2,1.9c0.8,0.5,1.8,0.9,2.8,1.1c1,0.2,2.1,0.2,3.1,0.1c1.6-0.3,3.1-0.8,4.5-1.7c1.4-0.9,2.5-2,3.5-3.3
					c0.9-1.3,1.6-2.8,2-4.3c0.4-1.6,0.5-3.2,0.2-4.8c-0.2-1-0.4-1.9-0.6-2.7c-0.2-0.8-0.5-1.5-0.9-2.3c0,0,0-0.1-0.1-0.1
					c-2.9,0.6-5.6,1.5-7.8,2.5c-2.4,1.1-4.4,2.3-5.9,3.5c-1.5,1.2-2.6,2.6-3.2,3.9C771,105,770.8,106.3,771,107.6L771,107.6z
					 M779.1,94.8c-1,0.3-2,0.6-3,0.9c-1.9,0.7-3.6,1.6-5,2.7c-1.4,1.1-2.5,2.3-3.2,3.8c-0.7,1.4-0.9,3-0.6,4.8
					c0.2,1.4,0.8,2.6,1.6,3.6c0.8,1,1.9,1.7,3.1,2.2c0,0,0,0,0,0c-0.6-0.5-1.1-1-1.5-1.6c-0.7-1-1.2-2.1-1.3-3.2l0,0
					c-0.3-1.6,0-3.3,0.8-5c0.8-1.7,2-3.2,3.7-4.6C775,97,776.9,95.8,779.1,94.8z M789.6,91.5l0.3,0.8c0,0,0,0.1,0.3,0.4l0.1,0.1
					l0.1,0.1c0.4,0.8,0.7,1.7,1,2.6c0.3,0.9,0.5,1.9,0.7,3c0.3,1.9,0.2,3.7-0.3,5.5c-0.1,0.2-0.1,0.5-0.2,0.7
					c0.8-1.7,1.4-3.5,1.6-5.6c0.2-2.3-0.1-4.7-0.9-7.3l-0.4-0.6c-0.3-0.4-0.6-0.9-1-1.3c-0.3-0.4-0.7-0.8-1.3-1.1
					c-0.5-0.3-1.2-0.6-2-0.7c-0.5-0.1-1.2-0.2-1.9-0.2c0.4,0.3,0.7,0.6,1,0.9c1,0.9,1.7,1.7,2.3,2.5l0.2,0.3L789.6,91.5z
					 M784.5,65.5c0.1,0,0.1,0,0.2,0c1,0.3,1.9,0.8,2.7,1.5c0.8,0.7,1.5,1.5,2,2.4c0.6,1,0.9,2.1,1.1,3.2c0.4,2.7-0.1,5.4-1.5,8
					c-0.6,1-1.2,2-1.9,2.9c0.2-0.2,0.4-0.4,0.6-0.5c0.9-0.9,1.7-1.7,2.4-2.4c0.6-0.7,1.1-1.4,1.5-2.1c0.4-0.7,0.8-1.6,1.2-2.5
					c0.3-0.7,0.4-1.8,0.3-3.1c-0.2-1.3-0.7-2.6-1.5-3.8c-0.8-1.2-2-2.2-3.5-2.9C787,65.8,785.8,65.5,784.5,65.5z"/>
			</g>
			<g>
				<path class="st0" d="M838.7,61.8c0.5-0.9,0.6-1.5,0.4-1.9c-0.2-0.3-0.7-0.3-1.5,0c-0.3,0.1-0.6,0.4-1,0.8c-1.9,1.8-3.6,4-5,6.5
					c-1.4,2.5-2.6,5.2-3.6,8.1l-3.2,10.1c-0.4,1.2-1.2,2.1-2.4,2.7s-2.4,0.9-3.7,0.8c-1.3-0.1-2.4-0.5-3.3-1.3
					c-0.9-0.8-1.3-1.9-1.1-3.4c0.2-0.9,0.6-1.7,1.3-2.4c0.7-0.7,1.4-1.1,2.2-1.1c0.7,0,1.4,0.5,2.1,1.4c0.7,1,1,2.6,1.1,5
					c0.7,0.3,1.3,0.1,1.8-0.5c0.5-0.6,0.8-1.1,0.9-1.7l2.6-8c0.7-2.3,1.5-4.5,2.4-6.7c0.9-2.2,2-4.2,3.2-6c1.2-1.8,2.6-3.3,4.2-4.5
					c1.6-1.2,3.3-2,5.3-2.3c0.5-0.2,0.9-0.1,1.2,0.3c0.3,0.4,0.5,0.7,0.6,0.8c0.2,1.1,0.1,2.5-0.2,4.1c-0.3,1.7-0.9,4.1-1.8,7.2
					c-0.9,3.1-1.5,5.7-1.8,7.8c-0.3,2.1-0.4,3.7-0.2,4.8c0.3,1.8,1.5,2.6,3.7,2.2c2.3-0.4,5.5-2.5,9.6-6.4l0.1,0.9
					c-3.3,3.7-6.6,5.9-9.8,6.4c-1.8,0.3-3.3,0-4.6-0.7s-2-2-2.3-3.7c-0.2-1.1-0.3-2.1-0.3-2.9c0-0.8,0.1-1.8,0.3-3.1
					c0.2-1.3,0.5-2.9,1-5S838,65.4,838.7,61.8z"/>
				<path class="st0" d="M819.3,89.9c-0.2,0-0.4,0-0.6,0c-1.5-0.1-2.8-0.6-3.8-1.5c-1.2-1-1.7-2.4-1.5-4.2l0-0.1
					c0.2-1.1,0.8-2.1,1.6-2.9c0.9-0.9,1.9-1.4,2.9-1.4c0,0,0,0,0,0c1.1,0,2.1,0.6,2.9,1.9c0.7,1,1.1,2.5,1.2,4.5c0,0,0,0,0,0
					c0.4-0.5,0.6-0.9,0.7-1.3l2.6-8.1c0.7-2.3,1.5-4.6,2.5-6.8c0.9-2.3,2.1-4.3,3.3-6.2c1.3-1.9,2.8-3.5,4.4-4.8
					c1.7-1.3,3.6-2.2,5.7-2.5c0.8-0.3,1.6,0,2.2,0.6c0.5,0.6,0.8,1,0.8,1.4c0.2,1.2,0.1,2.7-0.2,4.5c-0.3,1.7-0.9,4.2-1.8,7.3
					c-0.9,3.1-1.5,5.6-1.8,7.7c-0.3,2-0.4,3.5-0.2,4.5c0.1,0.9,0.5,1.2,0.7,1.2c0.4,0.2,1,0.3,1.9,0.2c2.1-0.3,5.1-2.4,9-6.1
					l1.4-1.3l0.5,3.3l-0.3,0.4c-3.5,3.9-7,6.2-10.4,6.7c-2,0.3-3.8,0-5.2-0.8c-1.5-0.9-2.5-2.4-2.8-4.4c-0.2-1.2-0.3-2.2-0.3-3
					c0-0.8,0.1-1.9,0.3-3.2c0.2-1.3,0.5-3,1-5.1c0.5-2.1,1.1-4.9,1.8-8.5l0.1-0.3c0.1-0.2,0.2-0.3,0.2-0.5c0,0,0,0,0,0
					c0,0-0.3,0.2-0.8,0.6c-1.8,1.8-3.5,3.9-4.8,6.2c-1.4,2.4-2.5,5.1-3.5,7.9l-3.1,10.1c-0.5,1.5-1.4,2.6-2.9,3.3
					C821.8,89.6,820.6,89.9,819.3,89.9z M815.4,84.4c-0.1,1.5,0.4,2.1,0.8,2.4c0.8,0.6,1.6,1,2.7,1.1c0.4,0,0.9,0,1.3,0l0-0.6
					c-0.1-2.7-0.6-3.9-0.9-4.5c-0.3-0.5-0.8-1-1.3-1c0,0,0,0,0,0c-0.5,0-0.9,0.3-1.5,0.8C815.9,83.1,815.6,83.7,815.4,84.4z
					 M839.7,62.1c-0.7,3.5-1.3,6.3-1.8,8.4c-0.5,2-0.8,3.7-1,4.9c-0.2,1.2-0.3,2.2-0.3,2.9c0,0.7,0.1,1.7,0.3,2.7
					c0.2,1.4,0.8,2.4,1.7,3c-0.2-0.4-0.3-0.8-0.4-1.3c-0.2-1.2-0.1-2.9,0.2-5.1c0.3-2.1,0.9-4.8,1.9-7.9c0.9-3.1,1.5-5.5,1.8-7.1
					c0.3-1.5,0.4-2.8,0.2-3.7c0-0.1-0.1-0.2-0.3-0.4c-0.1-0.1-0.1-0.1-0.1-0.1l-0.2,0.1c-0.7,0.1-1.4,0.3-2.1,0.6
					c0.2,0.1,0.3,0.3,0.3,0.4C840.5,60.2,840.1,61.3,839.7,62.1z M842.4,58.9L842.4,58.9L842.4,58.9z"/>
			</g>
			<g>
				<path class="st0" d="M872.6,74c0.6,3.8,2.1,5.6,4.6,5.2c4.1-0.6,6.9-4.9,8.4-12.8c-3.2-3.3-5.1-6.9-5.7-10.6
					c-0.7-4.7,0.1-7.2,2.6-7.6c1.8-0.3,3.3,0.5,4.5,2.4c0.9,1.4,1.5,3.1,1.9,5.2c0.5,2.9,0.2,6.5-0.8,10.9c2,1.2,4.1,1.7,6.3,1.3
					c1.6-0.3,3.1-0.9,4.6-2l0.1,0.9c-1.3,1-2.9,1.7-4.8,2c-2.1,0.3-4.2,0-6.4-1c-3,7.7-6.7,11.9-11.1,12.6c-2.3,0.4-4.3,0-5.8-1.1
					c-1.5-1.1-2.5-2.8-2.8-5.2c-0.4-2.7-0.2-5.5,0.6-8.5c-0.8,0-1.7,0.1-2.8,0.3c-1,0.2-1.8,0.3-2.2,0.4c-0.6,0.1-1.2,0.2-1.6,0.4
					c-0.5,0.2-0.9,0.5-1.3,1.1c-0.4,0.6-0.8,1.4-1.1,2.6s-0.7,2.7-1.1,4.7c-0.2,1.2-0.5,2.4-0.6,3.5c-0.2,1.1-0.4,2-0.7,2.8
					c-0.3,0.8-0.7,1.4-1.2,1.9s-1.1,0.7-2,0.7c-0.9-0.3-1.5-0.9-2-1.8c-0.5-0.8-0.8-1.8-0.9-2.8c-0.2-1.1-0.2-2.6,0-4.3
					c0.2-1.7,0.5-3.8,1-6.1c0.3-0.9,0.6-2.2,1-3.9c0.4-1.8,0.9-4,1.5-6.7c1.1-0.6,2-1.3,2.8-1.8c0.8-0.6,1.5-1.2,2.1-1.8l-0.1,0
					c0-0.1,0.3-0.1,0.7-0.2c0.2,0,0.3,0.1,0.3,0.4c0.3,2.2-0.6,6.4-2.7,12.7c-2.2,6.4-3.1,10.7-2.7,13l0.2,1.4l0.6-0.2l0.2-0.4
					c0.2-0.6,0.5-1.6,0.7-3c0.2-1.4,0.5-2.9,0.8-4.5c0.3-1.6,0.6-3.1,1-4.5c0.4-1.4,0.9-2.4,1.5-3.1c0.4-0.3,1.1-0.6,2.1-0.8
					c1-0.2,1.9-0.4,2.7-0.5c0.4-0.1,1-0.1,1.7-0.2c0.7-0.1,1.5-0.2,2.3-0.4c0.1-0.2,0.2-0.4,0.3-0.7c1.2-3.4,3-6.4,5.3-9
					c1.7-1.9,3-2.9,3.8-3.1c0.2,0,0.4,0,0.4,0.2c0,0.1-0.3,0.6-0.8,1.5C873.4,60.2,871.6,67,872.6,74L872.6,74z M882.2,49.7l-0.4,0
					c-1,0.5-1.3,2-0.9,4.8c0.6,3.6,2.2,7.1,4.9,10.3c0.1-2.6,0-5.3-0.5-8.1C884.7,52.8,883.6,50.5,882.2,49.7z"/>
				<path class="st0" d="M854.1,85.1C854.1,85.1,854,85.1,854.1,85.1l-0.2,0l-0.2-0.1c-1.1-0.4-1.9-1.2-2.5-2.2
					c-0.5-0.9-0.9-2-1.1-3.1c-0.2-1.2-0.2-2.7,0-4.5c0.2-1.8,0.5-3.8,1-6.2c0.3-0.9,0.6-2.2,1-3.9c0.4-1.8,0.9-4,1.5-6.7l0.1-0.4
					l0.4-0.2c1-0.6,1.9-1.2,2.7-1.8c0.6-0.5,1.2-0.9,1.7-1.4l0.1-0.1c0.3-0.4,0.7-0.5,1.4-0.6c0.1,0,0.3,0,0.4,0l1.8-0.3l-0.9,1
					c0.1,0.2,0.1,0.3,0.2,0.5c0.3,2-0.3,5.6-1.9,10.8c0.6-0.5,1.4-0.8,2.6-1.1c1-0.2,2-0.4,2.8-0.5c0.4-0.1,1-0.1,1.8-0.2
					c0.5,0,1.1-0.1,1.6-0.3c0-0.1,0.1-0.1,0.1-0.2c1.2-3.5,3.1-6.6,5.5-9.3c1.9-2.2,3.3-3.2,4.4-3.4c0.2,0,0.4,0,0.6,0
					c0.4-2.1,1.6-3.3,3.5-3.6c1.5-0.2,3.7,0.1,5.5,2.8c1,1.5,1.6,3.4,2,5.5c0.5,2.9,0.3,6.4-0.7,10.5c1.6,0.8,3.2,1.1,5,0.8
					c1.4-0.2,2.8-0.8,4.1-1.8l1.5-1.1l0.3,3.3l-0.4,0.3c-1.5,1.1-3.2,1.9-5.3,2.2c-1.9,0.3-3.9,0.1-6-0.7c-3.1,7.4-7,11.5-11.5,12.2
					c-2.6,0.4-4.8,0-6.5-1.3c-1.7-1.3-2.8-3.2-3.2-5.8c-0.4-2.4-0.3-4.9,0.3-7.5c-0.4,0-0.8,0.1-1.3,0.2c-1,0.2-1.8,0.3-2.2,0.4
					c-0.5,0.1-1,0.2-1.5,0.4c-0.3,0.1-0.6,0.4-0.9,0.8c-0.3,0.5-0.7,1.2-1,2.3c-0.3,1.1-0.7,2.6-1,4.6c-0.2,1.2-0.5,2.4-0.6,3.5
					c-0.2,1.1-0.5,2.2-0.8,3c-0.4,0.9-0.8,1.7-1.4,2.3C856.1,84.7,855.2,85.1,854.1,85.1z M855.5,59.1c-0.6,2.5-1.1,4.6-1.4,6.3
					c-0.4,1.8-0.7,3.1-1,4c-0.5,2.2-0.8,4.2-1,5.9c-0.2,1.6-0.2,3,0,4c0.1,0.9,0.4,1.7,0.8,2.5c0.3,0.6,0.8,1,1.3,1.3
					c0.1,0,0.1,0,0.2,0l-0.3-2.2c-0.4-2.4,0.5-6.8,2.8-13.4c2.1-6.2,2.7-9.5,2.7-11.3c-0.5,0.4-1,0.8-1.5,1.2
					C857.3,58,856.4,58.5,855.5,59.1z M869.9,65l-0.2,0.9c-0.8,2.8-1,5.5-0.6,8c0.3,2.1,1.1,3.6,2.4,4.5c0.8,0.5,1.6,0.9,2.6,1
					c-0.2-0.2-0.4-0.4-0.6-0.6c-0.9-1-1.5-2.6-1.9-4.7l-0.1-0.4l0.1-0.1c-0.9-6.3,0.5-12.6,4.3-18.8c-0.2,0.2-0.4,0.4-0.6,0.6
					c-2.2,2.5-3.9,5.4-5.1,8.6c-0.1,0.3-0.2,0.5-0.2,0.7L869.9,65z M873.7,74.3c0.3,1.5,0.7,2.6,1.3,3.3c0.5,0.6,1.2,0.8,2.1,0.7
					c3.5-0.6,6-4.4,7.4-11.5c-3.1-3.4-5-7-5.6-10.7c-0.1-0.6-0.2-1.2-0.2-1.8c-4.4,6.4-6.1,13-5,19.6L873.7,74.3L873.7,74.3z
					 M886.5,67.2c-0.2,1.1-0.5,2.1-0.7,3c0.4-0.9,0.8-1.8,1.2-2.7l0.1-0.3l-0.1-0.1l0.2-0.7c1-4.2,1.3-7.7,0.8-10.5
					c-0.3-1.9-0.9-3.5-1.8-4.8c-1.1-1.7-2.2-2-3-2c1.5,1.1,2.5,3.6,3.1,7.4c0.5,2.9,0.6,5.7,0.5,8.3l-0.1,2.6L886.5,67.2z M882,50.8
					c-0.3,0.4-0.4,1.5-0.1,3.5c0.4,2.5,1.4,5,2.9,7.4c-0.1-1.6-0.2-3.2-0.5-4.9C883.7,53,882.8,51.4,882,50.8z M878.6,52.8
					L878.6,52.8L878.6,52.8z"/>
			</g>
			<g>
				<path class="st0" d="M910.1,42.6c1,0.6,1.9,1.2,2.8,1.8c0.9,0.6,1.6,1.2,2.3,1.8c0.7,0.6,1.2,1.4,1.7,2.2
					c0.5,0.8,0.9,1.8,1.2,2.8c0.4,1.4,0.5,3,0.3,4.9c-0.2,1.8-0.6,3.8-1.1,6l-0.2,1.2c-3.1,7.7-6.8,11.9-11.1,12.6
					c-2.4,0.4-4.3,0-5.8-1.1c-1.5-1.1-2.4-2.8-2.8-5.2c-0.5-3.2-0.1-6.7,1.2-10.3c1.2-3.4,2.9-6.3,5.3-9c1.7-1.9,3-2.9,3.8-3.1
					c0.2,0,0.4,0,0.4,0.2c0,0.1-0.3,0.6-0.8,1.5c-4.6,6.7-6.4,13.5-5.3,20.4l-0.1,0.1c0.6,3.8,2.1,5.6,4.6,5.2
					c4.1-0.6,6.9-4.9,8.3-12.8c0.2-3.7,0.1-7-0.3-9.7c-0.4-2.6-1-4.4-1.7-5.6c-0.4-0.5-1.1-1.1-2.2-1.7c-1.1-0.7-2.3-1.5-3.5-2.4
					c-1.2-0.9-2.4-1.9-3.5-2.9c-1.1-1.1-1.8-2.2-2.2-3.4c-0.4-1.1-0.4-2.2,0-3.2c0.3-1.1,0.9-2,1.8-2.9c0.9-0.9,2-1.6,3.3-2.3
					c1.3-0.6,2.9-1.1,4.5-1.4c2.6-0.4,5.4-1.3,8.6-2.7c3.2-1.4,5.1-2.8,5.7-4.3c0.2,1.2,0.2,2.4,0,3.5c-0.2,1.1-0.7,2.4-1.3,3.7
					c-0.7,1.4-1.4,2.3-2.3,2.9c-0.9,0.5-1.9,0.9-2.9,1c-1.1,0.1-2.2,0.1-3.4-0.1c-1.2-0.2-2.4-0.3-3.6-0.4c-1.2-0.1-2.5-0.1-3.7,0
					c-1.3,0.1-2.5,0.6-3.7,1.3c-0.4,0.3-0.9,0.8-1.3,1.5c-0.4,0.8-0.6,1.7-0.4,2.7c0.2,1,0.8,2.2,1.9,3.5
					C905.7,40.1,907.6,41.4,910.1,42.6z"/>
				<path class="st0" d="M904.1,76.9c-1.8,0-3.4-0.5-4.7-1.4c-1.7-1.2-2.8-3.2-3.2-5.9c-0.5-3.4-0.1-7,1.2-10.8
					c1.2-3.4,3-6.6,5.5-9.3c1.9-2.1,3.3-3.2,4.4-3.4c0.9-0.1,1.4,0.4,1.5,1.1c0.1,0.4-0.1,0.8-1,2.2c-4.4,6.4-6.2,13.1-5.1,19.7
					l0.1,0.4l-0.1,0.1c0.3,1.5,0.7,2.6,1.3,3.3c0.5,0.6,1.2,0.8,2.1,0.7c3.6-0.6,6.1-4.6,7.5-12c0.2-3.6,0.1-6.8-0.3-9.4
					c-0.4-2.4-0.9-4.1-1.5-5.2c-0.2-0.2-0.7-0.7-1.9-1.5c-1.1-0.7-2.3-1.5-3.5-2.4c-1.3-0.9-2.5-2-3.6-3c-1.2-1.2-2-2.4-2.4-3.8
					c-0.4-1.3-0.4-2.6,0-3.8c0.4-1.2,1.1-2.3,2.1-3.3c0.9-1,2.2-1.8,3.6-2.5c1.4-0.7,3-1.2,4.8-1.5c2.5-0.4,5.3-1.3,8.3-2.6
					c3.7-1.6,4.8-2.9,5.2-3.7l1.3-3.1l0.6,3.3c0.3,1.3,0.3,2.6,0,3.9c-0.2,1.2-0.7,2.5-1.3,3.9c-0.7,1.5-1.6,2.6-2.7,3.3
					c-1,0.6-2.1,1-3.4,1.1c-1.1,0.1-2.4,0.1-3.6-0.1c-1.1-0.2-2.3-0.3-3.6-0.4c-1.2-0.1-2.4-0.1-3.5,0c-1.1,0.1-2.2,0.5-3.3,1.2
					c-0.2,0.1-0.5,0.4-1,1.2c-0.3,0.6-0.4,1.2-0.2,2.1c0.2,0.9,0.7,1.9,1.7,3c1,1.2,2.7,2.3,5.1,3.5l0.1,0c1,0.6,2,1.2,2.8,1.8
					c0.9,0.6,1.7,1.2,2.4,1.9c0.7,0.7,1.3,1.5,1.8,2.4c0.5,0.9,0.9,1.9,1.3,3c0.5,1.5,0.6,3.3,0.3,5.3c-0.2,1.9-0.6,3.9-1.1,6.1
					l-0.3,1.3c-3.2,8-7.2,12.4-11.9,13.2C905.3,76.9,904.7,76.9,904.1,76.9z M905,50.3c-0.2,0.2-0.4,0.4-0.6,0.6
					c-2.3,2.5-4,5.4-5.1,8.6c-1.2,3.5-1.6,6.7-1.2,9.8c0.3,2.1,1.1,3.6,2.4,4.6c0.8,0.5,1.6,0.9,2.7,1c-0.2-0.2-0.5-0.4-0.7-0.6
					c-0.9-1-1.5-2.6-1.9-4.7l-0.1-0.4l0.1-0.1C899.8,62.7,901.3,56.4,905,50.3z M913.7,46.2c0.7,1.3,1.3,3.1,1.7,5.7
					c0.4,2.8,0.5,6.1,0.3,9.9l0,0.1c-0.2,1.3-0.5,2.5-0.8,3.6c0.4-0.8,0.8-1.7,1.1-2.6l0.2-1.1c0.5-2.2,0.9-4.1,1.1-5.9
					c0.2-1.7,0.1-3.2-0.3-4.5c-0.3-1-0.6-1.8-1.1-2.6c-0.4-0.7-0.9-1.4-1.5-2C914.2,46.7,914,46.4,913.7,46.2z M924.4,21.9
					c-1.1,0.9-2.5,1.7-4.4,2.6c-3.2,1.4-6.2,2.4-8.8,2.8c-1.6,0.2-3,0.7-4.3,1.3c-0.7,0.3-1.4,0.7-1.9,1.2c1-0.4,1.9-0.7,2.9-0.8
					c1.3-0.2,2.6-0.2,4,0c1.3,0.1,2.5,0.3,3.7,0.4c1.1,0.2,2.1,0.2,3.1,0.1c0.9-0.1,1.8-0.4,2.5-0.9c0.7-0.4,1.4-1.3,1.9-2.4
					c0.6-1.2,1-2.4,1.2-3.4C924.4,22.4,924.4,22.1,924.4,21.9z"/>
			</g>
			<g>
				<path class="st0" d="M926.9,65.5c0.6,3.8,2.1,5.6,4.6,5.2c4.1-0.6,6.9-4.9,8.4-12.8c-3.2-3.3-5.1-6.9-5.7-10.6
					c-0.7-4.7,0.1-7.2,2.6-7.6c1.8-0.3,3.3,0.5,4.5,2.4c0.9,1.4,1.5,3.1,1.9,5.2c0.5,2.9,0.2,6.5-0.8,10.9c2,1.2,4.1,1.7,6.3,1.3
					c1.6-0.3,3.1-0.9,4.6-2l0.1,0.9c-1.3,1-2.9,1.7-4.8,2c-2.1,0.3-4.2,0-6.4-1c-3,7.7-6.7,11.9-11.1,12.6c-2.3,0.4-4.3,0-5.8-1.1
					c-1.5-1.1-2.5-2.8-2.8-5.2c-0.5-3.2-0.1-6.7,1.2-10.3c1.2-3.4,3-6.4,5.3-9c1.7-1.9,3-2.9,3.8-3.1c0.2,0,0.4,0,0.4,0.2
					c0,0.1-0.3,0.6-0.8,1.5C927.7,51.7,925.9,58.5,926.9,65.5L926.9,65.5z M936.5,41.1l-0.4,0c-1,0.5-1.3,2-0.9,4.8
					c0.6,3.6,2.2,7.1,4.9,10.3c0.1-2.6,0-5.3-0.5-8.1C939,44.2,938,41.9,936.5,41.1z"/>
				<path class="st0" d="M929.4,72.9c-1.8,0-3.4-0.5-4.7-1.4c-1.7-1.3-2.8-3.2-3.2-5.8c-0.5-3.4-0.1-7,1.2-10.8
					c1.2-3.5,3.1-6.6,5.5-9.3c1.9-2.2,3.3-3.2,4.4-3.4c0.2,0,0.4,0,0.6,0c0.4-2.1,1.6-3.3,3.5-3.6c1.5-0.2,3.7,0.1,5.5,2.8
					c1,1.5,1.6,3.4,2,5.5c0.5,2.9,0.3,6.4-0.7,10.5c1.6,0.8,3.2,1.1,5,0.8c1.4-0.2,2.8-0.8,4.1-1.8l1.5-1.1l0.3,3.3l-0.4,0.3
					c-1.5,1.1-3.2,1.9-5.3,2.2c-1.9,0.3-3.9,0.1-6-0.7c-3.1,7.4-7,11.5-11.5,12.2C930.6,72.9,930,72.9,929.4,72.9z M930.2,46.3
					c-0.2,0.2-0.4,0.4-0.6,0.6c-2.2,2.5-3.9,5.4-5.1,8.6c-1.2,3.4-1.6,6.7-1.1,9.8c0.3,2.1,1.1,3.6,2.4,4.5c0.8,0.5,1.6,0.9,2.6,1
					c-0.2-0.2-0.4-0.4-0.6-0.6c-0.9-1-1.5-2.6-1.9-4.7l-0.1-0.4l0.1-0.1C925.1,58.8,926.5,52.5,930.2,46.3z M928,65.7
					c0.3,1.5,0.7,2.6,1.3,3.3c0.5,0.6,1.2,0.8,2.1,0.7c3.5-0.6,6-4.4,7.4-11.5c-3.1-3.4-5-7-5.6-10.7c-0.1-0.6-0.2-1.2-0.2-1.8
					c-4.4,6.4-6.1,13-5,19.6L928,65.7L928,65.7z M940.8,58.6c-0.2,1.1-0.5,2.1-0.7,3c0.4-0.9,0.8-1.8,1.2-2.7l0.1-0.3l-0.1-0.1
					l0.2-0.7c1-4.2,1.3-7.7,0.8-10.5c-0.3-1.9-0.9-3.5-1.8-4.8c-1.1-1.7-2.2-2-3-2c1.5,1.1,2.5,3.6,3.1,7.4c0.5,2.9,0.6,5.6,0.5,8.3
					l-0.1,2.6L940.8,58.6z M936.3,42.2c-0.3,0.4-0.4,1.5-0.1,3.5c0.4,2.5,1.4,5,2.9,7.4c-0.1-1.6-0.2-3.2-0.5-4.8
					C938,44.3,937,42.8,936.3,42.2z"/>
			</g>
			<g>
				<path class="st0" d="M962.8,46.4c-2.1,9.8-2.9,15.6-2.7,17.4c0.1,0.7,0.5,1.4,1.2,1.8c0.7,0.5,1.4,0.6,2.2,0.5
					c4.6-0.7,8-5,10.2-12.8c-2.9-3-4.6-6.2-5.1-9.6c-0.4-2.2-0.3-4.1,0.3-5.6c0.5-1.5,1.5-2.4,2.8-2.6c0.7-0.1,1.3,0,1.9,0.4
					c0.6,0.4,1.2,0.9,1.7,1.6c0.5,0.7,0.9,1.5,1.3,2.5s0.6,1.9,0.8,3c0.5,2.9-0.1,6.5-1.8,11c2.2,1.8,4.9,2.5,8.1,2
					c1.1-0.2,1.7-0.2,1.9-0.1c-0.2,0.6-0.7,1-1.6,1.1c-0.7,0.1-1.4,0.1-2.2,0s-1.6-0.2-2.4-0.5c-0.8-0.2-1.5-0.5-2.3-0.8
					s-1.4-0.7-1.9-1.1c-1.4,2.4-2.6,4.3-3.7,5.9c-1.1,1.5-2.1,2.8-3.1,3.7c-1,0.9-1.9,1.6-2.9,2c-0.9,0.4-2,0.7-3.2,0.9
					c-1.6,0.3-3,0-4.2-0.7c-1.2-0.7-1.9-1.7-2.1-2.9c-0.1-0.8-0.2-1.7-0.2-2.5c0-0.8,0.1-2,0.4-3.5s0.6-3.6,1.1-6.2
					c0.5-2.6,1.2-6.1,2-10.4c-0.8,0.3-1.8,0.7-3.2,1.1c-1.4,0.4-3.1,0.8-5.2,1.3l0.8-1.9c0.1,0,0.3,0,0.4,0c0.1,0,0.3,0,0.5,0
					c0.8-0.1,1.8-0.4,3-0.7c1.2-0.4,2.5-0.8,4-1.3c0.4-1.6,0.7-3.3,1-5.1c0.3-1.8,0.7-3.6,1-5.3c0.4-1.8,0.8-3.5,1.3-5.1
					c0.5-1.6,1-3.1,1.8-4.4c0.7-1.3,1.6-2.4,2.5-3.2c1-0.9,2.2-1.4,3.6-1.6c0.6-0.1,1.2-0.1,1.9-0.1s1.3,0.2,1.9,0.6
					c0.6,0.4,1.1,1,1.5,1.8c0.4,0.8,0.7,2,0.8,3.5c0.1,1.3-0.3,2.9-1.1,4.6s-1.9,3.5-3.3,5.3c-1.3,1.8-2.8,3.5-4.3,5.1
					c-1.5,1.6-2.9,2.9-4.2,3.8L962.8,46.4z M964.6,37.1c1.6-1.1,3-2.4,4.4-3.9c1.4-1.5,2.6-3.1,3.6-4.8c1-1.6,1.8-3.3,2.4-4.8
					c0.6-1.6,0.9-3,1-4.2c0-1.2-0.2-2.1-0.8-2.8c-0.6-0.7-1.5-0.9-2.8-0.7c-1.4,0.2-2.7,2-4.1,5.3S965.6,29.9,964.6,37.1z
					 M971.4,36.5l-0.5,0.1c-1.4,0.2-1.7,2.7-0.9,7.5c0.4,2.6,1.7,5.4,3.9,8.5c0.5-4.9,0.7-8.2,0.4-9.9
					C973.8,39.4,972.9,37.4,971.4,36.5z"/>
				<path class="st0" d="M961.3,68.1c-1.3,0-2.5-0.3-3.6-1c-1.5-0.9-2.3-2.1-2.6-3.6c-0.1-0.9-0.2-1.8-0.2-2.7
					c0-0.9,0.2-2.1,0.4-3.6c0.2-1.5,0.6-3.6,1.1-6.2c0.4-2.2,1-5.1,1.7-8.7c-0.5,0.2-1,0.3-1.6,0.5c-1.4,0.4-3.2,0.9-5.3,1.3
					l-1.9,0.4l1.8-4.2l0.5-0.1c0.2,0,0.4,0,0.6,0c0.1,0,0.2,0,0.3,0c0.8-0.1,1.8-0.4,2.9-0.7c1-0.3,2.2-0.7,3.4-1.1
					c0.3-1.4,0.6-2.9,0.9-4.5c0.3-1.8,0.7-3.6,1-5.4c0.4-1.8,0.8-3.5,1.3-5.2c0.5-1.7,1.1-3.3,1.8-4.6c0.8-1.4,1.7-2.6,2.8-3.5
					c1.1-1,2.5-1.6,4.1-1.8c0.6-0.1,1.3-0.1,2.1-0.1c0.8,0,1.6,0.3,2.4,0.8c0.7,0.5,1.4,1.2,1.9,2.2c0.5,1,0.8,2.3,0.9,4
					c0.1,1.5-0.3,3.2-1.2,5.1c-0.9,1.8-2,3.7-3.4,5.5c-1,1.4-2.1,2.7-3.3,4c0.4-0.2,0.8-0.3,1.2-0.4c0.9-0.1,1.7,0,2.6,0.5
					c0.7,0.4,1.4,1.1,2,1.9c0.5,0.8,1,1.7,1.4,2.7c0.4,1,0.7,2.1,0.8,3.2c0.5,2.9-0.1,6.5-1.6,10.8c1.9,1.3,4.1,1.8,6.7,1.3
					c1.7-0.3,2.2-0.2,2.6,0.1l0.6,0.4l-0.2,0.7c-0.2,0.7-0.8,1.6-2.4,1.8c-0.7,0.1-1.6,0.1-2.5,0c-0.9-0.1-1.7-0.3-2.5-0.5
					c-0.8-0.2-1.6-0.5-2.4-0.8c-0.4-0.2-0.8-0.4-1.1-0.6c-1.2,2-2.2,3.7-3.2,5c-1.1,1.6-2.2,2.9-3.2,3.8c-1,1-2.1,1.7-3.1,2.2
					c-1,0.5-2.2,0.8-3.4,1C962.2,68.1,961.7,68.1,961.3,68.1z M960.7,39.9l-0.2,1c-0.9,4.4-1.5,7.8-2,10.4c-0.5,2.6-0.9,4.6-1.1,6.1
					c-0.2,1.4-0.4,2.6-0.4,3.3c0,0.8,0,1.5,0.2,2.3c0.1,0.9,0.7,1.7,1.7,2.2c0.4,0.3,0.9,0.5,1.4,0.6c-0.6-0.6-1-1.2-1.1-2
					c-0.2-1.3-0.1-4.5,2.7-17.8v0l1.5-6.9l0,0l0.3-2.3c1.1-7.3,2.3-12.7,3.7-16.1c1.2-2.9,2.4-4.7,3.8-5.5c-1.1,0.2-2.1,0.7-3,1.4
					c-0.9,0.8-1.7,1.8-2.3,3c-0.7,1.2-1.2,2.7-1.7,4.2c-0.5,1.6-0.9,3.3-1.2,5c-0.4,1.7-0.7,3.5-1,5.3c-0.3,1.8-0.7,3.6-1,5.2
					L960.7,39.9z M963.7,46.6c-2.5,12-2.8,15.9-2.7,17.1c0.1,0.5,0.3,0.8,0.8,1.1c0.5,0.3,1,0.4,1.5,0.4c4.1-0.6,7.2-4.5,9.3-11.6
					c-2.8-3-4.4-6.3-5-9.8c-0.4-2.4-0.3-4.5,0.3-6.1c0.1-0.2,0.2-0.4,0.3-0.6c-1.1,1-2.1,1.9-3,2.7L963.7,46.6L963.7,46.6z
					 M973.2,36.8c1,1.2,1.7,3.1,2.1,5.7c0.3,1.8,0.2,5-0.3,9.9c1.3-3.8,1.7-6.9,1.3-9.4c-0.2-1-0.4-1.9-0.7-2.8
					c-0.3-0.9-0.7-1.6-1.2-2.2C974.1,37.5,973.7,37.1,973.2,36.8z M971.2,37.5L971.2,37.5c-0.1,0-1.1,0.5-0.2,6.4
					c0.3,1.8,1,3.7,2.2,5.7c0.3-3.2,0.3-5.5,0.1-6.8C972.9,40.2,972.2,38.4,971.2,37.5z M973.2,16.9c-0.2,0-0.5,0-0.7,0.1
					c-0.4,0.1-1.7,0.7-3.3,4.7c-1.2,2.8-2.3,7.3-3.2,13.2c0.8-0.7,1.6-1.4,2.3-2.3c1.3-1.5,2.5-3,3.5-4.6c1-1.6,1.8-3.2,2.4-4.7
					c0.6-1.5,0.9-2.8,0.9-3.9c0-0.9-0.1-1.6-0.5-2.1C974.2,17,973.8,16.9,973.2,16.9z"/>
			</g>
			<g>
				<path class="st0" d="M995.5,20.6l0.1,0.4c-1.7,1.5-3.5,2.5-5.4,3.2c-1.2-0.1-1.9-0.9-2.1-2.3c-0.5-3.1,1.9-7.5,7.2-13.1
					c0.1-0.1,0.2-0.1,0.4-0.1c0.1,0,0.2,0.1,0.3,0.2c-0.1-0.5-0.2-0.8-0.4-0.7c-0.4,0.1-1,1.2-1.8,3.4c-1.2,3.4-1.7,5.5-1.6,6.4
					c0.2,1.3,0.8,2,1.7,2.1C994.9,20.3,995.4,20.5,995.5,20.6z"/>
				<path class="st0" d="M990.3,25.2l-0.2,0c-0.9-0.1-2.6-0.6-3-3.2c-0.5-3.3,1.6-7.6,6.6-13.1c0.6-1.3,1.1-1.7,1.6-1.8
					c0.3,0,0.6,0,0.9,0.2c0.5,0.3,0.6,0.9,0.7,1.3l-1.5,0.2l0.2,0.2c0,0,0,0,0,0c0.2,0,0.3-0.1,0.3-0.1c0,0-0.1,0.1-0.2,0.3l0.2,0.2
					c-0.2,0.2-0.4,0.4-0.5,0.6c-0.2,0.4-0.4,1-0.7,1.9c-1.5,4.3-1.6,5.6-1.5,6c0.2,1.2,0.7,1.3,0.9,1.3c1.5,0.3,1.9,0.4,2.2,0.7
					l0.2,0.2l0.2,1.3l-0.4,0.4c-1.8,1.6-3.8,2.7-5.7,3.3L990.3,25.2z M991.7,14.6c-2.5,3.5-2.9,5.8-2.6,7.1c0.2,1.2,0.7,1.4,1,1.5
					c1.3-0.4,2.5-1.1,3.7-2c0,0,0,0,0,0c-0.8-0.1-2.2-0.7-2.6-3C991.1,17.6,991.1,16.7,991.7,14.6z M995.6,9.6c0.1,0,0.1,0,0.2,0
					l-0.1-0.2C995.7,9.5,995.6,9.6,995.6,9.6z M995.1,9c0.1,0.1,0.3,0.1,0.4,0.1L995.4,9L995.1,9z"/>
			</g>
			<g>
				<path class="st0" d="M1021.6,50.6c0.6,3.8,2.2,5.6,4.6,5.2c4.1-0.6,6.9-4.9,8.4-12.8c-3.2-3.3-5.1-6.9-5.7-10.6
					c-0.7-4.7,0.1-7.2,2.6-7.6c1.8-0.3,3.3,0.5,4.5,2.4c0.9,1.4,1.5,3.1,1.9,5.2c0.5,2.9,0.2,6.5-0.8,10.9c2,1.2,4.1,1.7,6.3,1.3
					c1.6-0.3,3.1-0.9,4.6-2l0.1,0.9c-1.3,1-2.9,1.7-4.8,2c-2.1,0.3-4.2,0-6.4-1c-3,7.7-6.7,11.9-11.1,12.6c-2.3,0.4-4.3,0-5.8-1.1
					c-1.5-1.1-2.5-2.8-2.8-5.2c-0.4-2.7-0.2-5.5,0.6-8.5c-0.8,0-1.7,0.1-2.8,0.3s-1.8,0.3-2.2,0.4c-0.6,0.1-1.2,0.2-1.6,0.4
					c-0.5,0.2-0.9,0.5-1.3,1.1c-0.4,0.6-0.8,1.4-1.1,2.6c-0.3,1.1-0.7,2.7-1.1,4.7c-0.2,1.2-0.4,2.4-0.6,3.5c-0.2,1.1-0.4,2-0.7,2.8
					c-0.3,0.8-0.7,1.4-1.2,1.9c-0.5,0.5-1.1,0.7-2,0.7c-0.9-0.3-1.5-0.9-2-1.8c-0.5-0.8-0.8-1.8-0.9-2.8c-0.2-1.1-0.2-2.6,0-4.3
					c0.2-1.7,0.5-3.8,1-6.1c0.3-0.9,0.6-2.2,1-3.9s0.9-4,1.5-6.7c1.1-0.6,2-1.3,2.8-1.8c0.8-0.6,1.5-1.2,2.1-1.8l-0.1,0
					c0-0.1,0.3-0.1,0.7-0.2c0.2,0,0.3,0.1,0.3,0.4c0.3,2.2-0.6,6.4-2.7,12.7c-2.2,6.4-3.1,10.7-2.7,13l0.2,1.4l0.6-0.2l0.2-0.4
					c0.2-0.6,0.5-1.6,0.7-3c0.2-1.4,0.5-2.9,0.8-4.5c0.3-1.6,0.6-3.1,1-4.5c0.4-1.4,0.9-2.4,1.5-3.1c0.4-0.3,1.1-0.6,2.1-0.8
					c1-0.2,1.9-0.4,2.7-0.5c0.4-0.1,1-0.1,1.7-0.2s1.5-0.2,2.3-0.4c0.1-0.2,0.1-0.4,0.3-0.7c1.2-3.4,3-6.4,5.3-9
					c1.7-1.9,3-2.9,3.8-3.1c0.2,0,0.4,0,0.4,0.2c0,0.1-0.3,0.6-0.8,1.5C1022.4,36.8,1020.6,43.6,1021.6,50.6L1021.6,50.6z
					 M1031.2,26.2l-0.4,0c-1,0.5-1.3,2-0.9,4.8c0.6,3.6,2.2,7.1,4.9,10.3c0.1-2.6,0-5.3-0.5-8.1C1033.7,29.3,1032.7,27,1031.2,26.2z
					"/>
				<path class="st0" d="M1003.1,61.6C1003.1,61.6,1003,61.6,1003.1,61.6l-0.2,0l-0.2-0.1c-1.1-0.4-1.9-1.2-2.5-2.2
					c-0.5-0.9-0.9-2-1.1-3.1c-0.2-1.2-0.2-2.7,0-4.5c0.2-1.8,0.5-3.8,1-6.2c0.3-0.9,0.6-2.2,1-3.9c0.4-1.8,0.9-4,1.5-6.7l0.1-0.4
					l0.4-0.2c1-0.6,1.9-1.2,2.7-1.8c0.6-0.5,1.2-0.9,1.7-1.4l0.1-0.2c0.3-0.4,0.7-0.5,1.3-0.6c0.1,0,0.3,0,0.4,0l1.7-0.3l-0.8,0.9
					c0.1,0.2,0.1,0.3,0.2,0.5c0.3,2-0.3,5.6-1.9,10.8c0.6-0.5,1.4-0.8,2.6-1.1c1-0.2,2-0.4,2.8-0.5c0.4-0.1,1-0.1,1.8-0.2
					c0.5,0,1.1-0.1,1.6-0.3c0-0.1,0.1-0.1,0.1-0.2c1.2-3.5,3.1-6.6,5.5-9.3c1.9-2.2,3.3-3.2,4.4-3.4c0.2,0,0.4,0,0.6,0
					c0.4-2.1,1.6-3.3,3.5-3.6c1.5-0.2,3.7,0.1,5.5,2.8c1,1.5,1.6,3.4,2,5.5c0.5,2.9,0.3,6.4-0.7,10.5c1.6,0.8,3.2,1.1,5,0.8
					c1.4-0.2,2.8-0.8,4.1-1.8l1.5-1.1l0.3,3.3l-0.4,0.3c-1.5,1.1-3.2,1.9-5.3,2.2c-1.9,0.3-3.9,0.1-6-0.7c-3.1,7.4-7,11.5-11.5,12.2
					c-2.6,0.4-4.8,0-6.5-1.3c-1.7-1.3-2.8-3.2-3.2-5.8c-0.4-2.4-0.3-4.9,0.3-7.5c-0.4,0-0.8,0.1-1.3,0.2c-1,0.2-1.8,0.3-2.2,0.4
					c-0.5,0.1-1,0.2-1.4,0.4c-0.3,0.1-0.6,0.4-0.9,0.8c-0.3,0.5-0.7,1.2-1,2.3c-0.3,1.1-0.7,2.6-1,4.6c-0.2,1.2-0.5,2.4-0.6,3.5
					c-0.2,1.1-0.5,2.1-0.8,3c-0.4,0.9-0.8,1.7-1.4,2.3C1005.1,61.3,1004.2,61.6,1003.1,61.6z M1004.5,35.7c-0.6,2.5-1.1,4.6-1.4,6.3
					c-0.4,1.8-0.7,3.1-1,4c-0.5,2.2-0.8,4.2-1,5.9c-0.2,1.6-0.2,3,0,4c0.1,0.9,0.4,1.7,0.8,2.5c0.3,0.6,0.8,1,1.3,1.3
					c0.1,0,0.1,0,0.2,0l-0.3-2.2c-0.4-2.4,0.5-6.8,2.8-13.4c2.1-6.2,2.7-9.5,2.7-11.3c-0.5,0.4-1,0.8-1.5,1.2
					C1006.3,34.5,1005.4,35.1,1004.5,35.7z M1018.9,41.6l-0.2,0.9c-0.8,2.8-1,5.5-0.6,8c0.3,2.1,1.1,3.6,2.4,4.5
					c0.8,0.5,1.6,0.9,2.6,1c-0.2-0.2-0.4-0.4-0.6-0.6c-0.9-1-1.5-2.6-1.9-4.7l-0.1-0.4l0.1-0.1c-0.9-6.3,0.5-12.6,4.3-18.8
					c-0.2,0.2-0.4,0.4-0.6,0.6c-2.2,2.5-3.9,5.4-5.1,8.6c-0.1,0.3-0.2,0.5-0.2,0.7L1018.9,41.6z M1022.7,50.8
					c0.3,1.5,0.7,2.6,1.3,3.3c0.5,0.6,1.2,0.8,2.1,0.7c3.5-0.6,6-4.4,7.4-11.5c-3.1-3.4-5-7-5.6-10.7c-0.1-0.6-0.2-1.2-0.2-1.8
					c-4.4,6.4-6.1,13-5,19.6L1022.7,50.8L1022.7,50.8z M1035.5,43.7c-0.2,1.1-0.5,2.1-0.7,3c0.4-0.9,0.8-1.8,1.2-2.7l0.1-0.3
					l-0.1-0.1l0.2-0.7c1-4.2,1.3-7.7,0.8-10.5c-0.3-1.9-0.9-3.5-1.8-4.8c-1.1-1.7-2.2-2-3-2c1.5,1.1,2.5,3.6,3.1,7.4
					c0.5,2.9,0.6,5.6,0.5,8.3l-0.1,2.6L1035.5,43.7z M1031,27.3c-0.3,0.4-0.4,1.5-0.1,3.5c0.4,2.5,1.4,5,2.9,7.4
					c-0.1-1.6-0.2-3.2-0.5-4.8C1032.7,29.4,1031.7,27.9,1031,27.3z"/>
			</g>
			<g>
				<path class="st0" d="M1057.9,47.5c0.3,0.5,0.5,1,0.6,1.4c0.1,0.7,0,1.3-0.4,1.9c-0.4,0.6-0.9,0.9-1.6,1c-0.7,0.1-1.3,0-1.9-0.5
					c-0.6-0.4-0.9-1-1-1.7c-0.3-1.6,0.5-2.6,2.1-2.9C1056.4,46.7,1057.1,46.9,1057.9,47.5z"/>
				<path class="st0" d="M1056.1,52.8c-0.7,0-1.4-0.2-2.1-0.7c-0.8-0.6-1.3-1.4-1.4-2.3c-0.3-2.2,0.7-3.6,3-4
					c0.9-0.1,1.9,0.2,2.9,0.9l0.2,0.1l0.1,0.2c0.4,0.6,0.6,1.2,0.7,1.7c0.1,0.9-0.1,1.8-0.6,2.6c-0.5,0.8-1.3,1.3-2.2,1.5
					C1056.5,52.8,1056.3,52.8,1056.1,52.8z M1056,47.7c0,0-0.1,0-0.1,0c-1.1,0.2-1.5,0.6-1.3,1.7c0.1,0.4,0.3,0.8,0.6,1
					c0.4,0.3,0.7,0.3,1.2,0.3c0.4-0.1,0.7-0.2,0.9-0.6c0.3-0.4,0.3-0.8,0.3-1.2c0-0.1-0.1-0.4-0.3-0.8
					C1056.9,48,1056.4,47.7,1056,47.7z"/>
			</g>
			<g>
				<path class="st0" d="M1073.6,45c0.3,0.5,0.5,1,0.6,1.4c0.1,0.7,0,1.3-0.4,1.9c-0.4,0.6-0.9,0.9-1.6,1c-0.7,0.1-1.3,0-1.9-0.5
					c-0.6-0.4-0.9-1-1-1.7c-0.3-1.6,0.5-2.6,2.1-2.9C1072,44.2,1072.7,44.5,1073.6,45z"/>
				<path class="st0" d="M1071.7,50.3c-0.7,0-1.4-0.2-2.1-0.7c-0.8-0.6-1.3-1.4-1.4-2.3c-0.3-2.2,0.7-3.7,3-4
					c0.9-0.1,1.9,0.2,2.9,0.9l0.2,0.1l0.1,0.2c0.4,0.6,0.6,1.2,0.7,1.7c0.1,0.9-0.1,1.8-0.6,2.6c-0.5,0.8-1.3,1.3-2.2,1.5
					C1072.1,50.3,1071.9,50.3,1071.7,50.3z M1071.6,45.3c0,0-0.1,0-0.1,0c-1.1,0.2-1.5,0.6-1.3,1.7c0.1,0.4,0.3,0.8,0.6,1
					c0.4,0.3,0.7,0.4,1.2,0.3c0.4-0.1,0.7-0.2,0.9-0.6c0.3-0.4,0.3-0.8,0.3-1.2c0-0.1-0.1-0.4-0.3-0.8
					C1072.5,45.5,1072,45.3,1071.6,45.3z"/>
			</g>
			<g>
				<path class="st0" d="M1089.2,42.6c0.3,0.5,0.5,1,0.6,1.4c0.1,0.7,0,1.3-0.4,1.9c-0.4,0.6-0.9,0.9-1.6,1c-0.7,0.1-1.3,0-1.9-0.5
					c-0.6-0.4-0.9-1-1-1.7c-0.3-1.6,0.5-2.6,2.1-2.9C1087.6,41.8,1088.3,42,1089.2,42.6z"/>
				<path class="st0" d="M1087.3,47.9c-0.7,0-1.4-0.2-2.1-0.7c-0.8-0.6-1.3-1.4-1.4-2.3c-0.3-2.2,0.7-3.7,3-4
					c0.9-0.1,1.9,0.2,2.9,0.9l0.2,0.1l0.1,0.2c0.4,0.6,0.6,1.2,0.7,1.7c0.1,0.9-0.1,1.8-0.6,2.6c-0.5,0.8-1.3,1.3-2.2,1.5
					C1087.7,47.9,1087.5,47.9,1087.3,47.9z M1087.2,42.8c0,0-0.1,0-0.1,0c-1.1,0.2-1.5,0.6-1.3,1.7c0.1,0.4,0.3,0.8,0.6,1
					c0.4,0.3,0.7,0.4,1.2,0.3c0.4-0.1,0.7-0.2,0.9-0.6c0.3-0.4,0.3-0.8,0.3-1.2c0-0.1-0.1-0.4-0.3-0.8
					C1088.1,43.1,1087.6,42.8,1087.2,42.8z"/>
			</g>
		</g>
	</g>
	<path class="st0" d="M3,80.8c2.1-0.1,4.1,0.1,6.1,0.4c1,0.2,2,0.4,3,0.6c1,0.2,2,0.5,3,0.8c1,0.3,2,0.7,2.9,1
		c1,0.4,1.9,0.8,2.9,1.2l1.4,0.7l1.4,0.7c0.9,0.5,1.8,1,2.7,1.6c0.9,0.5,1.7,1.1,2.6,1.7c0.8,0.6,1.7,1.2,2.5,1.8
		c1.6,1.2,3.2,2.5,4.9,3.6c1.6,1.1,3.3,2.1,5,2.6c1.8,0.5,3.6,0.6,5.5,0.3l0,0l0.1,0c0.4,0,0.9,0,1.3-0.1c0.4,0,0.9-0.1,1.3-0.2
		c0.8-0.1,1.7-0.3,2.4-0.6c0.3-0.1,0.6-0.3,0.8-0.4c0.2-0.2,0.2-0.2,0.3-0.3c0-0.1,0-0.3,0-0.6c-0.1-0.3-0.3-0.6-0.4-0.9
		c-0.2-0.2-0.2-0.3-0.3-0.4c-0.1-0.1-0.2-0.3-0.4-0.4c-0.3-0.2-0.6-0.5-0.9-0.6c-0.6-0.3-1.3-0.5-2-0.3c-0.6,0.1-1.3,0.7-1.7,1.4
		c-0.5,0.7-0.8,1.6-1.1,2.5l-0.3,0c0-1,0-2,0.4-2.9c0.3-1,1-2,2.1-2.6c1.1-0.5,2.4-0.5,3.5-0.1c0.5,0.2,1.1,0.5,1.5,0.8
		c0.2,0.2,0.5,0.3,0.7,0.5c0.2,0.2,0.5,0.5,0.6,0.6c0.4,0.5,0.7,0.9,0.9,1.6c0.2,0.6,0.4,1.3,0.3,2.2c-0.2,0.8-0.7,1.6-1.2,2
		c-0.5,0.5-1.1,0.7-1.6,1c-0.5,0.2-1.1,0.4-1.6,0.5c-0.5,0.1-1,0.2-1.5,0.3c-0.5,0.1-1,0.1-1.5,0.1c-0.5,0-1,0-1.5,0l0.2,0
		c-2.2,0.2-4.5-0.1-6.6-0.8c-2.1-0.8-4-2-5.6-3.3c-1.6-1.3-3.2-2.6-4.7-3.9c-0.8-0.6-1.6-1.3-2.4-1.9c-0.8-0.6-1.6-1.2-2.4-1.8
		c-0.8-0.6-1.6-1.1-2.5-1.6l-1.3-0.8l-1.3-0.7c-0.9-0.5-1.8-0.9-2.7-1.3c-0.9-0.4-1.8-0.8-2.8-1.1c-0.9-0.4-1.9-0.7-2.9-1
		c-1-0.3-1.9-0.5-2.9-0.8c-2-0.4-4-0.8-6-0.8L3,80.8z"/>
</g>
</svg>
